<mxfile host="drawio-plugin" modified="2021-09-01T10:33:48.991Z" agent="5.0 (Windows NT 6.2; Win64; x64) AppleWebKit/537.36 (KHTML, like Gecko) Chrome/89.0.4389.114 Safari/537.36" etag="j8wJ060_yevz-FYfHW9g" version="14.7.4" type="embed" pages="4"><diagram name="TwoButtons" id="9f46799a-70d6-7492-0946-bef42562c5a5"><mxGraphModel dx="2045" dy="1493" grid="1" gridSize="10" guides="1" tooltips="1" connect="1" arrows="1" fold="1" page="1" pageScale="1" pageWidth="1100" pageHeight="850" background="none" math="0" shadow="0"><root><mxCell id="0"/><mxCell id="1" parent="0"/><mxCell id="KLwD5VwdmR7PRyjQqvhB-4" style="edgeStyle=orthogonalEdgeStyle;rounded=0;orthogonalLoop=1;jettySize=auto;html=1;exitX=0.5;exitY=1;exitDx=0;exitDy=0;entryX=0.5;entryY=0;entryDx=0;entryDy=0;" parent="1" source="KLwD5VwdmR7PRyjQqvhB-1" target="KLwD5VwdmR7PRyjQqvhB-2" edge="1"><mxGeometry relative="1" as="geometry"/></mxCell><mxCell id="KLwD5VwdmR7PRyjQqvhB-1" value="DoSchedules" style="rounded=1;whiteSpace=wrap;html=1;" parent="1" vertex="1"><mxGeometry x="100" y="40" width="120" height="60" as="geometry"/></mxCell><mxCell id="KLwD5VwdmR7PRyjQqvhB-5" style="edgeStyle=orthogonalEdgeStyle;rounded=0;orthogonalLoop=1;jettySize=auto;html=1;exitX=0.5;exitY=1;exitDx=0;exitDy=0;entryX=0.5;entryY=0;entryDx=0;entryDy=0;" parent="1" source="KLwD5VwdmR7PRyjQqvhB-2" target="KLwD5VwdmR7PRyjQqvhB-3" edge="1"><mxGeometry relative="1" as="geometry"/></mxCell><mxCell id="KLwD5VwdmR7PRyjQqvhB-7" style="edgeStyle=orthogonalEdgeStyle;rounded=0;orthogonalLoop=1;jettySize=auto;html=1;exitX=1;exitY=0.25;exitDx=0;exitDy=0;entryX=1;entryY=0.75;entryDx=0;entryDy=0;" parent="1" source="KLwD5VwdmR7PRyjQqvhB-2" target="KLwD5VwdmR7PRyjQqvhB-1" edge="1"><mxGeometry relative="1" as="geometry"/></mxCell><mxCell id="KLwD5VwdmR7PRyjQqvhB-2" value="DoJobs" style="rounded=1;whiteSpace=wrap;html=1;" parent="1" vertex="1"><mxGeometry x="100" y="140" width="120" height="60" as="geometry"/></mxCell><mxCell id="KLwD5VwdmR7PRyjQqvhB-6" style="edgeStyle=orthogonalEdgeStyle;rounded=0;orthogonalLoop=1;jettySize=auto;html=1;exitX=1;exitY=0.5;exitDx=0;exitDy=0;entryX=1;entryY=0.75;entryDx=0;entryDy=0;" parent="1" source="KLwD5VwdmR7PRyjQqvhB-3" target="KLwD5VwdmR7PRyjQqvhB-2" edge="1"><mxGeometry relative="1" as="geometry"/></mxCell><mxCell id="KLwD5VwdmR7PRyjQqvhB-3" value="DoTasks" style="rounded=1;whiteSpace=wrap;html=1;" parent="1" vertex="1"><mxGeometry x="100" y="240" width="120" height="60" as="geometry"/></mxCell><mxCell id="KLwD5VwdmR7PRyjQqvhB-8" value="For Ugv Mssion" style="rounded=1;whiteSpace=wrap;html=1;" parent="1" vertex="1"><mxGeometry x="360" y="40" width="120" height="60" as="geometry"/></mxCell><mxCell id="KLwD5VwdmR7PRyjQqvhB-9" value="PLC 004 = 1 Start" style="rounded=1;whiteSpace=wrap;html=1;" parent="1" vertex="1"><mxGeometry x="360" y="120" width="120" height="60" as="geometry"/></mxCell><mxCell id="KLwD5VwdmR7PRyjQqvhB-10" value="&lt;b&gt;Need to escape!&lt;/b&gt;" style="text;html=1;strokeColor=none;fillColor=none;align=center;verticalAlign=middle;whiteSpace=wrap;rounded=0;" parent="1" vertex="1"><mxGeometry x="240" y="250" width="110" height="20" as="geometry"/></mxCell><mxCell id="KLwD5VwdmR7PRyjQqvhB-12" value="小車回充電站" style="ellipse;whiteSpace=wrap;html=1;aspect=fixed;" parent="1" vertex="1"><mxGeometry x="760" y="130" width="100" height="100" as="geometry"/></mxCell><mxCell id="KLwD5VwdmR7PRyjQqvhB-14" value="" style="shape=flexArrow;endArrow=classic;html=1;entryX=0.5;entryY=0;entryDx=0;entryDy=0;" parent="1" target="KLwD5VwdmR7PRyjQqvhB-12" edge="1"><mxGeometry width="50" height="50" relative="1" as="geometry"><mxPoint x="810" y="60" as="sourcePoint"/><mxPoint x="1020" y="240" as="targetPoint"/></mxGeometry></mxCell><mxCell id="KLwD5VwdmR7PRyjQqvhB-15" value="&lt;font style=&quot;font-size: 16px&quot;&gt;User Clicks Button&lt;/font&gt;" style="text;html=1;strokeColor=none;fillColor=none;align=center;verticalAlign=middle;whiteSpace=wrap;rounded=0;" parent="1" vertex="1"><mxGeometry x="730" y="30" width="160" height="20" as="geometry"/></mxCell><mxCell id="KLwD5VwdmR7PRyjQqvhB-16" value="" style="shape=flexArrow;endArrow=classic;html=1;exitX=0.5;exitY=1;exitDx=0;exitDy=0;" parent="1" source="KLwD5VwdmR7PRyjQqvhB-12" target="KLwD5VwdmR7PRyjQqvhB-17" edge="1"><mxGeometry width="50" height="50" relative="1" as="geometry"><mxPoint x="809.5" y="235" as="sourcePoint"/><mxPoint x="810" y="310" as="targetPoint"/><Array as="points"><mxPoint x="810" y="290"/></Array></mxGeometry></mxCell><mxCell id="KLwD5VwdmR7PRyjQqvhB-17" value="Front end should:&lt;br&gt;&lt;br&gt;1. Create a new Schedule with &quot;schedule_status&quot; == 7 &amp;amp;&amp;amp; &quot;schedule_command&quot; == 2&lt;br&gt;2. prompt up comfirmation box for user to decide ugv_init_pos&lt;br&gt;3. Only maps with &quot;dock_info&quot; == 1 could be selected.&lt;br&gt;4. After user confirmation, front end should update &quot;planned_start_time&quot; as 10 sec later from current time, and then change &quot;schedule_status&quot; = 1&amp;nbsp;" style="rounded=1;whiteSpace=wrap;html=1;" parent="1" vertex="1"><mxGeometry x="580" y="305" width="460" height="120" as="geometry"/></mxCell><mxCell id="KLwD5VwdmR7PRyjQqvhB-19" value="Need a countdown function, should notify user." style="rounded=1;whiteSpace=wrap;html=1;" parent="1" vertex="1"><mxGeometry x="360" y="310" width="120" height="60" as="geometry"/></mxCell><mxCell id="o0h2RoyA1hUW4Qd77Wsh-2" value="小車回充電站" style="ellipse;whiteSpace=wrap;html=1;aspect=fixed;" parent="1" vertex="1"><mxGeometry x="50" y="460" width="100" height="100" as="geometry"/></mxCell><mxCell id="o0h2RoyA1hUW4Qd77Wsh-4" value="1. Enable Button &quot;回充電站&quot; and &quot;手臂復位&quot; only when &quot;control_mode&quot; == 0 in table &quot;sys_status&quot;" style="rounded=1;whiteSpace=wrap;html=1;" parent="1" vertex="1"><mxGeometry x="235" y="480" width="315" height="70" as="geometry"/></mxCell></root></mxGraphModel></diagram><diagram id="owZQCH_vDhyIAB7X52QG" name="RedoButton"><mxGraphModel dx="1636" dy="2363" grid="1" gridSize="10" guides="1" tooltips="1" connect="1" arrows="1" fold="1" page="1" pageScale="1" pageWidth="827" pageHeight="1169" math="0" shadow="0"><root><mxCell id="n0nwbGPEsCJ3wl-f-12y-0"/><mxCell id="n0nwbGPEsCJ3wl-f-12y-1" parent="n0nwbGPEsCJ3wl-f-12y-0"/><mxCell id="9moOud4jFm4v_8fGxUat-4" style="edgeStyle=orthogonalEdgeStyle;rounded=0;orthogonalLoop=1;jettySize=auto;html=1;exitX=0.5;exitY=1;exitDx=0;exitDy=0;entryX=0.5;entryY=0;entryDx=0;entryDy=0;" parent="n0nwbGPEsCJ3wl-f-12y-1" source="9moOud4jFm4v_8fGxUat-0" target="9moOud4jFm4v_8fGxUat-3" edge="1"><mxGeometry relative="1" as="geometry"/></mxCell><mxCell id="9moOud4jFm4v_8fGxUat-27" style="edgeStyle=orthogonalEdgeStyle;rounded=0;orthogonalLoop=1;jettySize=auto;html=1;exitX=0;exitY=0.5;exitDx=0;exitDy=0;entryX=1;entryY=0.5;entryDx=0;entryDy=0;" parent="n0nwbGPEsCJ3wl-f-12y-1" source="9moOud4jFm4v_8fGxUat-0" target="9moOud4jFm4v_8fGxUat-26" edge="1"><mxGeometry relative="1" as="geometry"/></mxCell><mxCell id="9moOud4jFm4v_8fGxUat-0" value="重做" style="rounded=1;whiteSpace=wrap;html=1;" parent="n0nwbGPEsCJ3wl-f-12y-1" vertex="1"><mxGeometry x="360" y="-990" width="90" height="40" as="geometry"/></mxCell><mxCell id="9moOud4jFm4v_8fGxUat-1" value="" style="shape=flexArrow;endArrow=classic;html=1;entryX=0.5;entryY=0;entryDx=0;entryDy=0;" parent="n0nwbGPEsCJ3wl-f-12y-1" target="9moOud4jFm4v_8fGxUat-0" edge="1"><mxGeometry width="50" height="50" relative="1" as="geometry"><mxPoint x="405" y="-1070" as="sourcePoint"/><mxPoint x="380" y="-1050" as="targetPoint"/></mxGeometry></mxCell><mxCell id="9moOud4jFm4v_8fGxUat-2" value="&lt;font style=&quot;font-size: 16px&quot;&gt;User clicks the button&lt;/font&gt;" style="text;html=1;strokeColor=none;fillColor=none;align=center;verticalAlign=middle;whiteSpace=wrap;rounded=0;" parent="n0nwbGPEsCJ3wl-f-12y-1" vertex="1"><mxGeometry x="400" y="-1100" width="110" height="20" as="geometry"/></mxCell><mxCell id="9moOud4jFm4v_8fGxUat-25" style="edgeStyle=orthogonalEdgeStyle;rounded=0;orthogonalLoop=1;jettySize=auto;html=1;exitX=0.5;exitY=1;exitDx=0;exitDy=0;entryX=0.5;entryY=0;entryDx=0;entryDy=0;" parent="n0nwbGPEsCJ3wl-f-12y-1" source="9moOud4jFm4v_8fGxUat-3" target="9moOud4jFm4v_8fGxUat-16" edge="1"><mxGeometry relative="1" as="geometry"><mxPoint x="445" y="-760" as="targetPoint"/></mxGeometry></mxCell><mxCell id="9moOud4jFm4v_8fGxUat-3" value="Front end should prompt up the window for user to choose on Page 4" style="rounded=1;whiteSpace=wrap;html=1;" parent="n0nwbGPEsCJ3wl-f-12y-1" vertex="1"><mxGeometry x="317.5" y="-890" width="175" height="60" as="geometry"/></mxCell><mxCell id="9moOud4jFm4v_8fGxUat-15" value="" style="group" parent="n0nwbGPEsCJ3wl-f-12y-1" vertex="1" connectable="0"><mxGeometry x="280" y="-750" width="330" height="150" as="geometry"/></mxCell><mxCell id="9moOud4jFm4v_8fGxUat-16" value="" style="rounded=1;whiteSpace=wrap;html=1;" parent="9moOud4jFm4v_8fGxUat-15" vertex="1"><mxGeometry width="330" height="150" as="geometry"/></mxCell><mxCell id="9moOud4jFm4v_8fGxUat-17" value="請選擇" style="rounded=1;whiteSpace=wrap;html=1;" parent="9moOud4jFm4v_8fGxUat-15" vertex="1"><mxGeometry x="24.264705882352942" y="20" width="247.5" height="30" as="geometry"/></mxCell><mxCell id="9moOud4jFm4v_8fGxUat-18" value="重做錯誤部分" style="rounded=1;whiteSpace=wrap;html=1;" parent="9moOud4jFm4v_8fGxUat-15" vertex="1"><mxGeometry x="24.264705882352942" y="80" width="116.47058823529412" height="50" as="geometry"/></mxCell><mxCell id="9moOud4jFm4v_8fGxUat-19" value="重做整個任務" style="rounded=1;whiteSpace=wrap;html=1;" parent="9moOud4jFm4v_8fGxUat-15" vertex="1"><mxGeometry x="155.2941176470588" y="80" width="116.47058823529412" height="50" as="geometry"/></mxCell><mxCell id="9moOud4jFm4v_8fGxUat-20" value="" style="verticalLabelPosition=bottom;verticalAlign=top;html=1;shape=mxgraph.basic.x" parent="9moOud4jFm4v_8fGxUat-15" vertex="1"><mxGeometry x="291.1764705882353" y="10" width="19.41176470588235" height="20" as="geometry"/></mxCell><mxCell id="9moOud4jFm4v_8fGxUat-21" style="edgeStyle=orthogonalEdgeStyle;rounded=0;orthogonalLoop=1;jettySize=auto;html=1;exitX=0.5;exitY=1;exitDx=0;exitDy=0;entryX=0.5;entryY=0;entryDx=0;entryDy=0;" parent="n0nwbGPEsCJ3wl-f-12y-1" source="9moOud4jFm4v_8fGxUat-18" target="9moOud4jFm4v_8fGxUat-22" edge="1"><mxGeometry relative="1" as="geometry"><mxPoint x="375" y="-575" as="targetPoint"/></mxGeometry></mxCell><mxCell id="9moOud4jFm4v_8fGxUat-22" value="&lt;div style=&quot;text-align: left&quot;&gt;&lt;span&gt;1. Read &quot;&lt;/span&gt;&lt;span style=&quot;text-align: left ; background-color: rgb(255 , 181 , 112)&quot;&gt;task_group_id&lt;/span&gt;&lt;span style=&quot;text-align: left&quot;&gt;&quot; from table &quot;sys_schedule_job_log&quot;&lt;/span&gt;&lt;/div&gt;&lt;div style=&quot;text-align: left&quot;&gt;&lt;span style=&quot;text-align: left&quot;&gt;&lt;br&gt;&lt;/span&gt;&lt;/div&gt;&lt;div style=&quot;text-align: left&quot;&gt;2. Insert a new schedule in table &quot;sys_schedule&quot; with &lt;span style=&quot;background-color: rgb(204 , 255 , 153)&quot;&gt;&quot;schdule_command&quot; == 4&lt;/span&gt; and write &quot;&lt;span style=&quot;background-color: rgb(255 , 181 , 112)&quot;&gt;task_group_id&quot;&lt;/span&gt;&amp;nbsp;in table &quot;sys_schedule&quot;&lt;/div&gt;&lt;div style=&quot;text-align: left&quot;&gt;&lt;br&gt;&lt;/div&gt;&lt;div style=&quot;text-align: left&quot;&gt;3. Insert a new job in table &quot;sys_schedule_job&quot; with the current &quot;model_config_id&quot;. Front end could retrieve the &quot;model_config_id&quot; by:&lt;/div&gt;&lt;div style=&quot;text-align: left&quot;&gt;&lt;span style=&quot;white-space: pre&quot;&gt; &lt;/span&gt;a. checking &quot;job_id&quot; in table &quot;sys_schedule_job_log&quot;.&lt;/div&gt;&lt;div style=&quot;text-align: left&quot;&gt;&lt;span style=&quot;white-space: pre&quot;&gt; &lt;/span&gt;b. checking &quot;mode_config_id&quot; in table &quot;sys_schedule_job&quot; where ID == &quot;job_id'.&lt;/div&gt;&lt;div style=&quot;text-align: left&quot;&gt;&lt;span style=&quot;white-space: pre&quot;&gt; &lt;/span&gt;&lt;/div&gt;&lt;div style=&quot;text-align: left&quot;&gt;4. The &quot;status&quot; in table &quot;sys_schedule&quot; should be set as 7, waiting user to confirm &quot;ugv_init_pos&quot; &lt;b&gt;in 1 minutes, shown on Notify Box,&lt;/b&gt;&amp;nbsp;otherwise, timeout and then cancel the schedule, set &quot;schedule_status&quot; = 4&lt;/div&gt;&lt;div style=&quot;text-align: left&quot;&gt;&lt;br&gt;&lt;/div&gt;&lt;div style=&quot;text-align: left&quot;&gt;5. After user confirmation, front end should set &quot;schedule_status&quot; = 1.&amp;nbsp;&lt;/div&gt;" style="text;html=1;strokeColor=none;fillColor=none;align=center;verticalAlign=middle;whiteSpace=wrap;rounded=0;" parent="n0nwbGPEsCJ3wl-f-12y-1" vertex="1"><mxGeometry x="80" y="-510" width="330" height="290" as="geometry"/></mxCell><mxCell id="9moOud4jFm4v_8fGxUat-23" style="edgeStyle=orthogonalEdgeStyle;rounded=0;orthogonalLoop=1;jettySize=auto;html=1;exitX=0.5;exitY=1;exitDx=0;exitDy=0;" parent="n0nwbGPEsCJ3wl-f-12y-1" source="9moOud4jFm4v_8fGxUat-19" target="9moOud4jFm4v_8fGxUat-24" edge="1"><mxGeometry relative="1" as="geometry"><mxPoint x="685" y="-560" as="targetPoint"/></mxGeometry></mxCell><mxCell id="9moOud4jFm4v_8fGxUat-24" value="&lt;div style=&quot;text-align: left&quot;&gt;&lt;div&gt;1. Read &quot;&lt;span style=&quot;background-color: rgb(255 , 181 , 112)&quot;&gt;task_group_id&lt;/span&gt;&quot; from table &quot;sys_schedule_job_log&quot;&lt;/div&gt;&lt;div&gt;&lt;br&gt;&lt;/div&gt;&lt;div&gt;2. Insert a new schedule in table &quot;sys_schedule&quot; with&amp;nbsp;&lt;span style=&quot;background-color: rgb(204 , 255 , 153)&quot;&gt;&quot;schdule_command&quot; == 5&lt;/span&gt;&amp;nbsp;and write &quot;&lt;span style=&quot;background-color: rgb(255 , 181 , 112)&quot;&gt;task_group_id&quot;&lt;/span&gt;&amp;nbsp;in table &quot;sys_schedule&quot;&lt;/div&gt;&lt;div&gt;&lt;br&gt;&lt;/div&gt;&lt;/div&gt;&lt;div style=&quot;text-align: left&quot;&gt;&lt;span style=&quot;background-color: rgb(204 , 255 , 153)&quot;&gt;&lt;br&gt;&lt;/span&gt;&lt;/div&gt;&lt;div style=&quot;text-align: left&quot;&gt;3.&amp;nbsp;&lt;span&gt;Insert a new job in table &quot;sys_schedule_job&quot; with the current &quot;model_config_id&quot;. Front end could retrieve the &quot;model_config_id&quot; by:&lt;/span&gt;&lt;/div&gt;&lt;div style=&quot;text-align: left&quot;&gt;&lt;span&gt; &lt;/span&gt;&lt;span&gt; &lt;/span&gt;a. checking &quot;job_id&quot; in table &quot;sys_schedule_job_log&quot;.&lt;/div&gt;&lt;div style=&quot;text-align: left&quot;&gt;&lt;span&gt; &lt;/span&gt;&lt;span&gt; &lt;/span&gt;b. checking &quot;mode_config_id&quot; in table &quot;sys_schedule_job&quot; where ID == &quot;job_id'.&lt;/div&gt;&lt;div style=&quot;text-align: left&quot;&gt;&lt;br&gt;&lt;/div&gt;&lt;div style=&quot;text-align: left&quot;&gt;4. The &quot;status&quot; in table &quot;sys_schedule&quot; should be set as 7, waiting user to confirm &quot;ugv_init_pos&quot; &lt;b&gt;in 1 minutes, shown on Notify Box&lt;/b&gt;, otherwise, timeout out&amp;nbsp;&lt;span&gt;and then cancel the schedule, set &quot;schedule_status&quot; = 4&lt;/span&gt;&lt;/div&gt;&lt;div style=&quot;text-align: left&quot;&gt;&lt;br&gt;&lt;/div&gt;&lt;div style=&quot;text-align: left&quot;&gt;5. After user confirmation, front end should set &quot;schedule_status&quot; = 1.&amp;nbsp;&lt;/div&gt;" style="text;html=1;strokeColor=none;fillColor=none;align=center;verticalAlign=middle;whiteSpace=wrap;rounded=0;" parent="n0nwbGPEsCJ3wl-f-12y-1" vertex="1"><mxGeometry x="450" y="-520" width="340" height="320" as="geometry"/></mxCell><mxCell id="9moOud4jFm4v_8fGxUat-26" value="Can only be activated when current job status is error(&lt;span style=&quot;background-color: rgb(204 , 255 , 153)&quot;&gt;status == 5&lt;/span&gt;), otherwise, front end should disable the button.&lt;br&gt;&lt;br&gt;front end could check the status in table &quot;sys_shcedule_job_log&quot;" style="text;html=1;strokeColor=none;fillColor=none;align=center;verticalAlign=middle;whiteSpace=wrap;rounded=0;" parent="n0nwbGPEsCJ3wl-f-12y-1" vertex="1"><mxGeometry x="80" y="-1040" width="220" height="90" as="geometry"/></mxCell><mxCell id="9moOud4jFm4v_8fGxUat-28" style="edgeStyle=orthogonalEdgeStyle;rounded=0;orthogonalLoop=1;jettySize=auto;html=1;exitX=0.65;exitY=0.5;exitDx=0;exitDy=0;exitPerimeter=0;" parent="n0nwbGPEsCJ3wl-f-12y-1" source="9moOud4jFm4v_8fGxUat-20" target="9moOud4jFm4v_8fGxUat-29" edge="1"><mxGeometry relative="1" as="geometry"><mxPoint x="650" y="-780" as="targetPoint"/><mxPoint x="503.52941176470586" y="-610" as="sourcePoint"/></mxGeometry></mxCell><mxCell id="9moOud4jFm4v_8fGxUat-29" value="Do nothing" style="text;html=1;strokeColor=none;fillColor=none;align=center;verticalAlign=middle;whiteSpace=wrap;rounded=0;" parent="n0nwbGPEsCJ3wl-f-12y-1" vertex="1"><mxGeometry x="640" y="-770" width="90" height="40" as="geometry"/></mxCell><mxCell id="rXCT14J-BfKCkpaahrCD-0" value="" style="shape=image;verticalLabelPosition=bottom;labelBackgroundColor=#ffffff;verticalAlign=top;aspect=fixed;imageAspect=0;image=data:image/png,iVBORw0KGgoAAAANSUhEUgAAAggAAADlCAYAAAA2uQ8WAAAgAElEQVR4XuydB3jlVZn/P7f39N4nyWR6bzD0Lk0FLOsKKiLWta6uFXVxdWVFBUXX/S8sKALSBaSXocM0YPpkSnrvyU1yb3Lb/3nPb+4QhkAmbSblnHnyTMrvd8r3nHve73nbMcVisRi6aAQ0AhoBjYBGQCOgERiCgEkTBL0eNAIaAY2ARkAjoBE4EgFNEPSa0AhoBDQCGgGNgEbgXQhogqAXhUZAI6AR0AhoBDQCmiDoNaAR0AhoBDQCGgGNwMgIaA3CyBjpJzQCGgGNgEZAIzDrENAEYdZNuR6wRkAjoBHQCGgERkZAE4SRMdJPHIlALAqhPogEAB0lO6MWiMkMVh9YnTNqWHowGgGNwOgR0ARh9JjpN3qr4a3/gvZtmiDMtNVgskLhxbDoy2B1z7TR6fFoBDQCo0BAE4RRgKUfFQRiUP8svPRFCDSDIx1MGpkZgYDkTOutgbyz4cw7wJk2I4alB6ER0AiMDQFNEMaG2yx+Kwa1T8PLX4LkhbD2l2DSDGFGLIjIADxyGmSsg7PuBGf6jBiWHoRGQCMwNgQ0QRgbbrP4rSEEIeNEOPMvIHZrXaY/AuF++GsupK/WBGH6z6YegUZg3AjMaoKg3OtiUWKhENHAAIQjxEzv7XQXM1uwOhyY5Ms8W0/NmiCM+1M3VSvQBGGqzozul0bguCAwqwlCOBwmWF1N3YZn6d9Vibs3QNQcefdExCBsijHocpOUX0z6uafimz8Xs812XCbt+DaqCcLxxX8SW9cEYRLB1VVrBKYfArOWIMQiEXp27aXyjvuxu914Vi3GnZCABYj29xPq6sJktWJNTFCBfH2dPZh6egm21hHt7iHnsstIXLUCzLNNva4JwvT7mB9ljzVBOEqg9GMagdmBwKwlCKGOTqr/+jeiLgdZH7wYV3IKFouJwfp6mh98BP9b2zC7XSSuXkU0EqZ986uYYla8K5ZhikSJNLVR9K9fw5acNDtWyuFRaoIwYydcE4QZO7V6YBqBsSAwawlC3/4DNNx1L5kfvQTH3DKsmIgE+2n+81+pvflmwv4gFq8bi8+LyWQh2ttDuKcPZ2kp2Z+8lO4XX6fw61/Gu2jhLPPinyCCEA5DJAIOh7FuJcSurw+83rGsY4hGjXmQOjyed86J1C1/t4h+CAgGwW4fWfsj70k52iiNgQGjDavVGE8oZLQhP8eL9EO+hv7u/UYsOEk52ufHhp7xliYI40FPv6sRmHEIzFqC4N+5i9ZHHif3s5/CkZFBLBYj0NHB3l9dT+D+B8CdgO+k9QQa6jA5XaStXEXj7X/FZLGQ85kr6NtTTu5nriDpxLVHL0BmxPIZgSA0N8O99xpCsKAAOjrA7zfIgPhspKXBJZdAbS288QZ89KOGEA0E4MYb4bvffX88hxPavb3w5pswZw7cdRd89rOQmvo28XjhBRgchDVroKkJXnwR5s2DzExITzdISXm5QRzkq7vbeE76WFYGH/kIPPOM8TshC3l54HIZ78jPiYlw2WXwxBNGvaWlIH16+WWYOxdKSt6e+f37oa0NsrIMMiPPyVdPD1x8MdxxBzQ2GkTjE5+AXbugv99oMzvb+P9oCcto15smCKNFTD9/nBCQ/drg7tPHWTwmxurY5PTZqDtKDJPCRP5NRJm9BGHHLloffYLcK6/A4nLi37GbaCRCoL+Lxt/8P0IDfeR+9Yv0N7ZhdlrIXreO8q99h8G2dnI/9Un6Dhwk59OXk7x+3eRt2O8xw/LhkC/zEP+HmCyOmMjayfaJGIEgiKAXwbl1KzidsHIlVFTA668bAk80Bo8/Dm+9BQ0NcOKJ8LnPgc8HX/863HyzgWdco/Dkk4bQXbTIENDXXGOg8pWvwPLlxnMi8IUgfOELcPAg/PnP8POfG1oCEcY/+5lRhwjr554zhLP0Q/r16U+D223Ut3YtJCdDfr7xjAh++Vn6dttthmZC8JX3pD9CfuRvmzfDL35htHvCCbB4sdEPISann26Qk2XLQLQBQmBE0Eufu7oMMrJkCaxbB+vXG3ULLn//u4HXl75k4CP1CcERshLXhEzEDjC0jnEShKiQwiFFNipZp2rDMpmQv8c39Pj6jf8u/vcj338/ARCLyoYoJUY0ZuK9AouGtmlsnrJsYpgm4LNy5GdRYTCkjfjncbjP7MROX4xo9G2sh7Y3FGNpMz5P8XmZ2H7EebmxRwnGQ0VVvO23cTH2rXg5cr6Hrh8106KYC4fpDwaJRCK4nE5cDvu4iUIcr/iajfdvuDUt6+2dfT7c+3es87fHEsM/0E6jfx+haJB0dxGpnkIspkMazXFOQCgyQKO/nPqe3djMDopSVpLiysM8AfXPcoLwOJkfuZSWhx+l+Z77iCZ6yPnkP2FPTKPxH4+Tdu5pZJx6Bharhc5Nm6i85loiweD7EgRZtL3+HgZCERITE+jv9ROKRPF4PAT7+4nETKQkJzEwEFCbmtfjVsSkr79ffaAGQxGSkhLUZufv6WVgcIBYzExaegrWQ4JhINDPwcpG5pYVYbNaiEYj1FcdxD9oItHnxmZ34PG4iYQH6esPkpCYhNvpINDfR4+/D29CIg6bmf7+AE6XG4fdRiQSpq+vD5vdic1iprvHjy8hAbttiHr80GZ8OFHScHkQ5AR+ww3GJ1lO1bfcYmgORIMggvKkkwxhWFlpfCxEAMtpXE7TIsj/8z8NwSwCXISyCNLvfMcQsF/7miEspW4hIJdeatTzyCNw1VWGBkHakffkmXPPNYiJnM6lTtm85QQvwl9O7VLOPtto67rr4JOffNvsED+ZSN9F0/DQQ4aaX+ZAhHpxsSHIhVzs2AEf+hD8v/9njEe+cnKM90R78Mc/wvXXG5oA0RCIpmDBAuPnp582NA5CEqTs3An/8R/GM2KikH5Ln0WYye/mzx/ndvI+r4+DIHR1tNLQ2onX5aCruwezzcHconxam5pweH14vR5aGmuxuFKwxQZoau1izpxCmupr8aVkkJbsoXx/JdFwGBH8DrebgoIC3A77oVPRO/sdDg3S1tZGcHCQ9uZ6WoIWSnLScTudhMODNLR2kJGaRqC/X33eTESpb2gkIyMTp9OmPpPpaelq7cvnp7O9na6ePtIzMzFFB2lp6yQxKQlzNEJfYICUlGQGBwfxeL2HPxPyXlNzE2aLjXTRjEXDNDQ0ErPYiYX6aesZZE5elvqMdnd1Ut/cxZzCHCwWCy63G5fTcUigROjq7CRmspLgddPc1EgoZiY9LUXtJb39A2RlZdLv7yFmseK0WIiZrSQmeBSXFmIQCYco319OXlEZPqcNf08nDa1dZKUl097SitXlITU5ST3X2dFGYDBKenoaVouVhETf4b1lcCBAc3MbSSlpmAnT2taOy5tAss9FY2MTVocbn8eJ39+LJyEJU2QQq8OF2+U8TATUPhbsp7y2hbKiPBw2i9p7ZF3I2GxOH8lJibjdTjrbW+nq9hMMDuJ0u0hLTcNqjmGyyj5kwu/vJiE5lUSfV/VRBHZrZzfNHZ1q3B6Xk4LsDByHIsqC0o7fj9vtxWY20eP3Y3cK1ja137lcLkKD0pbnHXtbV1szTR29JCe46Q6GKczNJhzspaq6jrD4nEWjWKw2srKzCfZ20dbRSXAgjNPpICUlFbfLATETLpeTproq0vOK8Hncaq5lL9pa/3derbmTSCxMbsJCLpz3Hdy2RIKBfgYGw/h8XgJ9vfQHB/B6fUQjIfy9fXi8PiymGAOhMB63i4EBYw1aDpHbSDTM3tbnea3mb3QHm7Ga7aS48zltzpXkJS4eN0mY1QSh6dFHSVi4mIP/+RtCTfWYnHasZaWKNHh8KXQ215N19plYonDgJz+jb+MmzC7X+xKE0OAAdbU1VNc1kZObQ2Njw6EPYTI2S4zq6gaWrFxJa+1BwiYHSxYtwN/RyJ6DdditZuyeROaVzmGgr5udu/czGBrEm5TOsiXzcRwS1v6OVh78x4usXrdMLUKPy86O7dvVptHcUMu8xSvISk+h8uBBwrEoLl8yZXMK6O/zU1VxkIg9nbkFiezau4+yefPxOJ1YCLNt5w6yC0pJclh5ZeNm1qw/jey0xCMkyggahJYWQ5hu326cyDdsgI9/3BBwNTWG0CwsBNEMSJHvRZjLafqvfzUEvQhPOe2L4N2zB1asMATtlVca5gvRUtx0E5x2GvzjH0Yd8k78RChkQwStCPGiIrjvPoM8yM9VVYZgFrOCbCrSjpgZRChLfUeqLEULIdqCV181+ilmBzFfCKkQgrBqlfG3r37V6K8ICtGO1Ncbwly0DtKmkBJpT8Ytmo6kJKMfYoaQ/ks/MjLgtdeMMcl7QqSEVG3aZPRRNBMXXGDUMxllzAQhxrZNr/LmvloKslOoamqhrHQhZYVZvPTCiyRn55Oa5GXjKy+QXboMlylIZXUjBQV5+IWIJqcxd042z254hUgoRCwaxpuYzGlnnElGoouuvhCZaUnvOCUG+3sp31tOU0sLe3a9RW2fmZVlxZSWluLvamXLm9spm7+IjrZOivJy6O3rp66+lqzMVFLT0zDZ3ZQVF5GZnkawt5unn36a8ooaFq8+hWhnJXtr2inKz1Gn1GCgj+KSUqIxM6tWrlACUkhMc1MDB2rqcDntpCRnkp7s4ZVXXiZkdRPr76SyOcD6NUtITfDw1lvb6AmGyM7OJTs9leSU5ENC0kWfv5uH//53vOn5LJyTwf2PbsDrspGbX0i3EK+GRpasOYXepkpMrkRcdivF8xayaG6BOgQ0NTXR1dnFCy+/wJLVp5KV5KG7q5WdBxpYUlbAwfJ9OBPTWTi/jFDAz5YtW3F6U8jLySYxOUlh4vElYLeYKd+zg7vu+TsXX/rPhHtq2bh1B560XBYVJPHK1t0kJyWRm52hiENKVi52IixauoKcjFTjoxOL0dXdTXtrM5srmlhTmkdCShoD3cac7D+wH6cvldycbEUAG2oqVV1dXX6SklPIy80hOdFNOArNjS0MhoNqfSxbvBCvx4tXCFR7J60dXURjMZx2O3PysnHabeqA1dZUx/adu3EnppGXmUrFwf30hiyUFedSV1dPckoqAwMhFixaTILHuJBMnNA3v/I8DZ2DOG3gNzk5/YTVhHuaefnVrfT296u5d3rczJ03n86GWpqam2nuDZHuc5GRmUVWdgYBfzf9IWitLidn7kKKCwtJS0vF43YqAS4EIUaUTG8ply78CXbc7N21g+auAOtWLuXNrZvoHYySkZ5BsK+HvkAQm8NDapKbju5eMlKTiWBj4YJ5inRK6Rvs4pG9v6Spdx92swufM432/joWZpzBaUVX4rB6xrVTzF6CsHMXjY88his3n4rrfgceE0mnnoQ7P4+u1jbSyubjXliKJy+fcFU9O7/8dWKdHZg9nvclCHKq8Hd3sX3XHpwOB5J/KTvdTZc/QGF+Hpu2vMmaE0/G31JLZ+8AixbOZ9uW1xgwu2muqSIpM5vVK5bTWldJT8hET2czEbOL9SeuxScsFfB3tPC3+55k/pIykhMSSfA6aWppw2aOsmnTRk449RySvS52bttOIDRISmYu84oLiUUG2bljG47UYlbMy2H7rp3k58vvITM9mfLy7bgTs8jLzOCVlzYwb8UpFGanjI4giPCW070IQhF8ogE45xxDeIvQFJu+qNJF0MY1CHJKFmH5/e8bfghimpCTuTj93XmnIRhF0H/xi3D33cbvf/Ur49Quz4mg3rbtbRu9qOPl96eeCuIT8corhu1ezA3i9yAkJu57cPLJhiAXoSwEQVT8caIhGofcXKN9OekLUXj2WaMv8pzUIVqKX//aON3LmNrbjfEKaZD3RZiLVkVMLXV1hsYj7qMgY5Z+C3kQf43Vqw0ziphHRAshdYpGREjSGWcYeMmYJsthcYwEQcxbr7/0HG+W17JobhE1La0sWbRUbZ6PPnQ/aUWLKclN4rEnn2P96ecw2NPMzh3lLJxfTEd3EE9KGoU5qWza8gb+nh4GQ2HSM7M55dTTyU3z0tYTJD8nA/MQ8iYnr+qKgzQ0t1JdXU0gbCIjJYmy+fPo7+3klVdeJzE9i0RvAjmZ6dQ2dxHwt2KLBfCm5+DyJql1XlpSTNDfyf333csbO/dxwmlnsf+tlylafBLBzgbcPh/Bvl6CA4OUzl/CmpXLSEtOVCfk11/fSNTmwOd20NjQypJlS9i9bSt9AyY6mqo42BLgwnPPIjPJwXMvvIrNZmLQ7GJxWQn5+Xn4vF5SU5JUXY89/HeCVi/Jlj421saYnxzitW37KC4pxhvppL7fy7zcRJo7erA6PaxZs4olC+dhNUXp6Oigs72Nu+6+nzPOv5iinDQ6WxvZuH0/c4tz2fLq6yRk5HHWmafSUbOHZ17fTVZqGl6fjznzyshL8+FKTCPR41Ranuuu+zUXXnYFjQc3EwxbqG/oxBzuxFe4DF+sC7s3lchgkI7ODjJzilh/4joKcjPVCV9pMvbuoacvSEVHPyvyk2jqDJKb5mbT1jepqa3D5UshOTmZlavX4m+pp76xhWAgiNvrVVolmzlGf18v5fvrSEh0EbOYWTBvHi63j7ycTFo6OtWXaBBkjy1WBMGuTE0dLQ28+NKr+NJymFecz7Y3NuMPO1i9bB41VVX4+wIkp2Uyf95c0lKSMZtN+DtbePLZl/AlJCpC1hUxk5uZxaKSfN7YvJWmllalWXX7EjnhhDV0NNdTU1NP1yD4bCYKiopITPTSVFdDZwBCnbUkZecrrVJubj4Z6SnDEgSnxcfBvbsor25h9ZK5bHjhZfIKCmhrbWUwAiuXzuett7ZTUFxKd0eH+lzkzymhtHgOXrcLkylGd7CF+3ZdozTAOQkL6BloVuaGkpQTOLf0K7jt44uym9UEoekfT5B8yons+9VN2Lt7SDrvFDIuOI+o00VrZS3pyxbhSU6hd+tb7PryN4h1d41IEAaC/ezfvx+T3YPHEqa6qZvcjAQam9uU6j8lM4eS/BxaGmppbusiJzudLTvKmTcnj6rKWqxWM6mZWbQ2NrBy3YmYIkHe2LqV/PkrKM5JVWq8no5WHnt6MxdcdCYuu4Xuzna1YP3dnWx5Yysr152Mz2mluraZ+WVFNLR0s3btSixEqK+tYNvBZi4662T27N1FRlYeqcnJSt1WuX8nMXsCJYUFbHzpOXIXrKEwa5QEQYSYCGix9Yu9/N//3bDzi6pNhKoIfzmBixlATAvig3DhhYZ9fqgPgtQjgjVOEERDIDb5e+4xnB7/8hf42McMwdraarQnJ275+fnnDbOCEAix+cvmIb4CGzcaGgIhDWICkPaFHIigF42DtCckQAS4YmJ+w2zw058ahEfqFMEv5g5R+6ekGGTnpZfg6quNvgoZERIj5hIhNDLuX/7SEPqigRD/i6VLjTZE0yHOj6IdkXZF8Iu5REiV1CtaDjGRCOGSNmV8gtVU80GIxdj48rM8t2kvC0sKaOzsYFHZfOwWExX79pGdk0Vnb4AEt420grn4m6rYunUny5aUUFHdSWpeHssWFvH6G7uI9nbS0tVHSekcVq89kYwkD+FITK3Pofbp8OAA1RX72bnvAC1t3TisVmKBfk4+5wwa6+t48eXX8CSlMic/n0ULynhj214c9hjRoJ+07FyCMTvLFs5TaveWumoe+PvDigSEbD56mg5QsGAd5lAv55x3DpU7trBtX41SNa9YtYaTT1xDU8VODrSHSHCZcTjdRHvaqOoIYQr3kJqeQ83+3eyu7eaKf/ow/tYG9tV2UZjpoi1ioyjJRUJaDjmZadjl5BsJ8crzz9LUE8Jn8vPCgQALUyK8VV5DXn4e9oE2BhPK+Pj563j55VeobuzEZhrkzIv+iSUlWUqbUbFvFy+99iZz5i1gzYrF7NuznV1VbaxZOIdnn3yKjDnzWbt8AW9sfp2QM4XchESsFhNBq5VVS+ZjtzuwWi1EBvu59qc/5dQPfJSG/ZvxB6O0tvdji3RiSy8jyRZgyZpTSTAHePqlzYRCIQqLSznztFNJS/YpbcjmLW+SV5DP1oP1nLN2CVs2bsTl8VBTXalO8c6EVKU9WbliJZX7dtPe0UVTYwvpWZmUzS9TGpCuniAdHX5M5gF6+gdZsng5+XlZ2O1m9jdv52DLDqKxCD5nMquLz8LnSFQahF5/J3t27aK1O8iyJYvpbKll87Z9XHjxhfS1N3GwspKBSAyXy826E9Yrk1h/bxeNTe1s3bwRR2IaFreH0twspWF47pkNhGMmbFYTvcEIF15wHvt3bqV8fxUtfWEKUn3kFhZRMqeAtqYmwrYEemq2M2BPpKxsPkWFeTgdtmEJgseeQmNNBdvLq1m2oIhnn3uR3Px8urq6CQyGWbqghPID1aw/9VQaKvfT2NyK2WojIzuf5UsXYjWbCYb7eGL/b6nqfBO3LYn+wS7CsUHW5F7C+oJ/xmYZ37Xts5sgPPokWZddTMMdd9N67+NEc1Ip+cZXSDnjdEy9fZjFMdRqJlBdzYFv/4jumgrsDqfSIAQOVAzrpNjd0cJrr27E7E6gZE4hVQf3YbK5cDtsSpUmqrwlS5djCvWqD8DgQB8mXwYFqW527txBd1+I9CQvIVsCS+bmsa+8nJbOXtauW6c22I62NpoaGnl9615OOmW1ctBJSUnB5/UQ8Hfw7HPPcdp5H8RJmE2bttAvNqvEFDJSEwgGg8pu607KZMXCEiqrKkjwJah+lJWV0NJYRdTqIS8rk13b3iC9cD5ZqQmj0yDI0wcOGELu8ssN1b0I1oQEQzCfd57xvZyUFy40TvNyKpbT9nAEQUwK8pyYGf73fw3fARH48WgIEaoioOWULURECIgIWWlDTt2i7hdiIM+LVkH8B+TULgRBTu6i2t+yxdASiCAWs4g4NEqRfoumQoS7aBBEkP/f/xmEQQS9aCVEsP/2t/DDHxrmj/vvNzQhDzxg+E6IBuEHPzB8K0Swi6ZC/A2EyIgGQTQSYvqQMQpJkjGK1kJMMaLdEIIjGgshOEIwRMswAc51w+odx6pBiEZ48fnn6Bgws6g4j9rWZnJSEqntCJNpG6Clo4uM/EL62xtIyC6hv6Oe3fvrSE9yE425SUpLwuOycKCyiq72Vjp6ghQXz2HV6jWkus1UtPhZNr/kHRoE8e3Ztn0b7T29ikAQCuJvaWP+8qXU1dXQ3uVnIGqiMCtD2YgrappI8NoIdDWzaNlKuvuC2J0uli1apEwMTz3xGHsr61mx7lRsgWZ1el97wnrWr1zA08++yNzSOby1bQcLlixnxZKFtDVWK3X/vvI9JKemU1aYS21DC+2tjTR39pPgsdPWPaCE5ry5JdQ3tmOnjwNN3aQ4rWRk55CQkEB2ZoY6Ce54YzMd/RFKCzK5/a/34ExIYd2aFezbtY2qxg4++onL8VmC1DS0KiFc39DE2Rd8kNxUL9WVFew5UMPq1as4sHsbUbtXYVtR14x4cNjMKCzyCovITrSyq7odLzFaW1twpqUrIedKyyUj2Us0FOTWW/6P1SefS7ingaeef5XihctYWpTCA48+S05hKR84+3QO7NmBLz2HfTvfIiE9h/Xr1pDodSMHpObWDszRIC/uruWDZ5xEX2cbFVXVNDY1UVNVgcOXQlZ6OnOKCujt7SUaDVG+Zx/Jaek4HXYGBwbIKyyhvaWZZNHWDAYJxaxkZmYytzSX7U2Psa3xScLRAVLdeZwz919IcmYp/4SDe7dTXlFHelauOiRVVVdh86SwdsUS5f8gJKiuvg6708fy5UuVaUJMDAf27qS6SXxE8qhq6+GEZYsI9rTz0MOPEsKMaPT7g1EuuvACutvqaWlp5UBDBzlpCRAJ4/SlkOCyE4xY8FgGiZjt6sRfWFREUUEObzY8wpb6BxWpyfAUc37ZN3HZEmlvFjNVoyKx27duVNqy0rlz6elopr6hlaKyhRTnplPf1KLMH7X1zeTkz2FuSREWszgBR6nr2cXrtX+jta8aM2ZyEhZycuEVpLhzJM5DmxjGgoCEOTY+8jhJa9dw4L9uwj4YIOGDZ5B25lmE+wfpfPoZzIGgyqbonldGONhH/d0PEmluJeuTH2XgYCU5n77iXVEMouqRRR+JxnC7PcrZJBoDm8VCfyCgvK7FCUUmNxwK0dzcTHqWqMisSoBHIlG6OtpxJ6WR5HGqd0xmi3ICEvWdbH7iQCV2NIfDjs1uJyc3j4zUFEIDor3YR+n8xcoxaCAYVE4vbpdbqd8i4TChcEQ5TFosZsLhkDqVhcMRHA6HUlPJghLHGnHkEaccee6dZQQfBDl1P/qo4Sfw4Q8bAlBMAOefb9jbRaiKgHvqKUPwid1d7OqiSheBKg59cVWyCEzRRoi6XZ4T04KQAfm9nKbFTi/1yOlf6pe/S2SBRBV86lNGNIKcwIUgiMOfkAIpu3cbWgMRwkISJAJCyMzf/mZoESTKQIqMYe9eQxsgJ30xHwhJEEIjYxGyIb4IQjg+8AGDaEikgURxSL/OPNMYq2gUxFlTCIIQC+mHjEsIgpgdhMyIVkVMCvKukBohRBLuKJoKcfYUHCVCQn4/WaFdYyQIQlw6urroD4bITE1k/4F9tHd0UzR3IY5IAKvDSV93K5X1bSxaspiejjYGw+C0hKlr6qFkbgm93Z10dXUpn5tQOKqcybKyc8nKSCYUjik77tAyEAzQ3NpCzGTD43HRUHmQwGCEzKwM9fkbGBgganFSkJVKd3ePcrTzeVx0NtcSilkYiJqVyU+cJ2ULFZNFYCBk/ByL0qcc2tzYrGb6xYHOYSMQCKoDguHYGFXOfrv27qekpJScrAwCfT3s3XeA1IxcPHZo7w2TkejE6fEyOBhmoL+blp5+0hITSUpMVJ8tq9WmCIIIRbVP2G30+f3KYVE5pQUDhCIxfD7ZS8KKR8eiEeW0JocCcSqsrK4lOSVDmQmFONXW1dHT24/T7SUjPU2RJ6w2NR6P00ZP3wBBfy+BgQFSMsSx04bZalfOyTKXfr9faUVMpummkycAACAASURBVKhy7FNjtlnx9/aqPUGcK8VZzm63K2dr2Z+cTuchAicOigEO7C/HH7GzavEClYAuFA6pfUZ8pOzuRFKSEtQ+o8IVYzEOlO+htauXhKQkHDY7eQV51FYcoLc/iMlipaCwiOREr9K4iDNeV7BJCVun1UOGt1h570tdsm8NhkLY5XMZjTI4GMLmcCibvbQvmA8ODmA2W7FL9AMQGgyyd085OYXF2M0RGjv8FOZk0dZcz4HKGjVmcRofGAxRWFRCTmaq2tf37z9AR7dfORKmqkOai/raOgZCISxW2ZdzlRnDbrfSE2yhM9ig+ui0esnwzsFiMpzDZU+22+zKuVa+d9gdao7FATeOazwSRdaJzIcQnXgRx0fBo7O/DovJSrq3GI9NfHbGH9E2izUIu2n6+yNY8wuovv4PuMxRzGsW40jLJLivksiO3USig8jKsOdkk/KRi7HZ7DRteJ20k9YS3LmL3Cs/RdIJa8a1YcvEHxmaqBbDEeFB8cUQj/8dulkODeMSpyqLRdSxY6FNR/POCARBnA0lvE9O4SLU48JO/AxEgyACUQSzmAXi0QoiMGXnE/W8hAUOLbKBDB3M0DwIQghEEIvKXuoQoiBkREiInNLlPRHqoqqX70XYisZiaB0inIWAyIletBCikYgnaxIiIvUJGRH/CdFOyJhE6IsmQ8iDaEJkrEJWpF7ph5AdISZxx0khIBK9Ie9VVxuaDMFJnosX6Z+QD/GREMdE0WhIf4RwiN+CODqKdkM0IZNVxkoQDoUNGmG2Es4YUfbhuAe3YC9q8EgsdthbXg0hFjO8ww+ZTI5c2+8bhheT0Ma3Y+ElEihmklBHCakUaI2QSvlsvTPUMiLh4uJwrjzBxxNHL59T9fm1WFS70k4kGsFils1bwg6FE769SR8Z4jcx0/jO8EYD1piKjFJ7yBGhpvG/Hxk+ODF9OVTLIRzih42hdR8Zchn/m6wZOVTJfKlwVRFuh8K55Zkj14KK+z98Ph7nZndoLamwV/le7clCXqKH19jbH1PT4QgC1eeIsX8PDWcd+uzQUMeh1wBOVJ6Ct7GNIyKojxOPIRM2awlC34EKav96N74lCznw579g3l1ORG5ylA9V2IQ1AlFTyIBKNp2cLDI/cgmO0jLFiDsf+DtF3/wa3gXzxkUQJvSDeUwqG2UmxeEE/HuxlyOfPZrxjOWd96p3uCRMY61/6HtHfn9oTR3N8I7pM+MgCMe0n7oxjYBG4JggMGsJQqi7m6pb7lCqN3dBJg33Pkikrg6TOtXFM1G9zfmiJjPusoVkX/lx+vcdZGDfPop/9F2sY00NfEymdzIaGSVBmIwu6DonBwFNECYHV12rRmCaIjBrCYKoPHv37KXmzvuwuzzYs1Mxh0RNOcxMCk+IWjE7bQR6uoi0d5Bz6cX4li8dl4pyeq4ZTRCm57wdRa81QTgKkPQjGoHZg8CsJQgyxeGBEH0Ha+l8cyuB9hYckZhyHjyyqMxgiD+CHbsvncRVi0lcUIZ5shLWTOn1pwnClJ6e8XROE4TxoKff1QjMOARmNUGISYpScW4KDRAJhpRrh/CDIymCUiCIQ4rZjN3qxOJ2YHqXd/+MWxvvMSBNEGbsTGuCMGOnVg9MIzAWBGY1QRgtYEIUJs4/dLStT5XnNUGYKjMx4f3QBGHCIdUVagSmMwKaIEzn2TsufR9CEBLmwPIfGCFJukx/BCJBePojkHkinHUnONOn/5j0CDQCGoExI6AJwpihm8UvNr0Cr34NuspnWYjnTJ9zI2kNBRfCKX8Cx5Fptmf6+PX4NAIagaEIaIKg18PoEQi2Qe0T0Fcr+WB0mUkIiDYodQXknq6ccnXRCGgEZi8CmiDM3rkfx8hjEA1Lztdx1KFfnbIImK1gejuV65Ttp+6YRkAjMKkIaIIwqfDqyjUCGgGNgEZAIzA9EdAEYXrOm+61RkAjoBHQCGgEJhUBTRAmFV5d+bAIiGlCRz7oxaER0AhoBKY0ApogTOnpmSGdU1e6hiHUC30tRuRDctkMGZwehkZAI6ARmJkIaIIwM+f1OI5KyIDcORuFyAAEWqBzH7TvgK5KEAe4FV+HxDnHsY+6aY2ARkAjoBEYCQFNEEZCSP99ZAREQxAdhHAQBrqgpxradkDrW+CvMbQH8ozVCYuvhpKLwWQduV79hEZAI6AR0AgcNwQ0QThu0M+ghoUUVD8JDa+Cvw4Gu94dAikx9flnweKrwJU6gwavh6IR0AhoBGYmApogzMx5PbajEt+CvXfCgQdB0vW+q5ggZSEs/xdImadvtDi2s6Nb0whoBDQCY0JAE4QxwaZfeicCMeith02/gI497wbHnmj4HeSdqhPw6KWjEdAIaASmCQKaIEyTiZrS3RSHxL4G2PobaH3ziK6aYcEVsOByw0FRF42ARkAjoBGYFghogjAtpmmqdjIGoX5oeQPK74LuKnAkQ6AZYhFDW5BzIqz7MZhtU3UQul8aAY2ARkAjMAwCmiDoZTE2BCIh6KmEmmeg7nmwOCDnZMg/Hbb/yYhiSJkPq78LvvyxtaHf0ghoBDQCGoHjhoAmCMcN+mnasIQrDvZA/YtG5EJ3JaQvgzkXQcZysLqg4XVDo1B6CeSeok0L03Sqdbc1AhqB2Y2AJgize/5HN3rxNeipgn33QOPrYDZD8aVQdB64Ut52QAwHoK8JPFkGYdBlyiAg/C4UgcgxvKZbEmfaLGAxjQ8G6bLq+zG8RFS6bJfLLU0wzu6Pb/D6bY3AcUBAE4TjAPq0bFKSIDVvhh3/A/0tRtjiki8YYYv6XoVpMaVCDio64e4dUCupKo4RSRBycH4ZnDsXrOaxQSV9re+Gu3fCgfZj2/eL5sMZxWDXN2CPbfL0W9MWAU0Qpu3UHaOORwahuwIqHoG6DeBIgcKzoegCcKfrnAbHaBomoplAGH73KvzHBugfnIgaj64OOXnPS4d/fBqKkozT+GiLaA5u3QrXPANtfaN9e+zPS1cXZMKjn4L8xLH1feyt6zc1AscXAU0Qji/+U7j1GAQ7jOyIlY8ZYYypiw1fg8yVhlOiLtMKgd5B+Okz8NtXIHqMtAdxgFJd8NzVsCRzbEJ2MAy/eRn+43noO4bkRvqf4oKXvwjz08bW92m1SHRnNQJDENAEQS+HdyMQjUDXfth/n3Gfgs0LxRdBzkmGX4G2xk7LVTMSQZCT/Uhmh6HPyOk6zjOUUmCIZuDIekTIbphEgvB+fY/383AfD90ndvj3QwYyHG/SBGFaLnfd6QlAQBOECQBx5lRxKK9B1ROw728w6If05bDg05BcqnMZTPOJHo4giJ9pogOcVliaCTtbYDAC4SjYzOAfgIwEsJugshOW5sOuOvC5ICsBDraA1wFzkt4mCyJkK9uhfUjW7ckgCBYzJDjBZYXlObCzEfpDhiOjOBYGQpDmApcFqvyG9kLGKWOq9xvjFp+MBVmQbDPMLuLf0H2EhkIThGm+8HX3x4yAJghjhm6GvSi+BocjFF4Duw/mXACllxoaBF2mPQLDEYQ0L3xhDazMhBQvdPRDaxC6+sDjgFcqYWkuWGLwwC44ZRE8vxPWFxhWph21kOSCVZmQmWhER1QNwMs74YWatyGbDIKQlQhfWAdL0yDFA1390NADtd2QaYeKbpBnPGa4txyuXmX40/aFYW8rHGyGTS3wrZMg0Q7pHthWCze/CU297+y7NjFM++WvBzAGBDRBGANoM+oVCV0MtBq+BlWPQaAdMlZA8cWQtkTfnTCDJns4guBzwieXwUl5kOmDRj8090FXEJK9sLMJEuyQYIMdzXDGYqhqhDU50BWC1k6o6oZ1BVCcAhKB+GYHPLMdNlRNLkFIdsMVq2BNFmT4oLkHDnRAdwBSLeAfhAEziP/D9hY4Z65BAlp6YU+z8f+AA87ONTQiPgu0BOCvW+ClWk0QZtDS10MZIwKaIIwRuOn/WgxEa9C2EyoeNtIlu9JhzvmQdzo4tUfW9J/jd45gOIIgavqLF8G5xRA5lB+h2W+YB+ZmQG0AkmPgs8Kb9ZCZB28dgLPnwIAFAr3Q0gfLiyDbaeQ62N0HG44BQbBa4LKlcHKeYd4QvwchMQNhmOcBm9Xoo88DB1uhNBXsZujpNzQIfeJqY4EzciDTC2kOI5Tyd6/A3g5NEGba+tfjGT0CmiCMHrPp/4bspAMdUPkE1DxlaBCy1sHcj0JiMVid03+MegTvQuC9CMLHlsMl86G1F5KcUN0JtX5Ymg3PVEOWBTr6oDcMq4qhtgnyk2B/D+R5wR+AMjFDRAyC0G6CDdvguUnWIAgB+OcVcH4xtPVDihs21ULnAKxKgb1tYHaAPwoV7XB2MaS7Df+I6m6IheHFLvj6KsMHweOExm647w3Y0vS2T4X2QdAfptmKgCYIs2rmxX1brmZugDdvNCIUnEmw5POQd4ZOiTzD18JwBMHrhEuWQLYDHiuHpQWGJuCtBqjvNez5KwphfgK8VAU9gxCIwMeXQqoDWv2GWl5MDr0hI5LBYofndsNr9ZNrYkhwwaWLIcsBD+yBk4oMh0XRdHT2QXsAFuTC/BRD4J+YCzYT7GiHFDtsOAABJ1w2z/BTcJvhsX0wMAiVQiAOdV8ThBn+wdDDe08ENEGYLYtDQheD7UaK5O1/NDzMxNdg/hWQVKxDF2fBOhiOIEh4oFnCG6OG/4AU+VnK0FwJQ0Ma5W/ys3zJO/EUyvHnxRHQJBasITGDk+GkKO1LX6XdeFNqLIfMDUf2U5I4xoYJxVTvxIwcB8Plh9AEYRZ8OPQQh0VAE4TZsDDC/dC2HaqehOYt4MmFonMh7zRwps4GBPQYMRIMSRbF618ywhiPZREb/7Ofg4XpY0s2JKGX4htw7QYjTPFYFun7C5+HstSx9f1Y9lW3pRGYSAQ0QZhINKdaXcrXoBMOPAj1Lxm3MIoDYuF5htbAbJtqPdb9mUQEJD/Ag7vhl88bjoXHqogj5Klz4IYLIdU9tlblgqanDsDPNxg+EscqEaTkiTirBK4/3/BxGEOW6LENWL+lEZgCCGiCMAUmYVK6EAlB+w7Y+b/QUw3ubJj/CcheBzbfpDSpK536CIiZQS5qkoRCI2VNnKjRiJDN9hmRAnHzxVjqlj6LT0TvwLHte04CZHjG1/exjFe/oxE43ghognC8Z2Ci2xdjskQoVDwGBx+ESBCy1sOiz4AvT/saTDTeuj6NgEZAIzBDEdAEYcZMrKRJDkDHTjj4CLS+Cb58w5xQdL6+XGnGzLMeiEZAI6ARODYIaIJwbHCe3FaiYeitg5pnofZZiIYg5xQj6VFiqfasmlz0de0aAY2ARmBGIqAJwnSf1nAAGjdCxUPQuQ98hTDv45C+DByJ2qQw3edX918joBHQCBwnBDRBOE7Aj7tZ8TAL98Leu+DgQ4Zbd+E5sPizxuVKEoyui0ZAI6AR0AhoBMaIgCYIYwTuuL0mxCDUC+07YfefwV8NCcVQ9lHIXm+ksdNFI6AR0AhoBDQC40RAE4RxAnhMX5dsiHIlc83TUPOM0XTBWYYjYkKR1hoc08nQjWkENAIagZmNgCYI02V+w0FofA0O/h26KyBpLpReCpkrwTrG7DPTZey6nxoBjYBGQCNwzBHQBOGYQz7KBiWvQX8T7PmrcY+COBtI2OKcC8GToyMURgmnflwjoBHQCGgEjg4BTRCODqfj85RoDVq2wq5bjWyIiYWw6CrIXKNvXjw+M6Jb1QhoBDQCswYBTRCm4lSrvAb1xuVKNU8adyZknwjz/xlcaTp0cSrOme6TRkAjoBGYYQhogjCVJlQiFORCpYZXoPpJ6D4IaUsMJ8Tsk8CiL1eaStOl+6IR0AhoBGYyApogTJXZVREKlXDgAcPXQMhC6SVGlIInC0yWqdJT3Q+NgEZAI6ARmAUIaIJwvCdZiICkRm54FXbfBn2NkDwXln1VX8l8vOdGt68R0AhoBGYxApogHM/JjwxCby3svx9qngNnEhScB2WXgl3SJOsynRGIxWJEo1E1BItFa4CO51xGIhHVvNlixoTpeHZFt60RmDYIaIJwPKZKQhcDHdAkeQ0egr4G4+6E4oshY5W+efEYz0mUKDGVqxrMmNX38n+8DP37aLoWGgjxxtY3sFqtrFq1SpOE0YA3gc8KSauoqKDiYAXrT16Py+N6V+1CGuRffB3E/z/absh6mcrEQ8YT/3c0Y5rq4zmaMehnxo+AJgjjx3B0NUiEQsdeqHgEWraAPcHIa5Bzks5rMDokJ+zpCJHDgiG+yQ/dIIUgyL/Rlt7eXv5w4x9oaW7huv+6DqfTOdoq9PMTgEAoFOLuu+9m4+sbuebfryE5JRmT6d1ahPjcj5YcyHvTQaDGie7RjE/GM5QkT8A06CqmIQKaIByzSZM7FPoNYlD5KAQ7IWstzL0MksuMUEZdjgsCRxKE+GkyLjCG/n00Hezs6OSa719DbU0t99x3Dx6PZzSv62cnCIG+vj5+fM2PyS/I5/Nf/jx2+8TeVzKcMBXz0lQt70UUhpImTRCm6uwd235pgnAs8JYIBfE1eOsmaH3T0BrM+wSUXKJDF48F/u/Thmzkh/+ZYocUzW9TBHl1rAShu6ub635xHU6Hk+//4PtKgzDcyfU4QzDjmx8cHOSuu+7ixRde5OfX/ZzUtNQJm4fhtAfhcJjOrm6CwYERsY3FogyGQiM+Jw+IzkN8WcwW67i8KAyD2hCNmAkSExLwet2HcdEE4aimZMY/pAnCZE6xnCKC7UaEwsEHIdgBqYug7OOQtlSnSZ5M7I+ibiEH4rwWDAax2WxYHIYjYVy1GvdHGKsPwsDAAHfeficvPP8C//3f/600CGazvob7KKZmwh6ROZb5vfnmm9m3bx8/+fefkJicOGEE4UhBKu3tLt/Pw489TXt7x4jjCIXDtLc0I0RhpCLk0utLwOPzTYi/Q1zHYTabWLxoHh+88Bx8Pu/hz4A2MYw0IzP/75ogTMocx0AiFNp2QNUT0LwZ3JlQcC4Ung2OpElpVVc6OgTEea2uro5HH32UlStXsnLNSkzmt7UH4yUIfb193PjbG3l+w/Pceuut5Ofna4IwuimakKeFIPz5z39m69at/OwXPyMlNWXCCIIFyzuEtaypl1/bxKNPPkcgGByx/6Ld6GxrI3Yo2uX9XhCCIORAEYRhfChGbOx9HigoyOWT/3QJ6WkpmiCMB8gZ9q4mCBM9oSpCoQ2qnzKuZZbvc0+BORcZ+Q0sjoluUdc3RgREe7BhwwZ+/etf84EPfICrPn8VLpfrsMOibP6GMnbk091wXQgNhrjvnvu48447+cMf/kBRUZEmCGOcq7G+Jif6/v5+fv/737NlyxZu/P2NZGRlTIiAFSopa2RoEYLw4qubePypaUYQ8nP55Cc+THpaqiYIY11sM/A9TRAmbFJj6qJFug7ArlugbRvYvLDoc5Cz3vh+gln/hHV9llYkm/muXbt4+OGHKSsr47wLzsPr8R4mBLL5i//BWItoEG763U2U7y3npptuwuv1aoIwVjDH+J4QhO7ubr7zne+QlZXFt//t27iH2NrHWO17CtHhCIKo8M1mi8qJISYmIaZxJ8bhNAiiHZDnlH9MLKqSqko5UoMgPyf4fHg9Hjo6OwiM4PPg8bhJS0mhq7ubHn/v4T5I3QX5eVz+iUtIS0vWBGE8i2KGvasJwkRMqGgNQr1Q/xJs/xPEIkZeg+VfA0/2RLSg65gEBGQDllDEbdu2MWfOHHWylEQ6UuK5EMaqPZA6+vv6ueV/b6Grs4t/+7d/U9oJ7YMwCRP5PlXGSeC//uu/0tXVxd333k1eQd6EaBCONC9IN4YjCLnZWWRlZlDX0MiCeaXs2LWX9o5O1esjCYKsj7klc3B53IizY1VlDb19fcMSBBH4yxYvVGtK6tny5vbDibmOhMTpdLB00UL6A/0kJSayc/deurp7Dj9WmJ/HFZ+4TJkYhBRrJ8Vju06namuaIIxrZg6FLnaWG+GLDS+DrwgKxdfgHO1rMC5sJ/9lIQg9PT3cf//9LF68mBWrVxwW4EcTKz5SDwP9AW695VYk3FEIgoTX6YyKI6E2sX+XOd6zZw/XXnutclK874H7yC/MHzdBeC8BOhxBEIFstVjo7O4mIz1NCXy/v3dYgiCC/KT1J1Df0IjH7aKuvoGWljZ12j9Sg5Dg87Jk0XwGB0O43S5e27RVfT9cETJRVlqs/CKSEhOoqa2nobH5XQQhIy31XTlBJnZGdG3TCQFNEMY8WzHob4Wqx6HueRjogtxToeBsSJmv8xqMGddj96JsunJKEzODnKxWrFqhhLjYlsejOYiPwN/jV06KUp8mCMduXo9sSU7XDz30EL+78Xf8+a9/HjdBGM73IN7mcARB7PqJCV5aWtopLMyjtr6Bri7j9H6kBkGiaVYuX0JffwCr1UJNTT0dnYa24UiCIM/m5WTj9bhJSPBRXVtHfUPTO0wH8X4JMc3JykSIgs/rwd/bR0Vl9eEQy7gGQQiCLhqBOAKaIIxlLUg2xPadsPMW6KkyIhTm/TNkrQa771DE8lgq1u8cawRkQ5cwxHvuvodrf3ktycnJh9MtH5l+ebRaBdEc/OI/fkFGegbf+ta3VCilNjEc6xlGhTlKmOntt93OrX+9lQWLFoxrHoYzLbwfQfC43bg9LmVyEm2CmBeCA0aOhCMJgpAAecZiNROLxpSmIZ4nYbgoBhH8op1wuZwqRFEIQvz+jyORlrVns1nV86J96OzqOdwPTRCO/bqcDi1qgjCaWRJvocFu40pm+ZJbGEVrsOAz4M3RToijwXKKPCub6dNPPa2cCH/1219RXFyM1WJ9R976eLjjaAiCaCfEOfGOv9zBpZdeyurVq8et1p4ikE27boifyTe+/g3uu/s+rv3FtVz9pasVWRtLeT/tgdR3PKMYhECMNYOjJghjWQ0z/x1NEI52jsMD0LELyu8xIhTE+bD0Eig4B6w6x/7RwjgVn2tra+O6666juqqaG266gazMLNXNuJlhLARB3u/199Ln7yM9LX3C0/tORRynap+EIHzzG9/k0Ycf5YY/3sCHPvwhLNbR3a6pIgqiMSxmCxbTe78rBOHN7bt47MlnVaTASEVMXO2trUeXB8F8KA+C1zshiZLifRNiUVJSxMc+fBHJSfoW2ZHmbDb9XROEkWZbIhJ6Gw0/g8p/gJgXsk+AuR+FhAJtThgJv2nwd3Em/NEPf8RLL77EvQ/dS35e/qhuvhtuiNPlAp9pMD3j7qKYGCQPwl9u+wv/c8v/sHrt6lGbGIKBIJUHK8nMyCQ9Pf19tUFCDMr3H6Snxz9i36PRCH39/Yp8jFTMJhN2h2PCyabJbCYvN4viwkLl96CLRuAweYyNVSc1GzAM90PjRqh6zMiKmFgKpR+CzLXg0Ex7piwBSYn8x5v+yJNPPsnNf76Z7GwjNHU0JgX1/KGkPGKicDvdE3rKmylYT9Q45OQtd1043U4juVUsRltrm8qEKX4kcsW2FOVwKn4mL7zAD77/A37/379nwYIF6ncOp0MJZgltHSkzYXtbO3fcfgcrV6zklFNOGTEa5b38AI4cv6IFo7jYaaR+jhVfqXey6h5rn/R7xx8BrUEYbg7kAzvQAfvug5qnIByAwvOg7GPgSgezsfnoMjMQEOGyedNmNm/dzGeu+gwOh8NIejW0vPt24Lf/Kpm1oxEVzrjtrW0sX76czPTMmQHOFB1Fc3OzSpG9/uT16pbGV15+hR3bd7B06VJOWH8Cbrdb9VzdJxCDjRs38tV/+So/vfanrFm3RjkHCol4+O8Pc+4HziUnN0cJyOGEpAqV3LWHhx98mI989CMqqZZ2Np2iC0N3a0IR0ARhKJxCDOQOhe4D8MYN4K8GXx4s+QJkrob3sT1O6Kzoyo4pAiIAqquraWxuVOpndaiLGAxBTphyKlUJlIYjCZJAMxJj185d3PJ/t3Dh+Rdy7nnnagEyiTMo2oM//vGPPPXUU3zmM58hMysTSYSUnJSsfEkWSvIg69uXYpljZiTkVCJJCgsL+fRnP019bT2bNm7i19f/ms9d/Tm+/JUv43A51Fw77A46OzvVPR2ijRgIDnDXHXcpknHVVVdx7rnnkpg4cRc+TSJUumqNwLgQ0AQhDp/4FvhroeYZqHjYcDzMOQVKPgS+fDDpW/jGtdKm+MsidIIDQQbCA0otfWD/ARw2B+Xl5crksHjZYqKxqLL/xj3gJcRMyEVHawe3/+V2Xn75Zb73ve9x4oknTvHRTu/uSbjgl7/8ZWrrapk3bx5paWk8+OCD6n+586K0rPQdBMEUNdHU2KT+tmf3HpYsXYL4nbz0wkv0Bnq54IIL+NCHPmTY9s1QNr+MrZu3qvDInu4e6uvreeShR9hbvpekpCS+/KUvc+FFF5KamkpCQoImg9N7Oenevw8CmiAIOOJr0PCakQ2xaz8kl0HxByFrLdg8egHNcATEXlxRWcHjjz5OU3OTMjFIbgQhBBUVFSxatEh5vktUgqiiMzIzlN1bBFF/b79yfpP7HM455xy+9rWvHfZhmOGwHbfhRcIRdfFS+b5yJdSFkIk2QTIlSkKqpJQkTJZD6p4Y9Hb3ctddd/HAAw9w1eeuYtHiRSQkJlBxsILenl5F+E444QSsdqsiCFKn+KWIGSEcCitzhJgYxIwh7R48cJC83DxOP/10Lr/icjIzM5V2Sdvwj9uS0A1PEgKzmyDEIxT23Q1Nr4s+2bh1UVIlS16DYXXKkzQTutrjhkAgEODaf79WaQHkQp+Vq1cal+pEIxzYd4A5xXP46Mc+qi79KZpTRCgUwul0Mrdsrkp+c9v/3aayMfp8PqXGFhu1LpOLgGhuRHDLxUcyF+3t7SqlslzbLY6LIuilRCNRXn35VX527c8488wz+eo3vorbY/gniG+CkA3RHim/E+EU7+FrImYkuRVSzA4P3v8gu3bsoqqyiksuu4SP/9PHycnJOewYGa9DNFG6aASmMwKzDfJwTQAAIABJREFUlyCIr0Hja7Dzf6G/GRJLYOFnIWM5WOzTeU5130eJgMTJf/5zn1fagx/99EdKBS1CR4TQ048/rVTNH7rsQ4czIYrG4fCNe9EYwf6gSrb0u9/9jh//+MdKEOly7BEQsiDETiUMOuRlKqTuN7/+jTL/SDKsufPnKj+DsRZZE0IQRfMgcy6RDSmpKXz7299W93moug+RkzhBkP81WRgr4vq944nABBOEkWN5j+dgjVND1MhrUPEQVD0BJivknACLrgJnyhTMhjj2zey4Yz1NOiAnw+/+23epqa7hT7f8ifSMdGOpxGLqhCkHwXjY3LuGpPxaIzzxxBPcd9996lph8aTX5fgjIITh2Wef5YYbbuCiiy7is5/9LDaHjZhpYvYpMUOI6UE0SEJErrzySuYvmk9ySvK7MjW+F0EYSh7GSiLihDW+ZuMZFY/8X/4uvzuaEMw40Tr+s6h7cDwRmCCCEIOOfdDfdDzHcnRth/qh+nFo321oCrJPMhIfTcXQRXsCpMwD6yGV6NGNUD81SgTExPDz//i5si1Lpj1xPjvqEpOM21E2bNigTqhiA5c4eV0mDoGhqVpkrkTweyWboOn9yXNTUxPf+sa3qK6t5vrrr2ft2rXqdD9RBME4b8Soq6ljw3Mb2L59Ox6PhzPPOlOZqTxejxE6iaHReFd/D/GUoX+LEwb1uyNMFEN/FtOJXF8tt5E2NDSQnZVNd0+3ur5csJGxFxUV0draSoIvQREYKRLxsXf3XsKR8HtOkPRz7bq15OVNzLXYE7cSdE3HGoGJIQhyKn/1GuiuALv3WI9hdO1JtEJIUqCKKtBmRCtMxQgFuefBngjL/gWS545ujPrpUSEgJoRf/devVGjbNddeo3wJjrqIBiEU4eGHHua2227jJz/5iSGIJrCIrT1uJz/yZKdSAB9KtHO8k91IH6UcqW2JJ5BSdn5Qtvx4n+PjkXfkZCuncnEalO8lSkR+fuONN1iyZImKIHjqyafYsnkLZ5x5hjIFSZ3yrEp85HAonKROMQNIXoSrr76aFStW8KOf/Ih58+dNiluRkASZo4b6BnXp1+5du5UW6cT1J5KUnKScGCVHhtfnVUK9q7OLvII85cMggl0EvGitxCm2u7Ob7NxspZnIyMpQIZYSgRE/9cdJghClV195lZbmFvUlgl9wFZ8Ym92m2hMB39XdpSItJNGT3WFX5Hf/vv3I+5I2WrCSdgV/wU5+J+//8le/5Pzzzx+RhE3gMtdVTUEEJo4gPPN5SCqBBVdMwWEe0aV45rIRTiDHdSA9lbDzNljxdUjXKuuJmIu4MB2a5EY2XtkY7/7b3fzlz3/hlttvUQ5nR12G5EEQVfbll1/OaaedpgRg/NQWj5kfeoJUG3M0ejhE7sg+xQWkkJd//OMfNDY2qnrFN0Ji+UV4SpE2RIiKcBDve3GyFE1IR0cHxSXF6u8iWMVjX1TfcrqU56VI3XLKFMc7IUVKEMWiqo662jr1XktLixK8chpub20/nBciOTVZ+V5Iu1LEobO2tlYJIRF6ygVAPPsxqau0xQSzctVK9b5EiwSCAfVealoqWdlZKkRRkh+Jo6FcmCUn4YyMDCOi5IUXVMRASXGJEor33XufErqFxYXqWelDW0ubik4QYStCsLqmWjkuSrTCD370A5avWD7mC5qOdi3InAtG5XvKeeaZZ3j66afJzc1VXzIPBQUFvPXmWwpXGW9HZ4eKhpHoCyE7ks7ZbDIrLYQIcZk/iaKQ55S5K2Ik4xInS1kHfr9f4VtQWKDIrawLwVM0GZKsa//+/SxbtkytMyEvi5csVvVKGOfunbsVeZG+CH5CWOrr6klJSVHrZNmSZWodjKSlOVps9HPTE4GJJQjpy2D5V6cnElOt1137YNN1miC8x7zEncX6+vpobWk1TmedXSqDnpym1DW4Vqva4OQ0KQKysaFRCSHZUCVcUVLzSoy7CEqxI9fU1HD73berzfqoN0YxMYSjvPjCi/zgBz/A6/aqfP2iIpbNXP5PSU5RRECS7ojAkk1fMgBK2NyKlSuwWW2qT3KBkGzmknRp+7btnHHGGTzz9DM89sRjSnCL4JMTXmlxqUEsTNDW0abGJwJo/rz5lJSU8MD9D9Dc2KwSBokKWt6TU62EZ0oyIRHYImzk1FtaWqqwkVOmCHgZtxAkSRwlQkwErggkIRIiQHr7eklMSFQ4i3OeCHIRMCLU5LIr+X6oVkDuLZA+yLgK5xQqATg4MGgIN5MJX4JPYdTS2oLMpZACISXSHznlxoWU/E1wFOIhJ+bmlmZy8nKU8C0sKFTji9vXJcRR1sfA4ACnnnIq3//h90lJSzkmn3BlIoiakAvAbrzxRnVvgxA7wSQ7J5udu3aqSBiiYLfZ1RgF47J5ZYo0JSYnGsQr0K9I0NB1KERW1qysdSF68SJJvGS80oYKzQyH1doXM4S6lErW6BAtgaQCFxPDYY1TDJUIbKjzrWSgVFkodZnVCGiCMFWnXxOE952Z+HXKkvxGBKoIMxFQiUmJlJSWKCEmG7P8vHfvXm787Y1KqMhNjUIgRBBJYiQRenLyFpIhJ6pvfvubfPCSD44q+Y2EwEmK5V//+tc01DWoTVw2d0nGE7clywlbyIGcEuVULEJd/rfarIQGQ+rUJpu0CFAhL3Jh1N49e9VmLydoybmg7hlISlZhlCLM5bQnY5OxPP7448oRTzb1O+64Q53oTz/tdE457RR1chahO2fOHMPDPxZTiaAEB+lHX2+fIkdCqqQdwVE88uWUKkWETXFpsRJmQnqEaMhJecXqFeod0VaIinzrpq1KlR0vcteBhIKKQBeMV61ddVjgye+E7MiJV8YvYaKifi/IL+Cm39+kshUKJtIPEXJiU8/Pz8dis1BdUa3GLWp8wUrGJxoD0XrIqTs1xfAhkSRHImjnLZj33k6mk/D5N8UMjOPaFdESKEE/NIxSNCyHfBAOR11MIX9kTRAmYWFMwyo1QZiqk6YJwogEQU5eDz/ysBKicsIUgSxOWff+7V51wl2xaoWy6cpzImAkn8HVX7xaJT6Sn5cuX6qEoZx+RYCKoF28dLE6vY62yEla6lLCqrKaufPmKo2GnBTlVCen9dT0VCVM5fQnmozcvFyl7hfBKwRHmQ1M4HF78Dg9bN26lXvuuUeRj4s/eDHnnn+u6qO8L+9IW5IEqKqqii984Qt85srPKO2EEBUZ/51/u1Op9YVYSPvx+wlkbEIKlP0+FlWRGlKfatvjUd+LY5tKL32oxE+yIviGnmoPe8ofcsQ78u63oe8deX/B0Lri5p/W5lZuu/U2lV9AiN7hsMWh7cYMPwZRqwsecvL97fW/pXxvOd/94XeVr4FqV8w/wzkHjnZyZ+HzmiDMwkkfZsiaIEzVdaAJwogzE4lFGAwPqudEMApRELvz9b+8XqVGFnW7qLfFhCAJj0486UR1UY9oF0QwikCOq1Xjwmqsl/DEBZwSmIduCBQVr7/LUKWL4JXTbxQjh8I7BG1M/GSHHB9j0NXexQ9/+EP2le9jzZo16oQtqvJ169e9LaAP+T/c8NsbuP322/nud7+rSIM4Sgrx+Mfj/1Cq6+lUZB6F5Il2RDQQ71UkUdGGZzfw4cs+rDQhL7/wssJw7Qlr30GEptPYp1JfNUGYSrNx/PqiCcLxw/79W9YEYcSZEWEr/4YWEfhymnc6nEp9H7e/ihpbTsxDT8UjNjCOB4QABPoCKgROtBuiHg8MBJQwE0e+91ePQGNdI5/85CeVE97qVav503//iet/cz1nnXfWuwjC5s2bufl/b1ZpoUWwbtu2TXnQ3/j7G5WJZToVwU1MRqIlEb+M9yJsG1/dqJw3P/u5zyqb/tCoiOk03qnaV00QpurMHNt+aYJwbPE++tY0QRgRq+EIwogvTfYDUcNpUTQXb217i+1vbeeWW25RTn6iFv/2977NWWefNaJNXGz0X/zcF/G4POzYuUMJwD/8zx846ZSTho2nl9C/7337e8pUctLJJ3H5py9XjpBH7Ww52biMon4xHXS2d1JQVPCeOImW4YXnXlBmpMKiwhHxHEXz+tFD12RrJ0W9FCadIMiJTjyiZaOSMJ/4iUBssKIGld+9VxFPazl9SQiWbAhyMhRHK/mdhPKId/bcuXPf16FMvKXlRCXOWFLEviw3wInKd0pvnpogjPjpnHIE4VBOBLlGOG7zf+2115S/gTjciVbjxJNPVCF38TDF9xqkrNd77rqHW2++VWkcxAfhE5d/QjlSDlfkIinx5BeHODl5i0PkVFnf8dwEozHfHOnrcOSYZe944N4HlJPpVZ+/SuGry8QhoDUIE4fldK5p0gmC2H/l7nZJdiLZzCRsSUiDqAfFE1uubR1uI5MNQu5fFwcz8c5+6aWXOHjwIJ/61KfUta0SRnTeeeeprHXvt9nu2LGD73//+ypGWDyphTDIaU7udZdrfKds0QRhxKmZigRBnP++8qWvcNZZZ3HKqadQWVXJwkULlepfnABlrR6toBSHRslNIGFpYpoYSejH/SnGSwyknvH6ZMQnTxweN2/crD5/ohEYb9/i9QrpePjBh5Vj6JVXX6ni+SXUs6WpRYViCkkSzCeqvREX4wx7QBOEGTahYxzOpBME2SDEq/r/t3cu0FFVVx/fM5m8EyBAIBDeDyG8kVep2FoVpVArCCjVWq1WWxWtaPuJfPgCiwJLsZ9aKI/aUixY0fhaspZV8NNKWcIn6GqpIYGEJBAeeULek5n51n+HG9MQMhMyd3Lv5D+aRTK5c+4+v3Nz9//us88+r732msyZM0cee+wxvUkiOzs7O1sWL17c7B8xblJbtmzRyMF9992n0QaIDcwj33bbbfL0009rJED3cG/hBWECQfHwww9rxAHhS6xPxhrz+fPnW/cGQoHg95K2mkCAUz175qzMmzNP59BvvvlmmX7tdOnU5dzTPJIRke1vFOqy4DJzRC5QihdP5lhFoMsr21BQDFMe615ep2L8jrvu8Bs58Tvo5w7A/SEvN0+XSKb2TdVcjze3v9lQ7hirVSZOmtgm2wO1JRyPo0AIx1FtfZ9CIhBefPFFzSxGKdpnnnlGd7t7/fXXGwQCKrlBKGAtN5YtbdiwQYvKYOkW9l+HQPj2t78tn39eH7pdv369PoXdeuutOv2AAjWoVoeIQ3p6uixbtqx++1YR2b9/v2zcuFGeeuopXUoGoQGRgspsM2bM0F3e7r77bp27xdrrlStX6pMH2kZVvFmzZsnChQu1fC6Oa8vNslXDQ4HgF5cVBQJ2+Ztz/Rx9mkXEbNp3p9UXq8G8rg8bAYhGsXD9xibEmlL61y+4Fg7Ayosd7+2Qp5c9LUseXyKzrpsVcMSjuWbhyFE7IftIti65DHaSKHI9XvvLa5qkOXHiRP27Ru4FajWgZDBfF0eAAuHiuIXbp0ImEJCNDae9du1a3dQGzhzrt7G5DZw3nu7hgPEedkVbt26dHDhwQB33/fffL++++67885//VGeN+uqICuBpB+3NnTtX94GH458yZYpGKowX1pIvWLBAz43IBaIQV199tW7LiyVxEB+YAsG0w5/+9Cc9PwQG7MPSMWSfQ8DAZiwhC9mLAsEvaqsKhHk3zNPcmttvv11GjxutUwP68orWSMC20CjidN3s61q19bBRjz/QKQq/AJs5ANENlOHd/8V+uebaayS5Z3JQRHHj/SIuxq4LfQbJnL9e9Gvp07ePbrmMBwuBHrNQ0aFg9jdUbVEghIq0tc8TMoGANekzZ86U559/Xp00yrmichocNJw+pgBQGQ03Qfyhp6WlqVPHFAN+/84776hAgFiAQIAwwLwjMsQRPcATPj73yiuvaKTAeBm5DxAdOA6CA2IDNcoRBkay46pVq/QpKSsrS5YvX65iADc0TI188MEHKlZgW8iiBzCeAsHvX47VBAKiA1ipcP+992vxIVQz/PFPfqwbC+FptqaqRrB+H5URkTsz8VutC4HDGWIKA1UNzbwWG9d0uNjz+HxeDf83FTNIPMZ7rsjIoPQBEcHdf98tgwcOrk+CRtlhB8ojBWdLZ78XYZgeQIEQpgPbym6FVCDMnj1bn8ZXr16tmd1wuosWLVKR8OCDD+oGIxAI+B4OHE/sLQkEJDwieRE3XNx0sDIBAqJx0qIxxfDkk09qXXS0j/yHzz77TM+BAjQQAvh8RkaGToFgSgQ3eogZRCBgI8TNxd4sWzkm9YdTIPjFZjmBgE2LPB5Nylv78lr9d8HNC+S222/TPQMgRrHrIxwZrqeU1JRmn3QvlMFfVlomuUdzZfiI4Q3L+kJ6TfodkW8OKCkukn1792oBq/p9AhzijIgQd22tpPbpIyNGjpKoc9OArWi22UMRSUSJaqMSZVvb4+exKzb3YuB1IBJygQDo2OUMT/tYhYCnd3whK/mee+7RKAEqwm3evFmdM0L+DzzwgLz//vvnRRCQ+AQBgSkBTEfA8TfdgQwRBDh8iA7kFmBuGIIANd6xnekvfvELjRqg/C5yG5BUuXTpUtm6davusoZ8CYSEEUVo1S5/bb26KBD8ErSiQIDREAmHMw/Lls1bZM+ePVrRESJ49+7dek2jANLUqVMlMibyPIGgO+/lH5eY2BjpnvxNJAzt4nfYBhjbGF951ZVyuvC0Rssw3241oVCQny+bNm3UPR5gG/5W4cAjXS5JSxshV15zTeu21fZ7NfCAYBKgQAgmTfu2ZbpAwHQCpgGwzAlPTXhSRz0DPJ3jhoEEQ4T94ZyxJSxyAZCwCIeNJ3qUjcV7l112mf6M5YmYjkAyITbEgbDAlAB25Xv22WfPy5JGDQQkHOKcuFEhioCcBMwPoyYCfo+IBm5kECyYvkDYEudYsWKF3txhGyINa9asCV0eAgWC378qKwkECEvUIkC5X5RyxrWNHRnffuttmXDpBC1ehF0M8bRrbGPsizg/DI6nbdT5wNJGiITGLyTovvzbl2XDug3y0K8fUrFQeqZU1q5f6786o1+awT2gvKxM1qx5Xqs74m8PycT4e0tMSJARI0bI939wnXRBvkAzL0zDYLdBLA8Nad5PcBHYujUKBFsPX9CMN10gwFI4cTjnxqF/vIeboXEDwFOXUVDF2KbX2NIXbeCz+Bn/GtuZwpEjb2Dbtm0aDcBKh6ZPUnjqwk258RpxnNOYG0WbaA+/x3nxvvEejkN7hm1YUhmyJzUKBL8XuVUEAq7DD3Z8IG+nvy3jx4+XufPmSnJKstqPqoq6S2OEU0sv/2P3P/SaR/Jr566dtcBPoNcUrstdH+6Su+64S2b9YJZGuHDdvrPjnYadF5sKCmT5wzkbq3r8Qg3kAJ9IRWWF/r1cqF13dbX89rcvyMGDBzXnyFNXJ3Fxsbob5chRo2X23LnSrVGukHFa9HHtS2vlSNYRLQyFzbMCtT1YdSACQRDux1AghPsIB9a/kAiEwExp/VHIY8DSSdxw77jjDk1aDJsXBYLfoYRAwIZNeAXqZP022toDfKLbMi97cplWMUQODPIEkC8wdtxYdXDuOreumEGS7J7de3S6DFNnqKi48IGFraoCeOjrQ7Lq2VVyYP8BKSktkRtvvFGWrVjW7JN2TnaObN2yVaZ9Z5qWaA7W6gcI5t2f7tatlCdPmazVHc8T5m63/P736zRCV1JcKj6fQyJdMRIXHyNjx46SeTfdKCnNFCqDQIDQenXzq7q51p133RnQfhL4XM6RHOnaravfglKtHeKOeDwFQkcc9fP7bGuBgJArpiewGgE333ZzEmZcSxQIfqlCIJRXlsvJEye1Hn+wHKDfEzc6QDcX+upfsmrlKq3rcfm0y2XXzl1aAXH+TfNl8aOLpaCgQF568SWZOWumTmUhbwDLdFEzYfPWzTJq9KiAT4mVAXk5eTodV1NbI9fPvl4GDh7Y7LV//NhxSd+eriIFIsFfeedAjUCfkYC5/a/bZc68OSoSmrbt89TJxg0bZOfOnVJdUSYxEU45WXBGIqO9MnbiBLnngYdl4KBBzZ4SxcxQNwHCAwmdiFS09DKWUGJbbHwPYdYe10Kg/OxwHAWCHUbJfBttLRDMx9OOZ6BA8AsfAqHGXaMrTjC/3S4C0Se6nC/9jXQt6V1WUqaZ+wnxCfJfi/9Ln4DxJP/Qooek/8D+KiJQfOujDz/SvRNWv7BanXxrnLfP49OpCyzli4iKuGC/4SzxtN90es8v2AAOQM5F4elCrV8SGxd7ng2+OtQo+Z2kb39Dund2iOdsvpScrpb4BJ/0HjJGfvnfz8mwtJEXPFOgdRNwXMGxAomLj9OpCPQ3PsHi+6wEwLe9D6FAaO8RsMb5KRCsMQ7nW0GB4HdkLDHFcG51QeGpQsnMzGzId0EiYWZGpvRI7qErFXql9pI5N8zRcsCoDurz+uSnP/up/OznP/umkJLfHjcOXbR/MaCWnLjPUytbt2yWv766VWKlWiqK86W0yiMJsVHSNXWw/OrxZzRfw+F0ircNVY1gw+d7PldhMGXqlFYJrdbg7mjHUiB0tBFvvr8UCFa9DigQ/I6MVZIUYWjD/grnBAN2Ylz1zCo5U3pGkrolybOrn5XLr7hcpx4OZRzSvk3+1mSdGgvHl9frkde2bZNN69ZJlKdaqs4USZk3WpyRMdIntbcsXvKoLvXEVICnDQIB7Koqq6TgeIFGaFoTiQlH7sHqEwVCsEjaux0TBMJCexOxivWlmSKfrxQZ/0uR5DFWscpSdlhJIDQGA7Fw+tRpTSREBj9EwKQpk3Q/EhUS+j+KB1lwt6YgjbDbK/K3D/4mG9aulW4JMZIYHy1uV5zUVldJcveuMvuGuTJp0iQtntSWCIJh7oWKSwWpOx2uGQqEDjfkzXY4uAIhtrtI3ytINhgEKk+L5H0scumDIt1HB6PFsGvDqgLBiCgYeycgByCcxUBzF5bHJ3I8N0d2vvMXiYpKlLQxk6SyqlqqKyrEGRUhPVJTZfjwNN3IytfGCELYXdgW6BAFggUGwQImBEkg+ES+fFnk5D4LdCmMTOg0QGTUnSKJfcOoU8HripUFQvB6ad+W3NWVUnpoj3hL8sQldZqfUVfnlsi4zpKYdoXEdu8jDkf4RlHsO3IstWznsQum7cERCIiZeupEvDXBtI1tOVwiEdFY5E8WzRCgQLD2ZeGpKBJPxk6J9FSK14GqkU6NFXg8XvEmD5eo/hPEERHCHVKtjctS1jGCYKnhaDdjgiQQ2s1+nrgDE6BAsPbgu09lijNnj9THCBz6X332hVdqxCWu4VeLq1MPa3eig1pHgdBBB75JtykQeB3YlgAFgnWHDkmDNZmfSFRpju60+B+7LztEt8KuSewtMcO+J05GESw3kBQIlhuSdjGIAqFdsPOkwSBAgRAMiua04a2tkdr9r0u0w3uBQk4+qXbXigy5QqKTB7dPkStzuh4WrVIghMUwtrkTFAhtRsgG2osABUJ7kfd/3ppTh8WV/XdxOhwXdP5Y5VEdkyQxI6aLMzLWf6M8ImQEKBBChtrSJ6JAsPTw0LiWCFAgWPT68Pmk6vBnElN8pMXIgE5DxCVL1NDviDM63qKd6ZhmUSB0zHFv2msKBF4HtiVAgWDVofOJuzBbJP9LiagtF2czi3BQPdETnyzO3mPE1TmFK3UsNpQUCBYbkHYyhwKhncDztG0nQIHQdoZmteDzeMRbUSieoqMiZwrEUXtWIpwR4nNGijc6QaRLH3F26ScRMQkiYVxR0iy+ZrdLgWA2YXu0T4Fgj3Gilc0QoECwwWXh84rP6xHxevRfR4RLxOkScTiZmGjh4aNAsPDghNA0CoQQwuapgkuAAiG4PM1vDcWS8GLhL/NZt+0MFAht4xcun6ZACJeR7ID9oEDogIPOLoeEAAVCSDBb/iQUCJYfIhp4IQIUCLw2SMAcAhQI5nC1W6sUCHYbMdrbQIACgRcDCZhDgALBHK52a5UCwW4jRnvbJBBQnAdfyKivqa3R72NjY5kwx+uKBBoRoEDg5QACFAi8DmxLoLURBBTmyT6cLVlZWTJy1EjJz8uXs2fPymXTLpPYOFbys+2FQMODToACIehIbdkgBYIth41Gg0BrBQKiBQf/dVCyDmXJmHFjxOf1ibvOLQMHDZTo6GhCJQESOEeAAoGXAiMIvAZsTaC1AgGddde6pc5TJy6XS7/0j8DBZXe2vhBofNAJUCAEHaktG2QEwZbDRqMvJoJAaiRAAoERoEAIjFO4H0WBEO4jHMb98/g84va4pbamVpwRzoaIAKYSamtrddoA/yJS4KnzSE1NjSYkVlZUSnRMtE4vuCJc4nA6pKqqSuLi4qSqskri4+OlurpanOdKABufq66plvi4eCkvLxeP1yORrkipdddKbEysfj4yKlK8Hq/U1dUpdbfbLWVlZdKpUyfpktRFj8G0BuoEJSQk6PcVFRUNIwTb0F5FeYV+dU7qLJXlleITn3Tq3EmPQ99OnjwpSV2StL2uXbtKSq+UBlvDeLjZtRASoEAIIWwLn4oCwcKDQ9MuTAAJh6dOnZIPP/pQjh87rkmGnTt3VkcJh37yxEnpmdJTTp08JYmdEtXxnzh5QgYOHChff/219OnTR4qKitRRx0THSE52jgy9ZKhkZ2frv/h8QmKCOvCCggIZMmSIfp+SkiL7/2+/OuekrklSXFgsqf1SJTc3V3r06CHiE7UnOipaXJEutRHtDB06VHLzcnU6A+dEe2fKzkj2kWwVFImJiSoiCk8XSmlpqXh9XnX8+B59RdsQB8XFxSo6eqX0kuMFxyW5e7IsfXypDBoyiJcLCbRIANcRXoFMqVEg8GLSa8VnXDXkQQI2IoDL9vDhw/LY0sd0ZQIcLHILxo0bJ4WFhZKfny8Ocej3zkinPpl36dxF+vXrpzdIOG7xilRWVqpogLDIP5Yv3ZO76+/wHpz6gQMHJCoqSgXB9OnT5auvvtLf5+fmqyCB0CguLZZu3brpzz179FR7uiV3k969e6tDh7Coqq6VKvC9AAAOIUlEQVTS6EJyj2S14cyZM3Ki4IRGLRAtgCjJyMhQexHxGD1mtLaNn3NyciQtLU1OnDihQmTEiBEalUhPT5dP//dT2fjKRpkxa4aNRo+mhpqAx+ORozlHVZziGvQnEigQQj1C1jwfBYI1x4VWBUAAIfzMzEwpKSnRKAB+HjBwgJSfLZfSslJ9MkfkACF6ONqYmBi55JJLdJrh9OnTEhERIdVV1fp0HhUdpZECOHoIAPyblJSkDh5OHOfo27ev/gtxgvcxtYDPFhUX6fFw7BATSISMcEVIZGSk4MZsfKFLDce43fo+fkZkANMhECGIfmBaBFMH+DzExRdffCEDBgyQTz75RKc+brrpJo2CPP7Y43I467C8uu1VmTx1cgDEeEggBDC+jR2o/ox5oUBzWX0IJBn7TnxzRrRhvG+03/Rcgdh3MccgWvbSCy/JtO9Mk6mXTdU6IJiWwzUIG3Ct4YW/Cf1XIsTpcF7MqfiZMCJAgRBGg9kRu9I0AIYbb9P3jJ+1QNK5G2DjG3PjzzR+3/gcogvNBdqMzzUO3bb0ZNb4uJYcg/E72IuXITCQewDxALGA79c8v0b+uOmP8rsNv5Mb5t9QP/w+bJxY30/jfPhX+2A4LfguZ2Ch5havKbSDL4d8w+fc982Ng9EW+tPYGcE+5IjAYalT8tX3WY9xRajQQ3voF/I2XFEuqamuqe8jfo6sF1m6OiWi/nsjP8Tot74XFSm11bXalrLw1bePXBQDDaakEFXC9NTpU6c1KgTWiAzhyRtCrql4gJ3GexCnhw4dUuGHXBWw0ZyWqmqJiY3R9zBNhYhSQnyCTiElJydrRAhtoE917jplgT7gZ6fLqXkyF/tC3z/+6GNZ8sgSteuSYZdo/2DH8fzjKnC/+73v6nn79uurInfkiJEqfv1FGi7WJn7OHgQoEOwxTrSSBP6DACIZSxYvkTe2vyEvvPSCDBk6RG/+cbFxmgOBKRIUgcLNHtMScHQIL6ujRfXI+FiJiomqd8LOCD0OzgxREeQ4GEtAEW1BZAZOGhGY8opydd5w5DgXpmkQ+UBEpqKqQj+HqZAuXbpotKNxEqYhYHAsHHfXbl3VHrR96sQpzelAmxAMsAHTQojMYCoGOSbFRcVqOwQSpn4QZcFUDaZs8D7yR+Bs0W9Eiv79739rtAhJrHhveNpw2b9/vzpsTTT1eHQa6MjhI/UCxyfKCm2CX15enp7/aO5RzRm56qqrZOy4sXo+PJHj/Og72oODR58Q7fnNb36jjh/9R9/AHQwRiULbiEThffwM8TFs2DBtA3zRJj6LfzGVNHjIYHXoxlg1FlkQSVoF1I94MATCI796RI4dOyadEjtJap9U7TPGG2OP6wmJsLATU1v33nuvTJw8kQKhg993KBA6+AXA7tuTAG7ojz7yqLyV/pZMv3a69OjZQ6dEDIeMp0M4ITjCI0eOqMM2nurhwBPjE3UlhuH44ZDg4Pr27ytf7PtCBQUSJfv17yclRSXaDpzpocxD+jQM54YCU3AycKp5uXkaBcA5juUf06dtOM+iwqJ6QeF0NjhJPLHjOIgMI6oDxwlHhydbJGsivySlZ4o6dzhOnXqpq1WHiO+N/A4VGl276pRP//79dXrIcNhoE0/BPo9Pz41jSspKtD28co/mSmrvVI0KwEnCkYMNzoH+N47kYAVLztEczXWBg4ejHTx4sH4GT/nDhw9XR//nP/9Z9u3bpyIGP+OciEh0795dbYCQwNjh9zgXBBUcMuw2BAPECM6Pr0GDB2l+CqIPxgvRDwiUt954SyuCQhyiT2CpXJ1OnTLDzzgnBOCbr78pK1eslOvnXC/jxo/TPoAtWGNlDsQVBBuE1ID+AzS6wOqi9rw3BNNqCoRg0mRbJBAiAphq+MPGP8gTjz8hC25ZILf85BZ1VnDmuLkj8dHInTCiBpVVlRpGxpM1niJ37dolOz/cqXkavXr30ideODN8FstAsYoCIXOIAwgJIycCYmTatGkycvTIhqdPOO1Lx1+qqz/iE+LrBYbXq6tDys6UqRNC4ui0y6c1zHcjLwRio2fPnhoRQKh7xvdn6O937NghY8eO1dUaeLLFcRAscN6wBw7WSOhEP/HUjad+PJGDg5H/AWFkTBEhEoFpCDh0OOaC4wUatQALTD+gHUQp4IwhMhocss8nX375pWzfvl0jCRlfZ0hefp7MnDlTJkyYoNxwTgiVTZs2qVC59tprVZxgnCCQYI8x1w+njX4YS2kNAQS7IKoM0WHkpug0Q6MpIggElAm/ce6NOsWCiEb/Qf112gX9gGOHaKg4W6HiDWJtx3s75FDGIU1oRSTEmGpryIU4t/zWmC7h1EKI/pAtfhoKBIsPEM0jgeYIwNl8+umnsvyp5ZLULUnWrl+rTtnhc9SHhc/lBjSTK9cwp4+n0G1/2Sapqan1YqCiXN584011tHBSuuJDHLLr41365Iw5eYgHVLCEc/zh9T9URwtb8AVHZ0QLDAcDYWG8Z0QrjN8ZG2ehDQgMRCCMp1atKxEZqV+BOqvGeQ/G98ZnDZHUHEsjAbHp5xsfC1Z4uoaYgTCB40cUo3GJbjCAwEJ/muYqtHQVN83XaMkOox0IoYULF6rAgxBA5GXRrxbJsePHlCOEy9GjRyUrM0sjFTVV9dMRTzz1hEycxKkD3lUCI0CBEBgnHkUCliMAJ4V5cuwvcfX0q9UBtOaFp0/saAknbDxlY4rC+NkIV6NWA8LPeB9OHQ4fc9cdKQTdNMHU4ByoeGnNuLR0rGEHhMj7778vz61+TiNAqIOxfMVyFSeIGCACAqHgcddPIxmC0YiuhNruYPWf7YSWAAVCaHnzbCQQdAJw2kbVx6A3joUKTZb9mXEOthkYAYwFHP7Bgwflueee0wjPzT++WYalDdMpDY24OPGuQ1DLQKMjfJHARRKgQLhIcPwYCZAACYSaAKY5MGUAgYDVIOMnjNckxrj4uAZTKA5CPSrhez4KhPAdW/aMBEggjAggORNVNZGfgeWcSHbEqhPUgTACBRQHYTTgFugKBYIFBoEmkAAJkEBLBDCt8N677+lKinvvu1cmTZpUXyjK4dMv48USybyOgkmAAiGYNNkWCZAACZhAAHkmKLW94ukVcsutt8iCHy2oXzoJgXBuqYqRc8C8AxMGoIM2SYHQQQee3SYBErAPASQn7tu7T1avWq01L7A5V0MtA01F/OY/+/SKllqdAAWC1UeI9pEACXR4AhAIez/fK0uXLJU58+fI7XfeXl/QKjpai1AhesAXCQSbAAVCsImyPRIgARIIMgEVCHv3yqpnVsmPbv2RzLpuluz++27pk9pHtyVnXYMgA2dzSoACgRcCCZAACVidgE8kKytLXvyfF2XAoAFyxZVXSM/knrr/RmsLZFm9q7TPOgQoEKwzFrSEBEiABC5IADUQ1v9+ve5pcffP79b9KFDemtEDXjRmEaBAMIss2yUBEiCBIBLAUseMjAzd5Gn06NENm15RIAQRMpv6DwIUCLwgSIAESMAmBLAPBpY8Ys8FCgObDJqNzaRAsPHg0XQSIAESIAESMIsABYJZZNkuCZAACZAACdiYAAWCjQePppMACZAACZCAWQQoEMwiy3ZJgARIgARIwMYEKBBsPHg0nQRIgARIgATMIkCBYBZZtksCJEACJEACNiZAgWDjwaPpJEACJEACJGAWAQoEs8iyXRIgARIgARKwMQEKBBsPHk0nARIgARIgAbMIUCCYRZbtkgAJkAAJkICNCVAg2HjwaDoJkAAJkAAJmEWAAsEssmyXBEiABEiABGxMgALBxoNH00mABEiABEjALAIUCGaRZbskQAIkQAIkYGMCFAg2HjyaTgIkQAIkQAJmEaBAMIss2yUBEiABEiABGxOgQLDx4NF0EiABEiABEjCLAAWCWWTZLgmQAAmQAAnYmAAFgo0Hj6aTAAmQAAmQgFkEKBDMIst2SYAESIAESMDGBCgQbDx4NJ0ESIAESIAEzCJAgWAWWbZLAiRAAiRAAjYmQIFg48Gj6SRAAiRAAiRgFgEKBLPIsl0SIAESIAESsDEBCgQbDx5NJwESIAESIAGzCFAgmEWW7ZIACZAACZCAjQlQINh48Gg6CZAACZAACZhFgALBLLJslwRIgARIgARsTIACwcaDR9NJgARIgARIwCwCFAhmkWW7JEACJEACJGBjAhQINh48mk4CJEACJEACZhGgQDCLLNslARIgARIgARsToECw8eDRdBIgARIgARIwiwAFgllk2S4JkAAJkAAJ2JgABYKNB4+mkwAJkAAJkIBZBCgQzCLLdkmABEiABEjAxgQoEGw8eDSdBEiABEiABMwiQIFgFlm2SwIkQAIkQAI2JkCBYOPBo+kkQAIkQAIkYBYBCgSzyLJdEiABEiABErAxAQoEGw8eTScBEiABEiABswhQIJhFlu2SAAmQAAmQgI0JUCDYePBoOgmQAAmQAAmYRYACwSyybJcESIAESIAEbEyAAsHGg0fTSYAESIAESMAsAhQIZpFluyRAAiRAAiRgYwIUCDYePJpOAiRAAiRAAmYRoEAwiyzbJQESIAESIAEbE6BAsPHg0XQSIAESIAESMIsABYJZZNkuCZAACZAACdiYAAWCjQePppMACZAACZCAWQQoEMwiy3ZJgARIgARIwMYEKBBsPHg0nQRIgARIgATMIkCBYBZZtksCJEACJEACNiZAgWDjwaPpJEACJEACJGAWAQoEs8iyXRIgARIgARKwMQEKBBsPHk0nARIgARIgAbMIUCCYRZbtkgAJkAAJkICNCVAg2HjwaDoJkAAJkAAJmEWAAsEssmyXBEiABEiABGxM4P8B/rcoQNkXh8gAAAAASUVORK5CYII=;" parent="n0nwbGPEsCJ3wl-f-12y-1" vertex="1"><mxGeometry x="220" y="-180" width="361.05" height="159" as="geometry"/></mxCell><mxCell id="rXCT14J-BfKCkpaahrCD-3" value="" style="shape=flexArrow;endArrow=classic;html=1;entryX=0.5;entryY=0;entryDx=0;entryDy=0;strokeWidth=2;" parent="n0nwbGPEsCJ3wl-f-12y-1" target="rXCT14J-BfKCkpaahrCD-0" edge="1"><mxGeometry width="50" height="50" relative="1" as="geometry"><mxPoint x="440" y="-270" as="sourcePoint"/><mxPoint x="360" y="-220" as="targetPoint"/></mxGeometry></mxCell></root></mxGraphModel></diagram><diagram id="yO5VTTR2Ly0LloX2j2jw" name="JobLogPage"><mxGraphModel dx="2337" dy="2875" grid="1" gridSize="10" guides="1" tooltips="1" connect="1" arrows="1" fold="1" page="1" pageScale="1" pageWidth="827" pageHeight="1169" math="0" shadow="0"><root><mxCell id="-VoNo1GTi6xVGyqaLVmS-0"/><mxCell id="-VoNo1GTi6xVGyqaLVmS-1" parent="-VoNo1GTi6xVGyqaLVmS-0"/><mxCell id="tCrKKw-qxABEY0ADIaY1-27" value="" style="rounded=0;whiteSpace=wrap;html=1;" parent="-VoNo1GTi6xVGyqaLVmS-1" vertex="1"><mxGeometry x="30" y="-440" width="770" height="450" as="geometry"/></mxCell><mxCell id="tCrKKw-qxABEY0ADIaY1-42" value="" style="rounded=0;whiteSpace=wrap;html=1;" parent="-VoNo1GTi6xVGyqaLVmS-1" vertex="1"><mxGeometry x="401" y="-110" width="381" height="90" as="geometry"/></mxCell><mxCell id="tCrKKw-qxABEY0ADIaY1-40" value="" style="rounded=0;whiteSpace=wrap;html=1;" parent="-VoNo1GTi6xVGyqaLVmS-1" vertex="1"><mxGeometry x="401" y="-270" width="380" height="150" as="geometry"/></mxCell><mxCell id="tCrKKw-qxABEY0ADIaY1-34" value="" style="rounded=0;whiteSpace=wrap;html=1;" parent="-VoNo1GTi6xVGyqaLVmS-1" vertex="1"><mxGeometry x="46" y="-270" width="305" height="250" as="geometry"/></mxCell><mxCell id="tCrKKw-qxABEY0ADIaY1-11" value="" style="rounded=0;whiteSpace=wrap;html=1;" parent="-VoNo1GTi6xVGyqaLVmS-1" vertex="1"><mxGeometry x="20" y="-630" width="780" height="140" as="geometry"/></mxCell><mxCell id="0IHutql-go06iy1Ku9PH-0" style="edgeStyle=orthogonalEdgeStyle;rounded=0;orthogonalLoop=1;jettySize=auto;html=1;exitX=0.5;exitY=0;exitDx=0;exitDy=0;" parent="-VoNo1GTi6xVGyqaLVmS-1" source="0IHutql-go06iy1Ku9PH-1" target="0IHutql-go06iy1Ku9PH-3" edge="1"><mxGeometry relative="1" as="geometry"><mxPoint x="180" y="-1090" as="targetPoint"/></mxGeometry></mxCell><mxCell id="0IHutql-go06iy1Ku9PH-1" value="重做" style="rounded=1;whiteSpace=wrap;html=1;" parent="-VoNo1GTi6xVGyqaLVmS-1" vertex="1"><mxGeometry x="369" y="-1120" width="90" height="40" as="geometry"/></mxCell><mxCell id="0IHutql-go06iy1Ku9PH-2" value="聯係管理員" style="rounded=1;whiteSpace=wrap;html=1;" parent="-VoNo1GTi6xVGyqaLVmS-1" vertex="1"><mxGeometry x="620" y="-1125" width="90" height="40" as="geometry"/></mxCell><mxCell id="0IHutql-go06iy1Ku9PH-3" value="Can only be activated when current job status is error(&lt;span style=&quot;background-color: rgb(204 , 255 , 153)&quot;&gt;status == 5&lt;/span&gt;), otherwise, front end should disable the button.&lt;br&gt;&lt;br&gt;front end could check the status in table &quot;sys_shcedule_job_log&quot;" style="text;html=1;strokeColor=none;fillColor=none;align=center;verticalAlign=middle;whiteSpace=wrap;rounded=0;" parent="-VoNo1GTi6xVGyqaLVmS-1" vertex="1"><mxGeometry x="60" y="-1150" width="220" height="90" as="geometry"/></mxCell><mxCell id="0IHutql-go06iy1Ku9PH-4" value="" style="group" parent="-VoNo1GTi6xVGyqaLVmS-1" vertex="1" connectable="0"><mxGeometry x="210" y="-1030" width="330" height="150" as="geometry"/></mxCell><mxCell id="0IHutql-go06iy1Ku9PH-5" value="" style="rounded=1;whiteSpace=wrap;html=1;" parent="0IHutql-go06iy1Ku9PH-4" vertex="1"><mxGeometry width="330" height="150" as="geometry"/></mxCell><mxCell id="0IHutql-go06iy1Ku9PH-6" value="請選擇" style="rounded=1;whiteSpace=wrap;html=1;" parent="0IHutql-go06iy1Ku9PH-4" vertex="1"><mxGeometry x="24.264705882352942" y="20" width="247.5" height="30" as="geometry"/></mxCell><mxCell id="0IHutql-go06iy1Ku9PH-7" value="重做錯誤部分" style="rounded=1;whiteSpace=wrap;html=1;" parent="0IHutql-go06iy1Ku9PH-4" vertex="1"><mxGeometry x="24.264705882352942" y="80" width="116.47058823529412" height="50" as="geometry"/></mxCell><mxCell id="0IHutql-go06iy1Ku9PH-8" value="重做整個任務" style="rounded=1;whiteSpace=wrap;html=1;" parent="0IHutql-go06iy1Ku9PH-4" vertex="1"><mxGeometry x="155.2941176470588" y="80" width="116.47058823529412" height="50" as="geometry"/></mxCell><mxCell id="0IHutql-go06iy1Ku9PH-9" value="" style="verticalLabelPosition=bottom;verticalAlign=top;html=1;shape=mxgraph.basic.x" parent="0IHutql-go06iy1Ku9PH-4" vertex="1"><mxGeometry x="291.1764705882353" y="10" width="19.41176470588235" height="20" as="geometry"/></mxCell><mxCell id="0IHutql-go06iy1Ku9PH-10" style="edgeStyle=orthogonalEdgeStyle;rounded=0;orthogonalLoop=1;jettySize=auto;html=1;exitX=0.5;exitY=1;exitDx=0;exitDy=0;" parent="-VoNo1GTi6xVGyqaLVmS-1" source="0IHutql-go06iy1Ku9PH-7" target="0IHutql-go06iy1Ku9PH-11" edge="1"><mxGeometry relative="1" as="geometry"><mxPoint x="250" y="-830" as="targetPoint"/></mxGeometry></mxCell><mxCell id="0IHutql-go06iy1Ku9PH-11" value="Front end should create a new schedule with this job&amp;nbsp;&lt;br&gt;set schedule_command as 4" style="text;html=1;strokeColor=none;fillColor=none;align=center;verticalAlign=middle;whiteSpace=wrap;rounded=0;" parent="-VoNo1GTi6xVGyqaLVmS-1" vertex="1"><mxGeometry x="160" y="-845" width="290" height="70" as="geometry"/></mxCell><mxCell id="0IHutql-go06iy1Ku9PH-12" style="edgeStyle=orthogonalEdgeStyle;rounded=0;orthogonalLoop=1;jettySize=auto;html=1;exitX=0.5;exitY=1;exitDx=0;exitDy=0;" parent="-VoNo1GTi6xVGyqaLVmS-1" source="0IHutql-go06iy1Ku9PH-8" target="0IHutql-go06iy1Ku9PH-13" edge="1"><mxGeometry relative="1" as="geometry"><mxPoint x="490" y="-820" as="targetPoint"/></mxGeometry></mxCell><mxCell id="0IHutql-go06iy1Ku9PH-13" value="Front end should create&amp;nbsp;a new schedule with this job&amp;nbsp;&lt;br&gt;set schedule_command as 1" style="text;html=1;strokeColor=none;fillColor=none;align=center;verticalAlign=middle;whiteSpace=wrap;rounded=0;" parent="-VoNo1GTi6xVGyqaLVmS-1" vertex="1"><mxGeometry x="470" y="-830" width="290" height="40" as="geometry"/></mxCell><mxCell id="tCrKKw-qxABEY0ADIaY1-0" value="" style="rounded=0;whiteSpace=wrap;html=1;" parent="-VoNo1GTi6xVGyqaLVmS-1" vertex="1"><mxGeometry x="20" y="-700" width="780" height="60" as="geometry"/></mxCell><mxCell id="tCrKKw-qxABEY0ADIaY1-2" value="項目編號" style="rounded=1;whiteSpace=wrap;html=1;" parent="-VoNo1GTi6xVGyqaLVmS-1" vertex="1"><mxGeometry x="30" y="-690" width="60" height="40" as="geometry"/></mxCell><mxCell id="tCrKKw-qxABEY0ADIaY1-3" value="名稱" style="rounded=1;whiteSpace=wrap;html=1;" parent="-VoNo1GTi6xVGyqaLVmS-1" vertex="1"><mxGeometry x="110" y="-690" width="120" height="40" as="geometry"/></mxCell><mxCell id="tCrKKw-qxABEY0ADIaY1-4" value="動作詳情" style="rounded=1;whiteSpace=wrap;html=1;" parent="-VoNo1GTi6xVGyqaLVmS-1" vertex="1"><mxGeometry x="250" y="-690" width="90" height="40" as="geometry"/></mxCell><mxCell id="tCrKKw-qxABEY0ADIaY1-5" value="開始時間" style="rounded=1;whiteSpace=wrap;html=1;" parent="-VoNo1GTi6xVGyqaLVmS-1" vertex="1"><mxGeometry x="470" y="-690" width="90" height="40" as="geometry"/></mxCell><mxCell id="tCrKKw-qxABEY0ADIaY1-6" value="結束時間" style="rounded=1;whiteSpace=wrap;html=1;" parent="-VoNo1GTi6xVGyqaLVmS-1" vertex="1"><mxGeometry x="580" y="-690" width="90" height="40" as="geometry"/></mxCell><mxCell id="tCrKKw-qxABEY0ADIaY1-7" value="操作" style="rounded=1;whiteSpace=wrap;html=1;" parent="-VoNo1GTi6xVGyqaLVmS-1" vertex="1"><mxGeometry x="690" y="-690" width="90" height="40" as="geometry"/></mxCell><mxCell id="tCrKKw-qxABEY0ADIaY1-8" value="狀態" style="rounded=1;whiteSpace=wrap;html=1;" parent="-VoNo1GTi6xVGyqaLVmS-1" vertex="1"><mxGeometry x="360" y="-690" width="90" height="40" as="geometry"/></mxCell><mxCell id="tCrKKw-qxABEY0ADIaY1-9" value="清潔" style="rounded=1;whiteSpace=wrap;html=1;" parent="-VoNo1GTi6xVGyqaLVmS-1" vertex="1"><mxGeometry x="250" y="-620" width="90" height="40" as="geometry"/></mxCell><mxCell id="tCrKKw-qxABEY0ADIaY1-10" value="消毒" style="rounded=1;whiteSpace=wrap;html=1;" parent="-VoNo1GTi6xVGyqaLVmS-1" vertex="1"><mxGeometry x="250" y="-550" width="90" height="40" as="geometry"/></mxCell><mxCell id="tCrKKw-qxABEY0ADIaY1-13" value="" style="endArrow=none;html=1;exitX=0;exitY=0.5;exitDx=0;exitDy=0;entryX=1;entryY=0.5;entryDx=0;entryDy=0;" parent="-VoNo1GTi6xVGyqaLVmS-1" source="tCrKKw-qxABEY0ADIaY1-11" target="tCrKKw-qxABEY0ADIaY1-11" edge="1"><mxGeometry width="50" height="50" relative="1" as="geometry"><mxPoint x="380" y="-510" as="sourcePoint"/><mxPoint x="430" y="-560" as="targetPoint"/></mxGeometry></mxCell><mxCell id="tCrKKw-qxABEY0ADIaY1-14" value="錯誤" style="rounded=1;whiteSpace=wrap;html=1;" parent="-VoNo1GTi6xVGyqaLVmS-1" vertex="1"><mxGeometry x="360" y="-620" width="90" height="40" as="geometry"/></mxCell><mxCell id="tCrKKw-qxABEY0ADIaY1-15" value="完成" style="rounded=1;whiteSpace=wrap;html=1;" parent="-VoNo1GTi6xVGyqaLVmS-1" vertex="1"><mxGeometry x="360" y="-550" width="90" height="40" as="geometry"/></mxCell><mxCell id="tCrKKw-qxABEY0ADIaY1-16" value="1" style="rounded=1;whiteSpace=wrap;html=1;" parent="-VoNo1GTi6xVGyqaLVmS-1" vertex="1"><mxGeometry x="30" y="-550" width="60" height="40" as="geometry"/></mxCell><mxCell id="tCrKKw-qxABEY0ADIaY1-17" value="2" style="rounded=1;whiteSpace=wrap;html=1;" parent="-VoNo1GTi6xVGyqaLVmS-1" vertex="1"><mxGeometry x="30" y="-620" width="60" height="40" as="geometry"/></mxCell><mxCell id="tCrKKw-qxABEY0ADIaY1-18" value="4/F_handrail_001" style="rounded=1;whiteSpace=wrap;html=1;" parent="-VoNo1GTi6xVGyqaLVmS-1" vertex="1"><mxGeometry x="110" y="-550" width="120" height="40" as="geometry"/></mxCell><mxCell id="tCrKKw-qxABEY0ADIaY1-19" value="4/F_handrail_001" style="rounded=1;whiteSpace=wrap;html=1;" parent="-VoNo1GTi6xVGyqaLVmS-1" vertex="1"><mxGeometry x="110" y="-620" width="120" height="40" as="geometry"/></mxCell><mxCell id="tCrKKw-qxABEY0ADIaY1-20" value="---" style="rounded=1;whiteSpace=wrap;html=1;" parent="-VoNo1GTi6xVGyqaLVmS-1" vertex="1"><mxGeometry x="690" y="-620" width="90" height="40" as="geometry"/></mxCell><mxCell id="tCrKKw-qxABEY0ADIaY1-21" value="---" style="rounded=1;whiteSpace=wrap;html=1;" parent="-VoNo1GTi6xVGyqaLVmS-1" vertex="1"><mxGeometry x="690" y="-550" width="90" height="40" as="geometry"/></mxCell><mxCell id="tCrKKw-qxABEY0ADIaY1-22" value="---" style="rounded=1;whiteSpace=wrap;html=1;" parent="-VoNo1GTi6xVGyqaLVmS-1" vertex="1"><mxGeometry x="470" y="-620" width="90" height="40" as="geometry"/></mxCell><mxCell id="tCrKKw-qxABEY0ADIaY1-23" value="---" style="rounded=1;whiteSpace=wrap;html=1;" parent="-VoNo1GTi6xVGyqaLVmS-1" vertex="1"><mxGeometry x="470" y="-550" width="90" height="40" as="geometry"/></mxCell><mxCell id="tCrKKw-qxABEY0ADIaY1-24" value="---" style="rounded=1;whiteSpace=wrap;html=1;" parent="-VoNo1GTi6xVGyqaLVmS-1" vertex="1"><mxGeometry x="580" y="-620" width="90" height="40" as="geometry"/></mxCell><mxCell id="tCrKKw-qxABEY0ADIaY1-25" value="---" style="rounded=1;whiteSpace=wrap;html=1;" parent="-VoNo1GTi6xVGyqaLVmS-1" vertex="1"><mxGeometry x="580" y="-550" width="90" height="40" as="geometry"/></mxCell><mxCell id="tCrKKw-qxABEY0ADIaY1-26" value="" style="triangle;whiteSpace=wrap;html=1;rotation=90;" parent="-VoNo1GTi6xVGyqaLVmS-1" vertex="1"><mxGeometry x="430" y="-675" width="10" height="10" as="geometry"/></mxCell><mxCell id="tCrKKw-qxABEY0ADIaY1-28" value="手動模式" style="rounded=1;whiteSpace=wrap;html=1;fillColor=#ffe6cc;strokeColor=#d79b00;" parent="-VoNo1GTi6xVGyqaLVmS-1" vertex="1"><mxGeometry x="621" y="-260" width="120" height="60" as="geometry"/></mxCell><mxCell id="tCrKKw-qxABEY0ADIaY1-29" value="自動模式" style="rounded=1;whiteSpace=wrap;html=1;fillColor=#dae8fc;strokeColor=#6c8ebf;" parent="-VoNo1GTi6xVGyqaLVmS-1" vertex="1"><mxGeometry x="451" y="-260" width="120" height="60" as="geometry"/></mxCell><mxCell id="tCrKKw-qxABEY0ADIaY1-30" value="復原模式(手臂)" style="rounded=1;whiteSpace=wrap;html=1;fillColor=#f8cecc;strokeColor=#b85450;" parent="-VoNo1GTi6xVGyqaLVmS-1" vertex="1"><mxGeometry x="451" y="-190" width="120" height="60" as="geometry"/></mxCell><mxCell id="tCrKKw-qxABEY0ADIaY1-33" value="機器人當前模式: 自動模式" style="rounded=1;whiteSpace=wrap;html=1;fillColor=#dae8fc;strokeColor=#6c8ebf;" parent="-VoNo1GTi6xVGyqaLVmS-1" vertex="1"><mxGeometry x="63.5" y="-260" width="270" height="60" as="geometry"/></mxCell><mxCell id="tCrKKw-qxABEY0ADIaY1-35" value="手臂" style="rounded=1;whiteSpace=wrap;html=1;" parent="-VoNo1GTi6xVGyqaLVmS-1" vertex="1"><mxGeometry x="61" y="-180" width="70" height="60" as="geometry"/></mxCell><mxCell id="tCrKKw-qxABEY0ADIaY1-37" value="小車狀態: 任務進行中" style="rounded=1;whiteSpace=wrap;html=1;" parent="-VoNo1GTi6xVGyqaLVmS-1" vertex="1"><mxGeometry x="848" y="-700" width="270" height="60" as="geometry"/></mxCell><mxCell id="tCrKKw-qxABEY0ADIaY1-39" value="&amp;nbsp; &amp;nbsp;建議：" style="rounded=1;whiteSpace=wrap;html=1;align=left;" parent="-VoNo1GTi6xVGyqaLVmS-1" vertex="1"><mxGeometry x="45" y="-370" width="735" height="60" as="geometry"/></mxCell><mxCell id="tCrKKw-qxABEY0ADIaY1-41" value="" style="rounded=0;whiteSpace=wrap;html=1;" parent="-VoNo1GTi6xVGyqaLVmS-1" vertex="1"><mxGeometry x="45" y="-420" width="735" height="30" as="geometry"/></mxCell><mxCell id="tCrKKw-qxABEY0ADIaY1-43" value="小車回充電站" style="rounded=1;whiteSpace=wrap;html=1;fillColor=#dae8fc;strokeColor=#6c8ebf;" parent="-VoNo1GTi6xVGyqaLVmS-1" vertex="1"><mxGeometry x="451" y="-95" width="120" height="60" as="geometry"/></mxCell><mxCell id="tCrKKw-qxABEY0ADIaY1-44" value="手臂回原位" style="rounded=1;whiteSpace=wrap;html=1;fillColor=#dae8fc;strokeColor=#6c8ebf;" parent="-VoNo1GTi6xVGyqaLVmS-1" vertex="1"><mxGeometry x="621" y="-95" width="120" height="60" as="geometry"/></mxCell><mxCell id="tCrKKw-qxABEY0ADIaY1-46" value="連接正常" style="rounded=1;whiteSpace=wrap;html=1;fillColor=#d5e8d4;strokeColor=#82b366;" parent="-VoNo1GTi6xVGyqaLVmS-1" vertex="1"><mxGeometry x="141" y="-180" width="90" height="60" as="geometry"/></mxCell><mxCell id="tCrKKw-qxABEY0ADIaY1-47" value="無任務" style="rounded=1;whiteSpace=wrap;html=1;fillColor=#d5e8d4;strokeColor=#82b366;" parent="-VoNo1GTi6xVGyqaLVmS-1" vertex="1"><mxGeometry x="241" y="-180" width="90" height="60" as="geometry"/></mxCell><mxCell id="tCrKKw-qxABEY0ADIaY1-50" value="小車" style="rounded=1;whiteSpace=wrap;html=1;" parent="-VoNo1GTi6xVGyqaLVmS-1" vertex="1"><mxGeometry x="61" y="-110" width="70" height="60" as="geometry"/></mxCell><mxCell id="tCrKKw-qxABEY0ADIaY1-51" value="連接正常" style="rounded=1;whiteSpace=wrap;html=1;fillColor=#d5e8d4;strokeColor=#82b366;" parent="-VoNo1GTi6xVGyqaLVmS-1" vertex="1"><mxGeometry x="141" y="-110" width="90" height="60" as="geometry"/></mxCell><mxCell id="tCrKKw-qxABEY0ADIaY1-52" value="任務進行中" style="rounded=1;whiteSpace=wrap;html=1;fillColor=#d5e8d4;strokeColor=#82b366;" parent="-VoNo1GTi6xVGyqaLVmS-1" vertex="1"><mxGeometry x="241" y="-110" width="90" height="60" as="geometry"/></mxCell><mxCell id="rTxTS8pto7_anECKqYQq-0" value="復原模式(手柄)" style="rounded=1;whiteSpace=wrap;html=1;fillColor=#f8cecc;strokeColor=#b85450;" parent="-VoNo1GTi6xVGyqaLVmS-1" vertex="1"><mxGeometry x="621" y="-190" width="120" height="60" as="geometry"/></mxCell><mxCell id="rTxTS8pto7_anECKqYQq-1" value="Schedule n" style="rounded=0;whiteSpace=wrap;html=1;" parent="-VoNo1GTi6xVGyqaLVmS-1" vertex="1"><mxGeometry x="853" y="-590" width="250" height="60" as="geometry"/></mxCell><mxCell id="rTxTS8pto7_anECKqYQq-7" style="edgeStyle=orthogonalEdgeStyle;rounded=0;orthogonalLoop=1;jettySize=auto;html=1;exitX=1;exitY=0.5;exitDx=0;exitDy=0;" parent="-VoNo1GTi6xVGyqaLVmS-1" source="rTxTS8pto7_anECKqYQq-2" edge="1"><mxGeometry relative="1" as="geometry"><mxPoint x="1163" y="-480" as="targetPoint"/></mxGeometry></mxCell><mxCell id="rTxTS8pto7_anECKqYQq-2" value="Schedule n+1" style="rounded=0;whiteSpace=wrap;html=1;" parent="-VoNo1GTi6xVGyqaLVmS-1" vertex="1"><mxGeometry x="853" y="-510" width="250" height="60" as="geometry"/></mxCell><mxCell id="rTxTS8pto7_anECKqYQq-3" value="" style="endArrow=classic;html=1;exitX=1;exitY=0.5;exitDx=0;exitDy=0;entryX=0;entryY=0.5;entryDx=0;entryDy=0;" parent="-VoNo1GTi6xVGyqaLVmS-1" source="rTxTS8pto7_anECKqYQq-1" target="rTxTS8pto7_anECKqYQq-4" edge="1"><mxGeometry width="50" height="50" relative="1" as="geometry"><mxPoint x="1143" y="-530" as="sourcePoint"/><mxPoint x="1233" y="-560" as="targetPoint"/></mxGeometry></mxCell><mxCell id="rTxTS8pto7_anECKqYQq-4" value="Map 1" style="rounded=1;whiteSpace=wrap;html=1;" parent="-VoNo1GTi6xVGyqaLVmS-1" vertex="1"><mxGeometry x="1164" y="-590" width="99" height="60" as="geometry"/></mxCell><mxCell id="rTxTS8pto7_anECKqYQq-6" value="Map 1" style="rounded=1;whiteSpace=wrap;html=1;" parent="-VoNo1GTi6xVGyqaLVmS-1" vertex="1"><mxGeometry x="1164" y="-510" width="99" height="60" as="geometry"/></mxCell><mxCell id="rTxTS8pto7_anECKqYQq-8" value="" style="shape=flexArrow;endArrow=classic;html=1;" parent="-VoNo1GTi6xVGyqaLVmS-1" edge="1"><mxGeometry width="50" height="50" relative="1" as="geometry"><mxPoint x="1293" y="-520" as="sourcePoint"/><mxPoint x="1373" y="-520" as="targetPoint"/></mxGeometry></mxCell><mxCell id="rTxTS8pto7_anECKqYQq-9" value="No need to change map and ugv_int_pos" style="rounded=0;whiteSpace=wrap;html=1;" parent="-VoNo1GTi6xVGyqaLVmS-1" vertex="1"><mxGeometry x="1393" y="-550" width="240" height="60" as="geometry"/></mxCell><mxCell id="rTxTS8pto7_anECKqYQq-10" value="Schedule n" style="rounded=0;whiteSpace=wrap;html=1;" parent="-VoNo1GTi6xVGyqaLVmS-1" vertex="1"><mxGeometry x="853" y="-410" width="250" height="60" as="geometry"/></mxCell><mxCell id="rTxTS8pto7_anECKqYQq-11" style="edgeStyle=orthogonalEdgeStyle;rounded=0;orthogonalLoop=1;jettySize=auto;html=1;exitX=1;exitY=0.5;exitDx=0;exitDy=0;" parent="-VoNo1GTi6xVGyqaLVmS-1" source="rTxTS8pto7_anECKqYQq-12" edge="1"><mxGeometry relative="1" as="geometry"><mxPoint x="1163" y="-300" as="targetPoint"/></mxGeometry></mxCell><mxCell id="rTxTS8pto7_anECKqYQq-12" value="Schedule n+1" style="rounded=0;whiteSpace=wrap;html=1;" parent="-VoNo1GTi6xVGyqaLVmS-1" vertex="1"><mxGeometry x="853" y="-330" width="250" height="60" as="geometry"/></mxCell><mxCell id="rTxTS8pto7_anECKqYQq-13" value="" style="endArrow=classic;html=1;exitX=1;exitY=0.5;exitDx=0;exitDy=0;entryX=0;entryY=0.5;entryDx=0;entryDy=0;" parent="-VoNo1GTi6xVGyqaLVmS-1" source="rTxTS8pto7_anECKqYQq-10" target="rTxTS8pto7_anECKqYQq-14" edge="1"><mxGeometry width="50" height="50" relative="1" as="geometry"><mxPoint x="1143" y="-350" as="sourcePoint"/><mxPoint x="1233" y="-380" as="targetPoint"/></mxGeometry></mxCell><mxCell id="rTxTS8pto7_anECKqYQq-14" value="Map 1" style="rounded=1;whiteSpace=wrap;html=1;" parent="-VoNo1GTi6xVGyqaLVmS-1" vertex="1"><mxGeometry x="1164" y="-410" width="99" height="60" as="geometry"/></mxCell><mxCell id="rTxTS8pto7_anECKqYQq-15" value="Map 3" style="rounded=1;whiteSpace=wrap;html=1;" parent="-VoNo1GTi6xVGyqaLVmS-1" vertex="1"><mxGeometry x="1164" y="-330" width="99" height="60" as="geometry"/></mxCell><mxCell id="rTxTS8pto7_anECKqYQq-16" value="" style="shape=flexArrow;endArrow=classic;html=1;" parent="-VoNo1GTi6xVGyqaLVmS-1" edge="1"><mxGeometry width="50" height="50" relative="1" as="geometry"><mxPoint x="1293" y="-340" as="sourcePoint"/><mxPoint x="1373" y="-340" as="targetPoint"/></mxGeometry></mxCell><mxCell id="rTxTS8pto7_anECKqYQq-17" value="need to change map and ugv_int_pos" style="rounded=0;whiteSpace=wrap;html=1;" parent="-VoNo1GTi6xVGyqaLVmS-1" vertex="1"><mxGeometry x="1393" y="-370" width="240" height="60" as="geometry"/></mxCell><mxCell id="HK0cMk-z44gNT5a_wmOa-19" value="" style="rounded=0;whiteSpace=wrap;html=1;" parent="-VoNo1GTi6xVGyqaLVmS-1" vertex="1"><mxGeometry x="30" y="50" width="770" height="450" as="geometry"/></mxCell><mxCell id="HK0cMk-z44gNT5a_wmOa-20" value="" style="rounded=0;whiteSpace=wrap;html=1;" parent="-VoNo1GTi6xVGyqaLVmS-1" vertex="1"><mxGeometry x="401" y="380" width="381" height="90" as="geometry"/></mxCell><mxCell id="HK0cMk-z44gNT5a_wmOa-21" value="" style="rounded=0;whiteSpace=wrap;html=1;" parent="-VoNo1GTi6xVGyqaLVmS-1" vertex="1"><mxGeometry x="401" y="220" width="380" height="150" as="geometry"/></mxCell><mxCell id="HK0cMk-z44gNT5a_wmOa-22" value="" style="rounded=0;whiteSpace=wrap;html=1;" parent="-VoNo1GTi6xVGyqaLVmS-1" vertex="1"><mxGeometry x="46" y="220" width="305" height="250" as="geometry"/></mxCell><mxCell id="HK0cMk-z44gNT5a_wmOa-23" value="手動模式" style="rounded=1;whiteSpace=wrap;html=1;fillColor=#ffe6cc;strokeColor=#d79b00;" parent="-VoNo1GTi6xVGyqaLVmS-1" vertex="1"><mxGeometry x="621" y="230" width="120" height="60" as="geometry"/></mxCell><mxCell id="HK0cMk-z44gNT5a_wmOa-24" value="自動模式" style="rounded=1;whiteSpace=wrap;html=1;fillColor=#dae8fc;strokeColor=#6c8ebf;" parent="-VoNo1GTi6xVGyqaLVmS-1" vertex="1"><mxGeometry x="451" y="230" width="120" height="60" as="geometry"/></mxCell><mxCell id="HK0cMk-z44gNT5a_wmOa-25" value="復原模式(手臂)" style="rounded=1;whiteSpace=wrap;html=1;fillColor=#f8cecc;strokeColor=#b85450;" parent="-VoNo1GTi6xVGyqaLVmS-1" vertex="1"><mxGeometry x="451" y="300" width="120" height="60" as="geometry"/></mxCell><mxCell id="HK0cMk-z44gNT5a_wmOa-26" value="機器人當前模式: 自動模式" style="rounded=1;whiteSpace=wrap;html=1;fillColor=#dae8fc;strokeColor=#6c8ebf;" parent="-VoNo1GTi6xVGyqaLVmS-1" vertex="1"><mxGeometry x="63.5" y="230" width="270" height="60" as="geometry"/></mxCell><mxCell id="HK0cMk-z44gNT5a_wmOa-27" value="手臂" style="rounded=1;whiteSpace=wrap;html=1;" parent="-VoNo1GTi6xVGyqaLVmS-1" vertex="1"><mxGeometry x="61" y="310" width="70" height="60" as="geometry"/></mxCell><mxCell id="HK0cMk-z44gNT5a_wmOa-28" value="&amp;nbsp; &amp;nbsp;建議：" style="rounded=1;whiteSpace=wrap;html=1;align=left;" parent="-VoNo1GTi6xVGyqaLVmS-1" vertex="1"><mxGeometry x="45" y="120" width="735" height="60" as="geometry"/></mxCell><mxCell id="HK0cMk-z44gNT5a_wmOa-29" value="" style="rounded=0;whiteSpace=wrap;html=1;" parent="-VoNo1GTi6xVGyqaLVmS-1" vertex="1"><mxGeometry x="45" y="70" width="735" height="30" as="geometry"/></mxCell><mxCell id="HK0cMk-z44gNT5a_wmOa-30" value="小車回充電站" style="rounded=1;whiteSpace=wrap;html=1;fillColor=#dae8fc;strokeColor=#6c8ebf;" parent="-VoNo1GTi6xVGyqaLVmS-1" vertex="1"><mxGeometry x="451" y="395" width="120" height="60" as="geometry"/></mxCell><mxCell id="HK0cMk-z44gNT5a_wmOa-31" value="手臂回原位" style="rounded=1;whiteSpace=wrap;html=1;fillColor=#dae8fc;strokeColor=#6c8ebf;" parent="-VoNo1GTi6xVGyqaLVmS-1" vertex="1"><mxGeometry x="621" y="395" width="120" height="60" as="geometry"/></mxCell><mxCell id="HK0cMk-z44gNT5a_wmOa-32" value="未連接" style="rounded=1;whiteSpace=wrap;html=1;fillColor=#f8cecc;strokeColor=#b85450;" parent="-VoNo1GTi6xVGyqaLVmS-1" vertex="1"><mxGeometry x="141" y="310" width="90" height="60" as="geometry"/></mxCell><mxCell id="HK0cMk-z44gNT5a_wmOa-33" value="無任務" style="rounded=1;whiteSpace=wrap;html=1;fillColor=#d5e8d4;strokeColor=#82b366;" parent="-VoNo1GTi6xVGyqaLVmS-1" vertex="1"><mxGeometry x="241" y="310" width="90" height="60" as="geometry"/></mxCell><mxCell id="HK0cMk-z44gNT5a_wmOa-34" value="小車" style="rounded=1;whiteSpace=wrap;html=1;" parent="-VoNo1GTi6xVGyqaLVmS-1" vertex="1"><mxGeometry x="61" y="380" width="70" height="60" as="geometry"/></mxCell><mxCell id="HK0cMk-z44gNT5a_wmOa-38" style="edgeStyle=orthogonalEdgeStyle;rounded=0;orthogonalLoop=1;jettySize=auto;html=1;exitX=0.25;exitY=1;exitDx=0;exitDy=0;entryX=0.531;entryY=-0.006;entryDx=0;entryDy=0;entryPerimeter=0;" parent="-VoNo1GTi6xVGyqaLVmS-1" source="HK0cMk-z44gNT5a_wmOa-35" target="HK0cMk-z44gNT5a_wmOa-39" edge="1"><mxGeometry relative="1" as="geometry"><mxPoint x="140" y="570" as="targetPoint"/><Array as="points"><mxPoint x="164" y="520"/><mxPoint x="147" y="520"/></Array></mxGeometry></mxCell><mxCell id="HK0cMk-z44gNT5a_wmOa-35" value="未連接" style="rounded=1;whiteSpace=wrap;html=1;fillColor=#f8cecc;strokeColor=#b85450;" parent="-VoNo1GTi6xVGyqaLVmS-1" vertex="1"><mxGeometry x="141" y="380" width="90" height="60" as="geometry"/></mxCell><mxCell id="HK0cMk-z44gNT5a_wmOa-41" style="edgeStyle=orthogonalEdgeStyle;rounded=0;orthogonalLoop=1;jettySize=auto;html=1;exitX=0.5;exitY=1;exitDx=0;exitDy=0;entryX=0.5;entryY=0;entryDx=0;entryDy=0;" parent="-VoNo1GTi6xVGyqaLVmS-1" source="HK0cMk-z44gNT5a_wmOa-36" target="HK0cMk-z44gNT5a_wmOa-40" edge="1"><mxGeometry relative="1" as="geometry"><Array as="points"><mxPoint x="286" y="520"/><mxPoint x="405" y="520"/></Array></mxGeometry></mxCell><mxCell id="HK0cMk-z44gNT5a_wmOa-36" value="任務進行中" style="rounded=1;whiteSpace=wrap;html=1;fillColor=#d5e8d4;strokeColor=#82b366;" parent="-VoNo1GTi6xVGyqaLVmS-1" vertex="1"><mxGeometry x="241" y="380" width="90" height="60" as="geometry"/></mxCell><mxCell id="HK0cMk-z44gNT5a_wmOa-47" style="edgeStyle=orthogonalEdgeStyle;rounded=0;orthogonalLoop=1;jettySize=auto;html=1;exitX=1;exitY=0.5;exitDx=0;exitDy=0;entryX=0;entryY=0.5;entryDx=0;entryDy=0;" parent="-VoNo1GTi6xVGyqaLVmS-1" source="HK0cMk-z44gNT5a_wmOa-37" target="HK0cMk-z44gNT5a_wmOa-46" edge="1"><mxGeometry relative="1" as="geometry"/></mxCell><mxCell id="HK0cMk-z44gNT5a_wmOa-37" value="復原模式(手柄)" style="rounded=1;whiteSpace=wrap;html=1;fillColor=#f8cecc;strokeColor=#b85450;" parent="-VoNo1GTi6xVGyqaLVmS-1" vertex="1"><mxGeometry x="621" y="300" width="120" height="60" as="geometry"/></mxCell><mxCell id="HK0cMk-z44gNT5a_wmOa-42" style="edgeStyle=orthogonalEdgeStyle;rounded=0;orthogonalLoop=1;jettySize=auto;html=1;exitX=0.25;exitY=1;exitDx=0;exitDy=0;" parent="-VoNo1GTi6xVGyqaLVmS-1" source="HK0cMk-z44gNT5a_wmOa-39" target="HK0cMk-z44gNT5a_wmOa-43" edge="1"><mxGeometry relative="1" as="geometry"><mxPoint x="10" y="660" as="targetPoint"/></mxGeometry></mxCell><mxCell id="HK0cMk-z44gNT5a_wmOa-39" value="Front end should check column &quot;connection_status&quot; in table &quot;sys_status_device&quot; where ID == 2&amp;nbsp;" style="rounded=0;whiteSpace=wrap;html=1;" parent="-VoNo1GTi6xVGyqaLVmS-1" vertex="1"><mxGeometry x="30" y="540" width="220" height="60" as="geometry"/></mxCell><mxCell id="HK0cMk-z44gNT5a_wmOa-45" style="edgeStyle=orthogonalEdgeStyle;rounded=0;orthogonalLoop=1;jettySize=auto;html=1;exitX=0.25;exitY=1;exitDx=0;exitDy=0;" parent="-VoNo1GTi6xVGyqaLVmS-1" source="HK0cMk-z44gNT5a_wmOa-40" target="HK0cMk-z44gNT5a_wmOa-44" edge="1"><mxGeometry relative="1" as="geometry"/></mxCell><mxCell id="HK0cMk-z44gNT5a_wmOa-40" value="Front end should check&amp;nbsp;column &quot;mission_status&quot; in table &quot;sys_status_device&quot; where ID == 2&amp;nbsp;" style="rounded=0;whiteSpace=wrap;html=1;" parent="-VoNo1GTi6xVGyqaLVmS-1" vertex="1"><mxGeometry x="290" y="540" width="230" height="60" as="geometry"/></mxCell><mxCell id="HK0cMk-z44gNT5a_wmOa-43" value="DataType is defined in table &quot;data_device_ConnectionStatus&quot;" style="rounded=0;whiteSpace=wrap;html=1;" parent="-VoNo1GTi6xVGyqaLVmS-1" vertex="1"><mxGeometry x="30" y="630" width="230" height="60" as="geometry"/></mxCell><mxCell id="HK0cMk-z44gNT5a_wmOa-44" value="DataType is defined in table &quot;data_device_MissionStatus&quot;" style="rounded=0;whiteSpace=wrap;html=1;" parent="-VoNo1GTi6xVGyqaLVmS-1" vertex="1"><mxGeometry x="289" y="630" width="231" height="60" as="geometry"/></mxCell><mxCell id="HK0cMk-z44gNT5a_wmOa-46" value="Front end should set &quot;connection_status&quot; = 0 in table &quot;sys_status_device&quot; where ID == 5&amp;nbsp;" style="rounded=0;whiteSpace=wrap;html=1;" parent="-VoNo1GTi6xVGyqaLVmS-1" vertex="1"><mxGeometry x="840" y="310" width="252" height="60" as="geometry"/></mxCell><mxCell id="b55PZlyu_amEx7Wc4jDn-0" value="" style="rounded=0;whiteSpace=wrap;html=1;" parent="-VoNo1GTi6xVGyqaLVmS-1" vertex="1"><mxGeometry x="853" y="590" width="770" height="470" as="geometry"/></mxCell><mxCell id="b55PZlyu_amEx7Wc4jDn-25" style="edgeStyle=orthogonalEdgeStyle;rounded=0;orthogonalLoop=1;jettySize=auto;html=1;exitX=0;exitY=0.25;exitDx=0;exitDy=0;entryX=1;entryY=0.5;entryDx=0;entryDy=0;startArrow=oval;startFill=1;" parent="-VoNo1GTi6xVGyqaLVmS-1" source="b55PZlyu_amEx7Wc4jDn-121" target="b55PZlyu_amEx7Wc4jDn-19" edge="1"><mxGeometry relative="1" as="geometry"><mxPoint x="884" y="880" as="sourcePoint"/></mxGeometry></mxCell><mxCell id="b55PZlyu_amEx7Wc4jDn-9" value="&amp;nbsp; &amp;nbsp;建議：" style="rounded=1;whiteSpace=wrap;html=1;align=left;" parent="-VoNo1GTi6xVGyqaLVmS-1" vertex="1"><mxGeometry x="868" y="660" width="735" height="60" as="geometry"/></mxCell><mxCell id="b55PZlyu_amEx7Wc4jDn-10" value="" style="rounded=0;whiteSpace=wrap;html=1;" parent="-VoNo1GTi6xVGyqaLVmS-1" vertex="1"><mxGeometry x="868" y="610" width="735" height="30" as="geometry"/></mxCell><mxCell id="b55PZlyu_amEx7Wc4jDn-43" style="edgeStyle=orthogonalEdgeStyle;rounded=0;orthogonalLoop=1;jettySize=auto;html=1;exitX=1;exitY=1;exitDx=0;exitDy=0;entryX=0.25;entryY=0;entryDx=0;entryDy=0;startArrow=oval;startFill=1;" parent="-VoNo1GTi6xVGyqaLVmS-1" source="b55PZlyu_amEx7Wc4jDn-116" target="b55PZlyu_amEx7Wc4jDn-42" edge="1"><mxGeometry relative="1" as="geometry"><mxPoint x="1154" y="910" as="sourcePoint"/><Array as="points"><mxPoint x="1204" y="915"/></Array></mxGeometry></mxCell><mxCell id="b55PZlyu_amEx7Wc4jDn-23" style="edgeStyle=orthogonalEdgeStyle;rounded=0;orthogonalLoop=1;jettySize=auto;html=1;exitX=0;exitY=1;exitDx=0;exitDy=0;startArrow=oval;startFill=1;" parent="-VoNo1GTi6xVGyqaLVmS-1" source="b55PZlyu_amEx7Wc4jDn-117" target="b55PZlyu_amEx7Wc4jDn-22" edge="1"><mxGeometry relative="1" as="geometry"><mxPoint x="830" y="949.8333333333335" as="targetPoint"/><mxPoint x="884" y="980" as="sourcePoint"/><Array as="points"><mxPoint x="886" y="980"/><mxPoint x="735" y="980"/></Array></mxGeometry></mxCell><mxCell id="b55PZlyu_amEx7Wc4jDn-32" style="edgeStyle=orthogonalEdgeStyle;rounded=0;orthogonalLoop=1;jettySize=auto;html=1;entryX=0.75;entryY=0;entryDx=0;entryDy=0;startArrow=oval;startFill=1;exitX=0;exitY=1;exitDx=0;exitDy=0;" parent="-VoNo1GTi6xVGyqaLVmS-1" source="b55PZlyu_amEx7Wc4jDn-118" target="b55PZlyu_amEx7Wc4jDn-27" edge="1"><mxGeometry relative="1" as="geometry"><mxPoint x="974.8000000000002" y="981.8000000000002" as="sourcePoint"/><Array as="points"><mxPoint x="966" y="1060"/><mxPoint x="904" y="1060"/></Array></mxGeometry></mxCell><mxCell id="b55PZlyu_amEx7Wc4jDn-19" value="Front end should check table &quot;sys_status_device&quot; where &quot;device&quot; == &quot;arm&quot;" style="rounded=0;whiteSpace=wrap;html=1;" parent="-VoNo1GTi6xVGyqaLVmS-1" vertex="1"><mxGeometry x="680" y="850" width="110" height="120" as="geometry"/></mxCell><mxCell id="b55PZlyu_amEx7Wc4jDn-22" value="Front end should check table &quot;sys_status_device&quot; where &quot;device&quot; == &quot;ugv&quot;" style="rounded=0;whiteSpace=wrap;html=1;" parent="-VoNo1GTi6xVGyqaLVmS-1" vertex="1"><mxGeometry x="680" y="1000" width="110" height="130" as="geometry"/></mxCell><mxCell id="b55PZlyu_amEx7Wc4jDn-26" style="edgeStyle=orthogonalEdgeStyle;rounded=0;orthogonalLoop=1;jettySize=auto;html=1;exitX=0.5;exitY=1;exitDx=0;exitDy=0;" parent="-VoNo1GTi6xVGyqaLVmS-1" source="b55PZlyu_amEx7Wc4jDn-27" target="b55PZlyu_amEx7Wc4jDn-30" edge="1"><mxGeometry relative="1" as="geometry"><mxPoint x="934" y="1200" as="targetPoint"/></mxGeometry></mxCell><mxCell id="b55PZlyu_amEx7Wc4jDn-27" value="Front end should check column &quot;connection_status&quot; in table &quot;sys_status_device&quot; &lt;font color=&quot;#ff3399&quot;&gt;where &quot;device&quot; == &quot;ugv&quot;&lt;/font&gt;" style="rounded=0;whiteSpace=wrap;html=1;" parent="-VoNo1GTi6xVGyqaLVmS-1" vertex="1"><mxGeometry x="810" y="1080" width="126" height="140" as="geometry"/></mxCell><mxCell id="b55PZlyu_amEx7Wc4jDn-45" value="" style="edgeStyle=orthogonalEdgeStyle;rounded=0;orthogonalLoop=1;jettySize=auto;html=1;startArrow=oval;startFill=1;" parent="-VoNo1GTi6xVGyqaLVmS-1" source="b55PZlyu_amEx7Wc4jDn-29" target="b55PZlyu_amEx7Wc4jDn-31" edge="1"><mxGeometry relative="1" as="geometry"/></mxCell><mxCell id="b55PZlyu_amEx7Wc4jDn-29" value="Front end should check&amp;nbsp;column &quot;mission_status&quot; in table &quot;sys_status_device&quot; &lt;font color=&quot;#ff3399&quot;&gt;where &quot;device&quot; == &quot;ugv&quot;&amp;nbsp;&lt;/font&gt;" style="rounded=0;whiteSpace=wrap;html=1;" parent="-VoNo1GTi6xVGyqaLVmS-1" vertex="1"><mxGeometry x="980" y="1080" width="128" height="140" as="geometry"/></mxCell><mxCell id="b55PZlyu_amEx7Wc4jDn-30" value="DataType is defined in table &quot;data_device_ConnectionStatus&quot;" style="rounded=0;whiteSpace=wrap;html=1;" parent="-VoNo1GTi6xVGyqaLVmS-1" vertex="1"><mxGeometry x="780" y="1260" width="184" height="60" as="geometry"/></mxCell><mxCell id="b55PZlyu_amEx7Wc4jDn-48" style="edgeStyle=orthogonalEdgeStyle;rounded=0;orthogonalLoop=1;jettySize=auto;html=1;exitX=0.5;exitY=1;exitDx=0;exitDy=0;startArrow=oval;startFill=1;" parent="-VoNo1GTi6xVGyqaLVmS-1" source="b55PZlyu_amEx7Wc4jDn-31" target="b55PZlyu_amEx7Wc4jDn-47" edge="1"><mxGeometry relative="1" as="geometry"/></mxCell><mxCell id="b55PZlyu_amEx7Wc4jDn-31" value="DataType is defined in table &quot;data_device_MissionStatus&quot;.&lt;br&gt;&lt;font color=&quot;#ff3399&quot;&gt;Please check column &quot;description&quot; for chinese character.&lt;/font&gt;" style="rounded=0;whiteSpace=wrap;html=1;" parent="-VoNo1GTi6xVGyqaLVmS-1" vertex="1"><mxGeometry x="1040" y="1270" width="190" height="60" as="geometry"/></mxCell><mxCell id="b55PZlyu_amEx7Wc4jDn-35" value="Front end should check column &quot;connection_status&quot; in table &quot;sys_status_device&quot; &lt;font color=&quot;#ff3399&quot;&gt;where &quot;device&quot; == &quot;arm&quot;&lt;/font&gt;" style="rounded=0;whiteSpace=wrap;html=1;" parent="-VoNo1GTi6xVGyqaLVmS-1" vertex="1"><mxGeometry x="680" y="690" width="130" height="130" as="geometry"/></mxCell><mxCell id="b55PZlyu_amEx7Wc4jDn-40" style="edgeStyle=orthogonalEdgeStyle;rounded=0;orthogonalLoop=1;jettySize=auto;html=1;startArrow=oval;startFill=1;exitX=0;exitY=0;exitDx=0;exitDy=0;entryX=1;entryY=1;entryDx=0;entryDy=0;" parent="-VoNo1GTi6xVGyqaLVmS-1" source="b55PZlyu_amEx7Wc4jDn-115" target="b55PZlyu_amEx7Wc4jDn-35" edge="1"><mxGeometry relative="1" as="geometry"><mxPoint x="964" y="850" as="sourcePoint"/><Array as="points"><mxPoint x="964" y="855"/><mxPoint x="964" y="850"/><mxPoint x="810" y="850"/></Array></mxGeometry></mxCell><mxCell id="b55PZlyu_amEx7Wc4jDn-44" style="edgeStyle=orthogonalEdgeStyle;rounded=0;orthogonalLoop=1;jettySize=auto;html=1;exitX=0.5;exitY=1;exitDx=0;exitDy=0;entryX=0.5;entryY=0;entryDx=0;entryDy=0;startArrow=oval;startFill=1;" parent="-VoNo1GTi6xVGyqaLVmS-1" source="b55PZlyu_amEx7Wc4jDn-42" target="b55PZlyu_amEx7Wc4jDn-31" edge="1"><mxGeometry relative="1" as="geometry"/></mxCell><mxCell id="b55PZlyu_amEx7Wc4jDn-42" value="Front end should check&amp;nbsp;column &quot;mission_status&quot; in table &quot;sys_status_device&quot; &lt;font color=&quot;#ff3399&quot;&gt;where &quot;device&quot; == &quot;arm&quot;&amp;nbsp;&lt;/font&gt;" style="rounded=0;whiteSpace=wrap;html=1;" parent="-VoNo1GTi6xVGyqaLVmS-1" vertex="1"><mxGeometry x="1171.5" y="1080" width="128" height="140" as="geometry"/></mxCell><mxCell id="b55PZlyu_amEx7Wc4jDn-47" value="" style="shape=image;verticalLabelPosition=bottom;labelBackgroundColor=#ffffff;verticalAlign=top;aspect=fixed;imageAspect=0;image=data:image/png,iVBORw0KGgoAAAANSUhEUgAAAckAAAEuCAYAAADlfulLAAAgAElEQVR4Aey9B1gV19q/fb73/N83PTHJSW8niUlMTExRYxK7sffeC/ZeYpciKoKAiopYsAsiIKJiAVGxgAgiSC8qvffe2/1du8GmbNgiKGyG61rs2TOrPb/17LlnrVkz618jp84lOdqclBgz0mOPC0HQQPABwQcEHxB8oNX4QEGaFeRdUBj+1X3YIowOXWPf0YucOXMGe3v7ZhXMzc2bVX2amz5CfZqXvwrtIbSH4AMtywdCQ0Op668KJJ2dncnLy6OgoKDZBEtLy2ZTl+akS1PWJScnB1FoyjKEvJvPb+x5tEVmZib5+fmCTzWjc+vzaPfmXobsPPdUkCwqKqor/nM/ZmVl9dzLbO0F5ubmIgrCn6BAYymQkpJCWVlZY2Un5CMo0CgKiM5zIlDW9VejJylAsi65WscxAZKto52fp5UCJJ+n2kJZyiogQFJZpYR4VRQQIFlFDuFLIyggQLIRRBSyaHQFBEg2uqStI0MBkq2jnZ+nlQIkn6faQlnKKtB6IJnlj812Y6zuhJJZLJUn+QbaU6cyZcqUamEVu065k6isiq0wnlKQLM0nwes066YsZtOu60TXqVMqTjsWMnOmDk7J0oi5iXjbGrBSdz/3YutMrNzBmLsYb/mH7Xb+JOcpl6RhsfJ4cseMrYvl/GrHJaLSChqWXStJ9WyQDOTE3NkY3pA5zwsWLSWQc/s10T7qwOP0RqyLvzlqs+diFdSIeQpZ1alA64Fk0nU0B49n3fH7JMrOVeEH6PbKa4zddoUrVyqDzf7tLJ00kF4ztDjlEkZ+nRK2zoNKQbIki8cXV9P+Xy/RrvdczkfUoVXyJWZ904aXX+6BqSxeeiiXNw2gbZ+pnA6sI62yh/zNGdf9KwbrXiMiU9lETxkvPxqXU9rMUluKwUHrCr86uWsV6paeZOSXijMsyc/C0WgSi3ffJu0pixBFz0sOw8ZwDprH3cloQPrmmOTZIHmTJW+9zqAD4c3DtEgnNk/tyB/zduHagAu8mLvH0NLexkWfWArlLbq+gpdeb8P6W/I7he2mVKDVQ7LH62+xrprDlealExV8Cf354+jRaxnm7hECKKt5ofKQ1KTHuz/Sfco0ltsoftbIx6QvX3RqT4dXelVCsqSA9OhAvAIek9IYPb+8ZEL8vQiKyaBQwqpqVj371xTf86xbPIJlpndIyS2pyLAoNYxHcZkUl5aL9xXlpHBkxn/oMOs0cRWxlN/IivZGf3Jb+q+/SJLyyZp1TJWCZGEm0Y998QuNJ7sBDwOEnF3LwMHjMXZ6RBXXz4zAzf0+kU11kdesPeTFVE6AZC2QlDRFMdkPzJjV/1eGbbIhuCGX+y+mTZ9LqcpDciND2w9hyfoVTFbbg0etQ08+GHQZwLq9G+jxep9KSD4XSxqzkHxCru1m0fQp7HOue9hPgGRN3VUKkjXNe6o9CiH5VLkIkRtDAeUgObLyjTuilwm0yEdAFAy31taTrBC2JAH7bRPpNHEDDgEpFbuFDcTPSIqcp84/8XDrRob/rsb2U3tZMmkS++7WcrXhacSvgzdz220nvd+Ug2RmBNd3LGCA2g7uplaWFGS1gqGdP+TDD0VhNtaxGcj6bPkp4RyeKTvWhclrz1LRfw0+y9yRk1lr7U2y3NV9SUE21gtlaT7kw+97M2dPtWHQAAumDFzNwQcROBn2oN2Xovgf882P0zlTMZyWS5DDDsZ068WKY/fJqqxyla3Sm+p8+MEHvPXK//D/XmnD+x9+yA99p2DiLDUy9AprJneX2icqpzfbXOIlvd+SAmKsF/LB+//hjVf+zUuvvS1O/8vof7DyyuDR+Q2MmbwYiwdRVYbpikIOMPL7X9juXlmVBM+zrB0ms3sI2lYPqBvtlWmbYkt5SKZxe/dsen0vq/tszsSeZ0Etw62J3hdQHyGL9yEjNc3xrdb1dt74PR99JIrTli59jXhY3biwq2yY1qOiPXppXiQmQzKxIf/qWr79cQqm95zQ6PUhH7brwcydN0mNcWHnEjXUtl0gJFuSYcLF9XT7ZSln4jK4tqGtNL//0qnPSq4kSAuNvYfx8oG81+Y1XnrpZd585z0++PBDems7kJBVDM4b+fKbCVhUu8Ef73GaVYMr7fzwryU1fCD/6jp++GULTgkh7J8ui9uekUtNeaAqY/bV264RvguQVNiTFKlbTuDppfQePJUjruHIbmU2gu4tPoun6UkO77IYO28vjumuZs7uW6RKRhwlGpTHYjW/C0tOBpARbEofeUiK70lOpOOITdwUn73TuLN3Lt16TGGfUxAZojeThJ5ikoY9eYUl5Gd6oNX9EzrNNSdCdCw1kPNnzThy8YmkLPE9yYEsOOFBovRGT1mxA7Pfep9vJxwmVPqmk2iPs6zq+zPj11jzSDo8is8RBnfuz88dP2KuuR/JWQXk5mRgNv1t2v6sjas0XnmsGyaLe/JylynscAihoKiEMnl7RTUpKyYrNZYDU9/lpxknCS8ooLCoiBJRxAwvjpw8zYVbYRVvnrmz9U+++M/v6HpkIMqqvLSY5Cf32Trha/qutiVanL6Y0jKRvy6m96ApHK7mr4UBO+j+zsdoO4sqUEC46xHUevyBmtE14kV2x95Ef58Nd/2qEUSi3HP5rwwky0sfYb16HB36reLcg2iJRk/MmfTNh7z0739X3pMszyfC7Tgzh/dj6SlvSby4mxhM6UmP2SZ4RIkGMaM5PvEb3u25lSDRm35yUghyNmXVXi+xveVlpTy5upNpf3zLhM02+KVI3oDkYriEQw+iySuFPLsF/N9LHekzphM77hZQUFhIcUkZ5eJ7kiMYoW5FgPRqKfbMIr77+A86//UeS+xSxHXKSQjFZmUn2v45lEMPSykvL6OkuAhfy5X0HzgGIwc/0goKKBLlKarV9RW8+mY/jkjv25eXp+Blq0XfL3qyYK8TCVIffnB4Bl2/GcqOu0/IlvqfpK6d6Dfud3a6SmwJdznBoh6/ME3bjvAajvpcmr3ZFyJAsk5IQvLNnYyYsLzGSafZt2wTV/BpIXkxPhl38/XMH7eS88Gyfh+URlozt+sarEISKQqvD5Jh2Kweg9oCE9yii6n6bpZyclJsmP/pV2g45CCbwFxFhhqQLOLS/Hd4d9ihajNv8wi2387oYaPQPh+M+PalGJJf0nG1LZHpstxLyYy3ZOanbZlvFVNZVMxdjJb25903X+WbUeqcuxdBZn5xFVg+3XCrOxvbfUSXze4VeSi6J6kcJDPwu6LDnJ7jOfYgv6IXXmnAi9mqH5KlBJ/TYuTQMexwCK56r+7uRj547WUpJMvJi/Pl8KrhjNziiNwgBClO2xk8ZhmH7kWQX+6OVruPmHowgoLqFzKUk+5zntXDuzJivQWBCoYF8uzm8f+99h866sl10UXyKYTkW/yle4+8okrvzYp8gMG0nxi84WLFjHqFw61VIFlOcqAj68f8zCTDW9UmgCVzeX1fvhqnj29cthiweXZzeanNp8y0rBj6AOK4tXcRowYtEY9EvJiWb96lCpCsB5IJ1/QZNmkFx90iqwxfNe9mbfraPT0kIefRVTZprGLz2UApxAoIPraCOcbXiRINX9ULyUw8zFcz4KteLDO25V5gKInZRVJwlFOQ7ceOYd/w04/LsQ4MJiwqCbm5M1AdksXXWPjumww1jaohWE6QPZqjRzFN5zKRoqNiSA5h1bkAKhhJObkprmj3/xo18+qzKkV11WBC96/56I0fmGZ4Ft/EAkql58Z6IVmYSUzEYwIDAwkMdGJr/494eaY1ZeWSs/mzQbKQmIeWLP3zN4ZM2Y594COikzIprDxv19DjeeyoF5JlYZzfOIlhY7RwCKr+mjD52a1FxPtbsfzv35i//45UQ5GOgQRe2MaAjn2kowkJ2K74k0/+bxSH/QMIeRRd+XgYWfie12H4kHHoO8imW9dUQQTJ1979Cl23ascUQrInW92SkGMkZIZzdetsuo3bh490QplSkCzPJOiaDmN/HojBzZq3MZIur+O3L6dhGpwgPneJepJtPhjL6Xj5umbz8IwWM9QWcspD/nJCPk7r3hYgWSck8/Ewncvfs9W5Gig4kPxPpSGQJDecS/qbWL/5FAG5pZB7l83jl2JyJQTR7Zb6ISmqQQRXdFcwpuvP/Pet9kwztOJaUJJ4qBGKSY+5xPquXfi1fXs6/TmDPU6BRKZKH+KpDsnIYwxs8xpLr9ZCh5i77Jw7txok57LTNZTK07MEkut6fU5X/epnSZlaodiun8lfH75O/03XicmRnAUVQbIkJ5lQfw/untnD7ClD+aNrV7p27UTbd1/if2Y0FiRFdUsn4KoJ87t24vvP2zNg+ibM3cNJy5X1kmX1f36f9UIy05ujywcyep4RrnIdd0kN5SGZS8T93Yx4vQ1f/yLSr3qYyHb7INLEpnqzZ1A//uzyA1+91wOti574x4paOJG7R1cwvu98Tnkp6EaKHsWxW8Bb7w/jZPXrLIWQnMbJ6LSqvXcxJCfx6xAtZI95KgXJwiQ8zRcx4K/RnPCrpZ0e7OHP7+fKQXIh7368BvGIe0V0CSQHjpjMruuKLwYqorfCDQGSdUCyON2N3dOHM37FMXwqHq5shV5Si8kNgqTo1ON6iPUbVnHsbjxpdwyYtO0UnlFS7NTbk5SviAg+ixn5y6e83HcLfilyM3HIJeqhFet6/cF3v/dlwcG7iOdZVIdkkhVj336dmbaV2JOVUBJxi23TpzcCJEU5pnFdqx+f/7KUq/FZ4uHb2iGZT7i9ETP6dabTeB0u+sqekYvm2NjPeXVWY0JSZmkS90/vYO6f7fmomxoHb4ZS0ESPx8hKVPRZLyRzAzBfPZyRM/S5HVE5ZC/JryYkZ/78N7vdqjxlqKhoinJd0R/Ql84/f88fq2xJLEzB3Xwd88Yv41yQ4guHxoBkWdoTLmiMofMIPVykj3YoBcniFHxsVjH09+EcfFDTzgIXfbp8O0uApMJWV+6AAElFkCxKw/uUBiP7zmLnlWCFMxWVk1n1YjUUkiR7sV9Hm61HbDiiMYetp28RLZsk+1SQlGiaen4Rn7zTFX0fWSaVWheE32H7tD78PX+/5NGT6pAkmO2d2/DrujtyvUNR+hIS3M1ZNXYca47cRzyvWTzc2pCepKQ+okkb7dovxDY2QzEki59wftNEho/VxD5E7hUWeZ7o9PpYqeHWsPPr6N97Esa3HiOvSMq15bSvmLhTqZFsK9v9EBO79mTWgTvEyBUtO/48PuuFJPFc2z6bAQMWcco9oWpvLPEUg998TXpPspA4XwsWdvyFecYPlH7ZQmlOIje0+9P2j8VcjC8g/NYBlk2agv75kCpaymvx9JDsybYHSRRX3AMtIyvSDcMpPRiw3BbZ3UKlIIloctJh5nTrzirLkGq3gwrwNVWja+/1XIqQ9Fzz7ISepHzbKbstQLIGJItJi/Dk8oG1LJ87g5W7rhCUUPMqTVmBVTVegyFJPkFnd7NhzgD6DNXG8l5k5QSMeiGZyePHkcTHV/b84iyn8/G3k7CMyKe4OBI3N9lpBnIf30B35kBGa1jzSDSZsQYkIcR2Cr/+MIntVwIrQJmXHIT15ulMn78Zxwjpo9xKQbKY9MiHuN25Q7j8lPrccC5sGErPhScJSC8UT6Iozk3DenFbvhtqgJeMZvmi4eipDBm5DEuvVOl920QeHFzG72+/xv9Mr+xJ5sYFYDLzJ7rONiVQDmo5j21Y3nco47edJyxT6rcxd9Ea3ZZXKyBZSEpKJIGBlY81pbvsYeyAkWyw9iRFccepSd25fkjmE3FrH7MGD2TCljMEy94wEXef42sH8fJL/1cxuzU/KYiTy7rR6a8lnPCKrpyZnhqMW0AEidminmg89+5FUlwsGW4vyY7HXqs3Pw3Xwz0LCuLdMFkwgSFDtDjnG1MBygRPJ3wTs8Wge3pIvkrHqQdwT5L0hIvzUnE+soSR/SdjKDeGHHVFh+F9BqNp40WqfKe5ysQdyE3y47jmCIaM34Kdb1wFKFMCbNAY/jcLDt8mUTQNVzw0LECyIQ7c6iHZ9aVX6DZzC1u2yIImS5bNR23OQg7a3qp6smuIwiqapuGQhPxoRzaP7cOo1Wb4JskNk9YLyTT8b13ARE+vor1mL5rJBpOrJBSVUJQfwJntOyqOrVm/mkXqulz0iJS8MakWSEIoZ9UXM6TPCFZJfWDt+jUsXKaBpUNA5YxBpSBZRPJjV2z3aaOvL/OnLWxZo8kGdU1O308gXwqgsuICgu30Gd/zNyau3sJ209O4hqcR62PFugkjGT9pMZri+mzHcOMqRn7/Fv+rVgnJktxU3E5oMLZ/d6av3YLRyYv4xIpomYzXCQ0G9B3P4hUbJFqoq7NoQT++roBkPolhLpwwMKjQauk/i/lH7wgeEWm1zwx+Dn5cPySB/BjcLDYydOAYZi1cK7VPg2Va0+j88ksVkKQkhxjRkPvUMQzpr8Z62e/bQB/jS17Eil/gHM31IwfR3aIjzkdroxazly/j0OUAJI82ZhHqeoGtEyYwRW0mq6V5bDfch1NYhnjyzdNDsiMjli9j/T+bxWVqqm9AbdJUDE+6IXtUUiR1XuR9TJaMYPgUNVZqbeGgYwjZoplV1SAJecQH2rNt9nQmTZrFBmkdFy1fwKq1B3GNTkf2CxN6kg1z4tYDybwoXM9fxiUggTzZlVmmL5a7dmFkZFQ1HLflzqOas8UaJrFqplIKkmVFZITdw+60E2Gy3pJYjgxCbt7inmek3GxCINMPGxMb/GTzJAoyCHe7goWdG9Gy3lLaIxxtj1e210UfsgukDVpaTIb/lcpjR625EVTZWyIliMvW57gRmCh+xk3WMqXFybiekvOBI1Y4yvWyxPGS/TlvcR3PuIwqECnOj8PlzGGsPCqnDIpmnjpYyOVnZMuDmMqTlazc4rwMHtpJ4u03P8+DKJGRmTxxucyJCp88z8PEWHwuHcbY8ZHkWTlpBgXpMbjaStIfOuNIQIL0Sd68CO6cOYGJLA8LN5KTHmC9/1Dli+LzUgi6c6ZSK8vrBMRV9tBldXyen0pBUlSh/BjcL1qwX2af+R1i80Jx2reXc77y72vLJzHEBWtZPNGn9S0eJco5Y8xd9pvskehgchBz95ovCUwPdeXCycr2tPOMRza/qST0BvsOXiBQ+sKACr2yonFzsMPubgipUkpJnpMUTdzxxdHEWFKm8QHMroVUjGJUpAdSgq5jfVRSrtntUHJEkIy6jbGJLf6y34g4QTEpYR7YHamso5GNM+Epsh+NJNeSUCf2H3KuGNKV7C0i6ZEr5+zs8Yqqkql8VVr1duuBZKtu5sY3XilINn6xQo4qrIDSkGyhGlRCstrs1hZqT2uptgDJ1tLSjWynAMlGFlTIDgGSghM0RwWUhOQSjA5dY9/Ri7TYd7c2R/VbcJ0ESLbgxmumVRcg2UwbppVXS0lILhUg2codpbr5AiSrKyJ8f1YFVB2SxZmxhARGk15cWuXe8rPqJqRvWgWUgmTvkQIkm7YZWl7uAiRbXps19xqrOiSbu/5C/WpXoEGQLCwspLy8vNkEKyurZlOX5qRLU9YlJycHUWjKMoS8m89v7Hm0RXJyMqWlopUwWpfdgr3Nu71l57raESrZ+y/5nqSFhQXW1tbNKpiZmTWr+jQ3fYT6NC9/Fdqj9vYQXewK2tSujaDLi9VF9HL8uv6qQFKYuFOXVK3nWIF03brWY7FgaVMrkJWVRVlZLS+bb+qChfwFBepQQDRyKjrf1fUnQLIudVrpMQGSrbThm9BsAZJNKK6QdYMVECDZYOlad0IBkq27/ZvCegGSTaGqkOezKiBA8lkVbKXpBUi20oZvQrMFSDahuELWDVZAgGSDpWvdCQVItu72bwrrBUg2hapCns+qgADJZ1WwlaYXINlKG74JzRYg2YTiClk3WAEVh2QBMQ+vcEh3LWvXisIhnB4nVq4t12DZhITKQrIkN4WH53eydpMR5jcfVazJV1XBTDxPG7DxzENKSkWr0ZaRlxaC3aGdHJNbY08+TXagPXsNLLkXnylelaO8vAwfG022nVK8yG7CQ1sOHLXGMya96oK98hkL2y9MAWUhmRvmgtneLazdboN3XGYtbVlKdqI/tof3YFGxqkc+4ffOss/cDt/Y6kt2QHlJEWGOBzHYfYNoqQKZER6cNTPlkmeUwnNG4Dkttpy4r/TCzi9MXKHgBiugwpAsJNb7HBtXzGLJBl1MTU3RnDqcMZM3Yx+RWrHGWoOVa+UJlYNkGZmRzmzu+zb/eukbhiw/Q0RtuqXfZs2fn9LLwJMiESTLCoh128PYTp1Yezm5lhTZ3DOaRPu+a7n6JFV8kiwr9Wdjh7fouflercsOQSL2G8fRd5wWjsFpSJahrSVrYdcLU0A5SObia76a3l+9zL/ajMLkXljNC6/SHEKd9BnzVw+0HVMl9uSFYLl+JINm63MzVLqQtpylxXlhHJjwHT/MPEOSeH8WPrZbmDRgHDuvhis4XwSj++sbdNFwUeBzcgUImy1WAZWFZEH8Q46ums7ohbu5kyBZPy4jzIGtY3oxa/9NknKF0+SzeK1SkCzNJeLWLkZ98S0dOnzDr8PX4hhbs9TUG5p0/qQ/Rj5piBhZmp/OXeMJ/DF6Kx7pNeOTeR/D8Z0ZuOEcYWmStSRLvfVo99bv6HnUPAGKc4i7jvqYwUzYfJ5H6ULb16LqC9+lFCRzAjjxjxqDf/2W9977GrXD7iRWXTaR0px4rm0dxR891+GUITErN+g8a2ZNYfWhW8TX8shb3uNjjGn7GfPPSdcfzQzmjPY0+k/YwrUo2bLF1STy30H7N35hk7vc+pTVoghfW74CKgrJQiLvHmXlpHFsPf9Esiq9uK2KCDoyk84TDbgXn43w2HLDHVgZSJbmJuOkO4pOP89EfdMo2v48lM32ssEsWdmpXF3fi4+HGBCQlk855eSnebNr/E9M3O9PoSya3GfGPWNGdxyKpp0f6dL1lj02t+OtP7fwsJYToChptKMuowaPZqudLxkCI+XUbD6bykAy29eKZQPHsXD1Ekb89Q1fTD1IUIL8hVEZ2XGubBregd4a15AMrOYSYLuJmXNXcup+Uq2jCCGmo/jyczUuSqGaHmiP5pSeTNa9TExx7Rp5b/uFNzqp41kN0rXHFva2VAVUFJJpPLTdyLxhs7EKkJ5FpS1UfNeAjj8twiwsucoK8y21AV9UveuHZBk5SfcxGN2BGXtdeeCwnWFtf2Ki1qWKez7iuidfY1X3ASw+7UtWUTmUl5LmtZcx7UdwOLi2K/gMXHZN47fha7gSIDvheaL51Rt03+ajYFgsFvstUxkyRp3L/unCxdGLcpp6yq0fkjl4n17PDLWVnHZ15+TSnnzxyUROBsZXXkyVFRDnYsTo3yZwMEDaw8sJ5ozWQuatOsSDlNqukOLYN/R9Pp9nJx02zcT/sh6Tuw9H3yG6lnueIkMesuWHd+ii7VZZdj32CYdbpgKqCcn8KG6azGLEoHnYhlRrGI9ddP52ANq3Y8mv7fdSLbrwtXYF6oVkWTGJ93Yw8qcJnAwtJiv4GptHteW38eo4RlbmmWSvwZ8D13DhcQrFIkaWFOKxazDfjznAk6rXN5JE6ffYPvkvRq23IihZOhbgvplPX+/CjgAFl/zRN9g4eThjtc4QmCGMH1Sq37y26oVkdgDma+Yxf/1JfNKKibBeQcf/fsDUo/6kS0cQSgsyuW04jN+mHiVM6j/ZgZdRXzCL1UddSaut+WNOMODdt1hyRdolzHjCRZ2pdB25ketxCk4SHnp8804XtnoKQ63Ny4savzaqCcm8SG7sWcHkCXrckd5iqJAuxoYZPw5m840YAZIVojz9Rn2QLCvK5a7+QNpPPkZkGZRnP+LC1rF8+csYtjmESwtM5tK6vgxef5rQVMnAaklhCNv7f8T4I6G19vhSXUyY8Mdo1G28SBVNhAXuarbl9b90eFTbCRCIuGbIhOFD2WTrQ5Y0jbQCwkczUqA+SGb52rJy7mw2nPIgQzS/K9qWeZ2/5K2JpkSLKVlOfoYneoO+ZsbJCKn/5OJvp8v8mfM54Z5S6zqOkYeH0abNfK5Jr7HSHt1m0+RfGL35CokK/OXelg6885cmvsKVdjPyoKapigpD8h+mTNTHRTq5rUI+ESR/GswWAZIVkjRkoz5IFmU/YHPvz5h1OkaafS6BVwwY9fWPTNlsR7gInHGXWNF7LFo2/qRLR1bzfbfT8+NRnKp+61KUS3kKN3fN4I9xq7DzkcxBpOQ2Kz//gD47/Go3oyyCy7pqDBu+josBNaf+155I2PsiFKgTkuWZeFlpMmfOcqy9M6XVS8B26Z988toIjoalUlJeRpqrDn9/PRlr6QSx8qwgbDcvYuaig3hJ7zdWsa0sFOO+bXhv5Q3J7vJMgq/rMe7nQehfr21mNVDqwoZ2X9Bb975kNnaVDIUvqqaACkNyOZPGb+V2dT8XD7f2Z6Mw3PpMvlwfJDPubabHl5Oxia8sJifoChqjv+bXKZu5EV5C9Hl1+oxX51xAgvT+cAmeut34bLwZcZXJKrbKEl3YPrMvkzdYECAdISi8vo7PPu7PngD5yRsVSSgJu8GWGcMZpWFFUE7lfmGr+SlQFyTLMvw4pbGAOStP4JtVWfeEc8v4/pPXGHs0jPyiQu5s/IvvZpxG4nblZAbYo71wKkuPuCNDa2VqKAkxodf7H6PpLBmGKMuIxGHLGH4Zqs2t6hfY0oSFN7X47ssBGHpKZmPL5ydsq54CqgnJgljumC5g1NBaJu64iibuLMQsVJi48yzuXDcki3DW7ELbGdYkyBeS6MG+pb34svdCzO56Yr1uJJM0zQlKlM1hDUH/jzcZe6I2RBYRfd2YWWrLMXEKlc5YzsNh5Y+0HbWb4Lza7kcW88RxN7NGDWPzuYCaz9PJ103YfuEKKIZkGWk+59mwYBprzL2kM1al1fU7QI+v34Z8k0wAACAASURBVKP9iiukZnig3uVT5pyRXZnlEOiwnUWTpnLYrTZE5uKlN4j/jjlMdLnkJRbp4XfZPPp7xunfIa1WRfK4tv532o8ywDtdNBtb+FN1BVQTkhQS6XKElTMmYVBldloRwUdn0XmC8AjIszp2nZAs8GRdx0+ZY1sFkUAyLgeX0/WrHizVXs+MYdPQPv2A5IpJrE4sfPNNFl2u/hxHKTnJbhxcM5XlGuYEyEYHsq6ypP1vrLaLpbC2+RVFETjsXMTM6brckZ03n9VwIX2TKaAQkqXpPDyry/xpizjtU33IPAjjv9vyZrvFXLy0nk7/ncb5RFkVU/CwWo9a/zlY+Ve/iCokMfgYar91Rf9GJhJG5hB2W58JHcdy6rEsj2qf2TdY1fkPVlo/Iad6ltWiCl9VQwEVhSQUxN3ngPpMJqw+gVeiZAZaZrgjerMGs9j0DsnCywSeyYPrgmSumxa//Hc6dtLbhvIFJbkeZk6Pr/nuu+9oO2IDVl5xco/iuLP609f5a4UTlfOtCkmL9uD4lmVMWraFi76VmaZdWUX7Lqu5EpdZ67NvBWG3MVw0FTWD61ScN+UrI2w3KwUUQbIkLRBrnQVMW3oUv1qGzIP2D+LDt76lV+92tJ11Dtk1FKTz8Nwmxvw2mC02IXIjCRk8cbFh3dShjNnuSE6B5AqrNCeRG7oj6TTpOGEKlEm/qk6nbiuxDU2R81sFkYXdKqGAykISMnl0+xALRk1m3j/6HD16FO2lk5i6fj8e8Vm1nlRVokWfkxGKIZnA5Tm/8fXs83Kgk6tUiju75/Xi7X+9wV/LjuEdLxtqFcVJwUF3It2+HsC6o0fFbXb06GFM9HVYq7WH897yqEvFbtkffNJjKobGB6Rxj3L0hAXnXULJo4DQm/uZ3OMnBi/SrTwuytfWlciM/Fpnz8rVVNh8zgrUDslCErzOsG7iOFac8JYDnVzlHh+i14dv8e//+ZD5Fysvr6CIhEB7tk4cwuhxi9Gv8ClTtq9cwUKT6yRly4YxyshOuIdGj/doN16zqr9YOfIwIo1i0riytg9f9ZjAVqP9lXGOm2Nz+0ntdZOrprDZMhVQYUiKGiSD4JtW7Fy1ilWioH8ajyjh5daN4aqKIRmKnZY6B+/Kn6zkS0wjwOEUhqt0sbgdQprsHCWNUlaSiOMuaXuJ202HAxb3a+kJxnBr33a0ZG0r+1y3kR3WXmSRS7TPFUxk++U/Dc/il5gtXCjJN0sz2K4dkvnEBzpyctcx7jyppRsprnc4l3U2sm61Mfdq3EgsJN7/Gkd05H3qIDdqLHQgeqm+Byfk/US2rXMYR984ConD+fButGX7ZZ9rNcQv1q/trmczkFWowjMqoOKQfEZ1hOQKFVAMSYVJhAOCAnUqUDsk60wiHBQUaHIFBEg2ucSqWYAASdVs1xdplQDJF6m+ULYiBQRIKlJG2F+nAgIk65RHONgABQRINkA0IUmTKyBAssklVs0CBEiqZru+SKsESL5I9YWyFSkgQFKRMsL+OhUQIFmnPMLBBiggQLIBoglJmlwBAZJNLrFqFiBAUjXb9UVaJUDyRaovlK1IgQZBMj09naSkpGYTLC0tyczMFIKggeADLdgHMjIyhPZrwe2nyudgUaegrr9/9R65FKND19h39CLOzs4UFRVRXl7ebIKVlVVd9ReONYECQk+yCURt5VkKPclW7gDN1PwG9SRFkGxOfwIkn39rCJB8/pqreokCJFW9hVumfQIkW2a7vfBaC5B84U2gchUQIKlyTaoSBgmQVIlmfP5GCJB8/pqreokCJFW9hVumfQIkW2a7vfBaC5B84U2gchV4kZAsSfDj+oMo6TqlKietYNAzKCBA8hnEa81JBUi25tZvGtvrg2RxeiSBQQFEVH8rfn3VKU4nzNOJs2ZmmMmH28FkF5SIUz/aP5DuG24rWGi5vgKe/nh5VgjXzzyo5cX9T5+XkKJpFWg1kMyP9uTh42jS8ptW0NaSu0JIxt7j0MF93I6qb832NAIcbblwI4BU2dqeMS4cOGCLf1ZrUVGwU16BuiFZRPStk+zYYcCRsxexOmyMsbGicBAzazkA5cfhceEgmkuXslQaxnf/jK8XHCMitQCy/NDq8Sp9l1bLz+wCLk/S5avYSNsx3NJZwfzF5whtpByFbJpOgVYBydSgGxxa1Y8Fey4RqGgFp6bTWCVzVgjJ2xq8++bLLL0qWchWsfGBHJnSm/5zDuMXJ30GyWk1b7zRG9MIxamEI6qrQJ2QLIrF6YQxO4wtuXnrPKYGG9m4URKWj+zAt/1ns0FDS7pPjz2md4hVJFXOY45sWIjuuQdkFKTxYO8W1kvzEuWpvmIuY/r/Tp/lB7ga0PgnjIgby+j22pcMXbGZzZvrDxYuYWTKL7uqyC5hf5MooNqQLIjnwcXDLJvWj45fvMHwDdYCJBvJjRRCMsaVA/uMuRVZX09SgGQjNYXKZFMXJDMfO7JXdxV7L4VSnRdRZtMYauROXlGZQi3yoh5gfcmee2HRBNqsZ7m2Jd5xeaS4G6Otcwqz/ed4Ik5dQNzDy+xZspULkXkK82vogbCrhuzZtx2jXbvYpWQ4fz+KrOpGN7QCQrqnVkB1IZkRzq1jOsxboo6+iS6zev3IeAGST+0gihIohKSiBDX2C5CsIUkr36EYkln4XdBj+bT5WPvVpIUykCxKCcX18iHWr53L3xPnc/zmI3IS3Dhx6CR3wlJ4eGwr6jbBlGTHcPuEOhpG7jT2QGu6hxnaBvpcC7nPyYVmBFJGbloAl/Zu5lo4FCQEcOvqWZwe5UDOI67YXMUtKIHm9VR663NS1YVkQQYRfh7c9QknI8EFg4l/CpBsRP9WCEn/U0ydtJ7L8fI9ySLi/R3YMX8EI0aIwioOXLbCUMnh1rSQWxxYJ0s7AvWjNwjPaERjhKyahQKKIFmQ6M2xf7rTffhS7B7XrKoykBSnyonD22En4was4aRLKHn5MQRFZFJaVk5xWiDHNKYzbOR4pq814W5C3a8hk9WitDgKy5XjmbPUkhDZTgWfBXG+PAhNobDEiWVvL+YGpaRHX0d3zO/s9oCckOuYGmmw3yUVUp3R32CEhdMjGr8/q6CCwu5aFVBdSMqbmypAUl6OxthWCEnxPclu7H0iG/rKJdrbnEUDRjJj83Hu3LnDnUtmbF00mp/fb8PPdd6TFMH1EloLJrN4x0lJ2ot7WDV5BNO3XOBxcs1eRWPYJuTxYhSoHZLZPHayZPlvfzJBvSGQzCfU5STrxvWgR48e9PizA5+/8yltO3Siaw9NrsRlIJrfWpT7mEMT/2buHkP+WWxDvJISlBQGoN3xVT5vr41bfWkCLZk5YSg9enTgk//3MR169OCvLh348j9v8PWvPejauQPffP053/zyFz3++pkvP/+adh06M3XnVaLSi+vLXTjeRAoIkGwiYVU9W2UhmZMQxP4lv9NvwRF806VX56V5pNzay/DOn9OuDkgWJodwWmcGo9aa4Z8hTVuSS7DlWv4ev4GzfvHCUJQKOVptkMyK8uSI1mjmLd/Idv2GQLKMgqwkIoJ98fW1Q3dMV7oOX89pcz1Gzj9KcEIO5bHWqHWZjqlrOElpEdw2XcvsaStq7bVWl7u8vIDEx/4EP0qsv8eXl8zj4EB8fY8w+c2JHPL1xsXRlKV9f2TtaV/c7EzZuGYuGiec8XU+zorZa9h2+CK+sekUlsiPzFSvhfC9KRUQINmU6qpw3spBsoBYv8PM+KEzK20iqTLftdiHfRN78LdCSBaT4H+ODeP/Rt0uGlm/VCRpqfcRRnQbysozPqQKN2xUxstqQjKXML8LGKw2x/nWCfbqq6Gto824jp/x2WeV4eN3XuOVNh/w6aeV+z5r9wejN9mTLK9OqB3bFw2m6wpzLpksRt3Kj4dH59F+lCEeMUnkirqU5WUU5aUT5GTOmlnDWXPMncYf2b8pDLfKt0sz3xYg2cwbqLlWTylIlmTx+NJa+nXoxT7P6lfC9U3cySHUdSeD//f/8crrbXj77bcrw5uv8/JLP7L0tDfCiGtz9ZCnr1dNSJZTVlZCUWEJMW7m7NVfwrnAQvJzc8jJqQxBhyYycNtNktKy5Pbnkl9YQoXXlYdz4eBJ9i+dwsydRmisOoh7eAL5+TlkZOWRl52G7eof0LtbQklJCcVFBeTl5VJQXFqZx9ObVCVFeVmpOO+SkusseXshjiWFJIdfRWd0Z4zcSsgIuMr+HRvYezuRksRb6K3bgdm1QLJKSikrr7CkSp7Cl6ZXQIBk02uskiUoC8knl9fR/6eemDyQ7wuKJFECknd3MKfzYA49rJ5WJSVt9UbVhGSlJLFiSDZkuFXUOywh0fUEh81Pc+GEPsuNLPCIEk2H8UC384988t57/Oc/b/HKv1+lzXvv8d5/3qXN552ZoOtIYz4l6Wkygo7fvMd7ojKeKkzikE+M8Mq8Snd4rlsCJJ+r3KpTmFKQpIAY34NM/a4TK6zDqw63Fj3EeEJ3+igcbs0jwt2E6R26se5MmHDvUXVcR6ElTQXJkiRPzPbswvScP2HX5SFZWZXMqJPM/mkLXqJdeVE4WexgtYFToz8GIsq+ODOOpNxy8dBuXlosUdLXgJUUZJORlkSO+BZCEVmJaWRmF1T93VRWWdh6TgoIkHxOQqtaMcpBspT0yJtoj+xIz7kH8UyRTmYvSCfy6g4Gdvy0zok72dEP2DXpJ7oN0+N6QpZ4FqJYx7wUopMz6nx4XNX0bg32NBUkE7xu43DxLEHZkFQbJAuTuPDP3/xlJEYkpIZgd3wLCy2C65W9vCyf2IAHePvFklNvbNE02hTuGM/F0CWfsoJMXPZNoof2TfFFYIrPefbpLua4RzYlRGKvuZ0dJ52Jype8X1aZ7IU4ja+AAMnG17RV5KgcJMWXzTy5voNRvfsxcvVBrl69ylWLvfwzfxjtPnqHXxT2JEUnlFQC7Q0Y1a0fY+YZYCNKKwrWxmyzvktoivAIiCo5W1NBUl6j6pDMj/XGyVyTCQPW45AoiVmaFIiThR47btc/ZeepHgGhgLgbB1i815mColIoKyD2/n5mjT9KmKjoND/MDLT5x8iJJNH3iBus26aPtVs4AiflW/H5brcOSOaEYLdHi92W94jJfr4Cq2ppCiEZZMWcmdpcTZCbaFCURtC1AyybMIEJorB4G2fc73Jl7xZ0TZ0qnwELOIWa2hZuVJmSmMVjl1NslKUVfW42wyMiU1WlbbV2KQXJh3E8dHHAysqqIpgs6s5v03Q4eep0xb7zV67xKK1SyqK0CDxuXsBUYxJq2yx5GJtB5H0HDmnMZOQkdRwTSslP8sPBygoz073s2rUDx6jK9Iq2SotjsNkwncWrbajlPQdVkqUGX+PY5sO4ZeRIh1CLSHx8hrW/6+EhjpnBA4v97NQ+jI+0WxpxXZstu84TlFBQZYZ3lYyFL02qQOuAZJNK2DozVwjJ1imHYHUjKFAXJDPC73PL0RrfAD9sDuiwYMGCOsMabX2cIisrlRfpzqld68Rpdl/wIiEnEw+zLawytCOyoFg8uSfzsR06onxXaGF83pfGvp4Ov2bJ7bBkCirmoZWQleTFOX0HZFVNe3wHp2vn5d4xHc0NaxeeJGQJ9yYrm/O5bgmQfK5yq05hAiRVpy2biyV1QbK51FGoR+tTQIBk62vzRrFYgGSjyChkIqeAAEk5MYTNZqOAAMlm0xQtqyICJFtWe7WE2gqQbAmt1PrqKECy9bV5o1gsQLJRZBQykVNAgKScGMJms1FAgGSzaYqWVREBki2rvVpCbQVItoRWan11bBAkMzIySE1NbTbB0tKS7OxsITxHDUQnNFEQdBf8rrF8QHReaay8hHwEv2wsHxCd50Sdgrr+/tV75FKMDl1j39GLODs7ixOUlpbSXILomamysjIhPEcN8vPzEQVBd8HvGssHRCcj0cvFGys/IR/BNxvDB5QZNasByaKi5rU+kQiSwt/zVUAZx3m+NRJKa+kKiCApOqkJf4ICzUmBBg23CpBsTk34YuoiQPLF6K7KpQqQVOXWbbm2CZBsuW33QmsuQPKFyq+ShQuQVMlmbfFGCZBs8U34YgwQIPlidFflUl8kJEszo/EPTxWWZFNlB2ugbQIkGyhca08mQLK1e0Dj218fJEtykoiKjiIx+ymXjirJIeGJL3ednHCSD34x5BeXig2JPDaajkuvSFbfaHzTpDlmEXH/CcmFxci9/p+yolySo0MIT80mIzaC0JBYlDGxrCiP9LhHxDbWS2ZzkwiKiCNFsqBlk6nQ0jJWaUiKFjf1d7XH1tZWGpwJTsqiuKW1UjOsb4uCZG4i/u43uO0TTnrdM7mbodKtp0p1Q7KEOJdT7NhhwPHLd7h5Wfabru3zIo43QyoXTM6L5PZJXeaMHs1oaejd4X0+nnWYiNQCyA3DcNDrjNpcLS9HF/wajUCidnzMmQU67DppT3CmBM5QRnaUJ6c2L2SXazjeZ/agvXoPN2PqOUuVFpEScJV9JgZc9k0h5P5VufNcNTts3YkuqArmWr0qyBo1nYNc8JauGVZrpNa3U3UhmZfCQxtjFk4bx/jZs5k9ezYjuw5mjqYxtyIzKBIm0T2Tt7coSIY5sG7cz3RfasqD+GcyW0jchArUCcniBO6Y7WXH7pNcvngMnRWS37Todz2hZ1s+6zKMGWqzxL/z2bOXoL71MhGK6pofzemNM1G3cCUtL5Mgcz0WSc8RovxmTBxB7y4/0ElNF+vGdpi0e5jMm8uKQw8lq4yU5PDk1hGWL9LHPRPyY5w5ut2AI3aPyFVU/7IScoKvsWu7HpscwylMCuHKwfVS2yt1EdkiCQdwz8yv0nutNWsBkrXKorqQzIrB7bwNZlf8SJWaHue2k6kdfmKAjj3x2fVcqdUql7BTpkCLgmRqCFfMdrLvvBsxWTILhM/mpkBdkMyJuMUB/fXsORdCfrWKR5lNY6iRO3l1XPkWJATi6HwX35hEwuy3slzdjAfR2aT7n0RnvSmWZ5yIFudbRKKfI/tWbsLqkXRRx2rlPfPXNHdMTZ1Jo5yC1ABOLurGl91nsHHHDnbs0GDO4BGMGDIXTfH3HRy/HkBanqznCUnu5uht2oyWpRdPv6pqGfmZ4TgdF5VVLayZSueBY1D7R7vGMeN9t4h5ZsNbZgaqC8la2yORc4u78fmU3TxJyqs1hrBTOQVaFCSVM0mI9YIVUAzJXAIvb2flrHmc9qmOSFAKknF+XDmzj40665gwfRYHHALITPLB5rAJl4Licdm1GT3HcEpy47hrsQkNnVuNfn8y2uUIO7ZqoKGhgYamJifvxRPrtI3e33/KkIVb2bp1K5pLJjN4cD/GLtQQfxftO2jvR2quFJKhV1iiqc2es95kUUhKXAAujsGKe5012rSE1HB7NvT5gqGLJGWKyhCH5RP5re8IpixeX1G2aL/OFjV6vreSOzXyah07Whkks3DU7MWXagIkn9W9FULy8UXWrNzJjdhoLm1bxKJ/NmBo7UVMtA9nDxtifutx1R90pg+nt2lx0iWBfNF8jLJSMj0s0NS5TEBKGFdMFrFokSisZ6/1XaLlz5ER19HTssA9LRd/65XSeMvR1DXHW/4SOyWQC0cOcMTBl6RCqeVhDmhvsMAztwhv88XStP+gbWiNn3xacfQcAq4cZMtqWV30uBLuhcU/KzngIhuneFZFhfSKIFmU4o/Fhn78PXwpdo9r6qQMJMWpMkK5dXojA/uvweJeBPk5j3APSKG4tJyiJA+M1Zcyf8FiFqvv5GqEchfRZSXxXNZfIfbX8JpVq7In0fs8Zkf2sW/fcnq9+h3LL17HuF8vfu71O7s9JFEzfc9hZKSL+YP0KmkrvsS4cMRF1OctJTvJD1sjPcyuRtToXVfEr7EhgeTW8d3Y61ntoILh1tKSqywRIFlNrKpfVeeNOxn30B3egZ8XmROZJjtbVjVW+KacAgoheVuDd9/sxsSVo1HfaYGF9XkcH0QR8fAc/4z9nVl7bpMmX0Tceeb99l+mmwaRKWqS0mLiT82izXtDWKy7mB1HLbCwsGCPxnzGDZiA4QX/yvTu2/n5y+FMWj6RzQdPiuMdP7CbBX1/YdpG+4rV3hHfkxzGOJ0LVIyguW6l7UdDmbZmIjqHJGUc2WvI3H6/M0f3unToTVTRBFxPbGXChPlsNTooLsPCeAPTx/Tj25deZZipwjtf8lYK20ooUDskcwlztmHVH78zanVDIFlA1INzGC6dzOTJk5k8ug/tP25Hpz5DGDvZiFuJWYj6aMV54ZyY3osJG9VZuNgGZW9dlxQGoN3xVT5vr42bEjaKoiTfXMfoWcfwvL6V0VMMWTPqXToOkNRv7KDu/Pbbz/w5YKykvpN1ueAfS3VkF+UkcvPATHYeu8p1u4OsENlWZ9jHQ/FMXgGSSjZTRbRW1JPM4P7hBXT7rCfr7HzJLJafhF2hh7ChpAJ1Q/IDPlHTJ0SOholPBclpvPLud0zdc4lIaa8uP9WDQ4tHMXbmTu5ESk8ZYkh+wW8LdvAgVnKPubQoDXfLpQz/ZSwm96VX4woh+SmdlxoTkCzxhZKCBO4cW8CILlM57JUhViLO7QDzxo1i+f7rRGdLX8eYH4vnzgm8/IoASSXdRalotUEyJ84H861TmTd3LXr6DYFkKdmJT3hwyx57+0OsHtiRjn0XsHvnavpN2otPfDblCZdZPXIpB688IDThEVf3arF6pQ7Xlbj+KS/L4bGrI7ecHyPxmHpMTXZiw2xNzoSkU5wUxF0vX44v/o75u0X1s8dmnyZz585g9Z4z4u/29vcJTc1B/qGX0qJcrm4ZxKC/F3M1rYC0KF9u20vSi/KQBBMWdJrEmp3HsBXv8yG5TOTnAiTraaEah1sJJKNwMFhCn086MEnblsC0QoTJrTV84al21A3Jl5loKUdI4OkgqcZ/vhyOaZD8O4JTcTm4hCmz1LkcIJ19I4ZkF5ZcjKCwYl5DEXH+lqwY0A3NywkSmxRCshMrryfKzfrLJ9LjGEuH9EPXMQmIw3HbTIaOWsM5n9SqPpNpy5jX3xB6kk/lNXVHrgnJfCL8L2K46gAODsfYqz8TXaNdLBz6B3/8URl+a/seb3/xI793qdz3R5+RzN99q2LSnrjkKHuMFg2m27KT2B9ayTrzh/ieXk+/WdtxvB8oGYovKyY3JZy7tqZorJiN7hnRvb/G+gvg6PiZaFoFkFUiuTDLTXyMxdqnGG4lDvP53RmzehmzftnCfYVV82HPIE1O3Quj6vQjAZIKJVNwQPUhmeXH6Y2T+KlNO8apW+CVWIDUPxVIIuxWRoG6IdmJnUFVL0OeDpJz+Oz79TjLXz6TifuxFfQdt4CTbnGSKoohOYPDoalyV9rFJATZsnBAJ6Ye9ZfEUwjJGZgl5MhBspBor1PMGdSN+aeCIMubo8sGMmrublxjqtoDTix4Q4CkMr6ibJyakCyjqDCb1KQcotzM2au/GKsHSUQ9CSY4uDLcNBhBr/XWePsFVe5/FEpUUracX0TjeNwMkyUTmWq4m01r9nArJI6c9FgeR6WSX5CNo+7f7POS1LakIJuk2EgS0vPEw7HK2lBnPF8Tun79Ce993pZ23//AXMsYRJDcO/5l3v+iHe3ateObLz/h/fff46P/fiP+3q6dGgfvhUoeFwHu6f3GKssAfH0sWS1Ask65G+ugakMyzo29y/7mzbZD2HD8DvF5RZQKo6yN4jt1Q7Ibe59UhcrTQXIun/+wsdo9Hgkke46ayzFX6WR0MSTnciIqTe5kKIHk/H6/Md7UW2KrQkjOxSo1twYkZw74i5kn/CDDE9PF/Ri9cC/uUi5XiidAslKLxtmqCcnKfGPFkGzIcKskj0xvS46amXPGdCvLjMxxDk6juNQdvS4d+OyDD/jg/fdp8+q/ef2dD/hA9P27Xszefavy/ndlVRq+VZxHakoyiYmJWM5pw1LHUjEkzVf9is7VRPH+xzePsXnzBkwcQ8TfExPTyS0qqfDRouxksotKSI04+0yQXP7L//KGzFaRvaLw7lu88vqbtHn3Pcl32f4P3uEDYeJOne3eIifulGeHcE5nAm07TcLA/gml4vH4Ou0UDj6FAk8NSe/zrBzbhZnVhsDKY2yZ8+sX1SbuNBNIEs4FrUkMHb0Rh6Bqg26l15gj9CSfwmPqj9pUkCxP9+XUnl3sPe3J42v6LDeywCNKdF+7nNKiIkSrGqXHW7Pw6/XcEX3PCOWa+XbW6F2rOlxbvwlKxSgvuc6KIXsJK0MMyVOrO2HonEdeXh7x9y3R19/EEZdY8XfRvrzCYsrK5a/unwWSIrPLKCmW2C2yvSL4WjB9kwlnPaIr91UcL6l6u0EpS1Ujkor2JMuJu3+apWO7sfiQWwMeuFWNxm1KK54WknkRd9k5YzjDF5/Er0A6jlqcR6DZIn767HXGVZnd2lwgmcUDs9X07T6STTZepBVLe8dFWSTYLOSVV14T7kk2opM1FSRj3RywtTyJTyYkXZeHpLTyJbnc0u7DTzr3JDtSQzh/dBPzzAPqt668mKykOBKSspR7OXppHj47BzHrrOSefV5yOEdmfcInn9QRphnjGyP/gtZnhKQiqxQ8AqIoemvZr6KQzOPRjT0sGDUITbO7+Pv7VwtPSMwVXZ21lmZufDufFpKQysOzWxjy1yj+2WcvaY9Le5g46FfavPK/TGiWkAQyvDmxejTf/r0I03POknpba/H779/x7v+9IkCyEV2rqSApX8XqkCxOjybomh7Df52LbawkZllyEDct9TF0qjr5TD4f2fbTPQKST5LzIdS6/s4Pi47gHxjE40SFL5+TFVHLpwDJWkRpsl0qCskCoj1t0BrfjW7dagszMPVMprDqbbMmE1kVM1YISe9DDBmwiLM1JroAueFcN93AaFmbTNzCpdvWbJ01jq12keSKnuIoKyHV0YAxU49Q9To+l8ArxixRN+CKf7JE/yxpLAAAIABJREFU0sDTqI0zwF76rJtkZwlpkbfZ/s8sNsqePI9z54DWOrROuFS+jMD/JBNHGOCUWVBxvweKSXrkiN7KhejZh1U2W4YXx9bPZpCs3jMP4J95RTxxZ/xJ6QzaytjCVgMVUAqSvmmEBXnh4uJSEc5qDuCvJaZcv3mnYp+7pw9xcp2vkuwknvjd5+KuBcw1OI1XTBbJj724oDuNbr3nYRtbRlFmJA9dXLhxwYLDe/Wwk3MBRSaVFodzdHZfxkw7Ws1fq6coIiXUgR0TjLiZlEWkzXK69e7HSB2rijrL21Rl2+sJqfnyLyhXAMmCDCJDHkrzO87y3uuwuB9R9eUd1asl/13oScqrUbGtopCssE/YaCIFFEKyicprdtmmWDL8zR8w9G12NWuxFaoLkqkht7h81hR3Tw+O6C5h2LBhdYap81dVeTtPzuOb7NWYIU6jefIu0Vlp3N6zhMlrzHmSVwTlxaT7m7NUlO+EeWw8eb+Rb9Okc/eAFW7xKZXDsiX5xDka1GmH2M5F+3CLyZCbnCZ6244rx5ZZ8Ui+tRO9MTdcXpnfwr3cjUyXSycfuZbtaBd2WzngHqbUE5+1ZKCauwRIqma7NrlVrQWShcmPcfHyJTxF7p0nST6c2TiM/3Y3JrDJlW49BdQFydajgmBpc1NAgGRza5EWUp/WAsnccFfMju9hq5Exe/bskYRlU+k3Ywm7bwrr7jWmuwqQbEw1hbwaSwEBko2lZCvLp7VAUtysyX7YHt+Dtra2NBzgVnSeMPGrkX1egGQjCypk1ygKKAnJ5Rgdusa+oxdxdnYWP0PTKKU3UiZWVlaNlJOQjbIKtCpIKiuKEO+ZFBAg+UzyCYmbSAElIblCgGQTNUBLzVaAZEttueZbbwGSzbdtWnPNGgRJkTOnp6c3m2BpaUlubq4QnqMGIh8QBUF3we8aywcyMzPJyckRfOo5/o4bq+1UOZ/s7GxEnYK6/v7Ve2TVnmR+fn4try2Se71RxauMns8+0XBrSUmJEJ6jBuLXZeXlCZo/R81V3cdFkCwuLhZ8SvCpZuUDIt49NSRF7/prTn/CPcnn3xrCcOvz11zVSxSGW1W9hVumfQ0abhUg2TIbuzFrLUCyMdUU8hIpIEBS8IPmqIAAyebYKi2gTgIkW0AjtbAqCpBsYQ3WSqorQLKVNHRjmylAsrEVFfJ7kZAsFy3unFnQapeDErxPsQICJBVrIxypQwEBknWIIxxqkAL1QbKsMJv09DSyC55yZYKyQrKSYwl79IhH8iEuneJSSV4JFlP4fqYN8Q2q+TMkKi+lKCeNhJh0Cp8hG1nS0vxMUtIzyC0qJic5mtiUbIqFleZl8jToU7UhWZRNXFgA7u7ukhAcTWa+dC3DBsklJJIpUB8k08LuizX39PYjPqOA9JhgfILDSMuX5aDkZ3EeKVFB+D6KIL3uWdiSDMuKyU0Ixz84Abm3rSpZmBDtRSpQNyRLSXI7zY6dBpg5+eDvJf1Ny37bVT4f4BMQV7n6Rc4T7I1XMqRLF7pIQ/sv3uKdqQcIT8mHwkQOjn2T6fur5ekTTNRTO+xTKliSTajjfhaN1eVK0rN7bKqrKWsNjLkSEMbt3QtYsvUwDvcjyCl5yguLpzRDlaOrLiRLc0nyd2DH2tkMHDiQgQO70n7gAnZa3CMxp0hueSRVbt6ms60uSOZHe7Jp8H/5feBAxqkt5KxrCOc0+/Fdv5mcCX7KOiX5Yb66N+2HLamyqoPCXPKS8Ng9l9/678JbYSThQHNUoE5IliTjesqEnUaHsD61k2UTRL9pSej508e81+4P+vUfIN03mtnLLKuukCFvcGEy57dMYvnRWyTn5BB92ZCp0rxEefbr+Rc/t/uCb0au5pBztHzKZ9suSMDP+RaODg44yIWLp01ZOb0PPZfvq7JfFsczLBVlr+2zHhxHTWMbFvfjxHVNub2bmeqnCM6WXxLu2cxobalVF5IF8Ty4f5trUmeBaG5smsYPP07B1D2afOHC6pl8XTEkc3HV6Mwbv2yrXCEjJw4Pa11W6h7ETfLbVb7srGhcTumwevtxPJVZulGApPLaNrOYdUEyP+YuR7ZrseuMf40RgiizaQw1cievSPGPuigtAg8fP0KT04hz3sXyNcdwi8wkK+wC+kt2YXPTiySxHsWkBt3EdIMGJ3yzGleh2DNM69KHwSPHMmHiRCYqEQZ0/owpRteJzKysSllJOn5XLRG9RKVGMFpJ/4kzWaKzv+oxt0jKyoVV5itVVH5LdSFZmwaPTjH+98GsPRdEhmiBX+GvwQoohmQk+we2oc3Sqw3O+5kSCpB8JvleZGLFkMwn5Opu1sybw6mHuTWqqAwk8yLdOXV8N1t3G7BozjR2XfAmLfkx9oe3cco7CsdNWhi7xVGan4j7mW1obnAgtkZJz7hDBMnxRrgnZis9QejhwXFonKgKycIcH3S6f8Xf0xaycGG1MGkgP3bpTt8x06seO+5BSZkAyYa0YOuCZKglU7pMRu/6Y7JLGyKXkEamQG2QzAq4jMmuDYz49mVe/lMNPb3t7D/iQlx+KiF3znP8nCtRstsuKYHYnbLH5UkyofdOsnenHnp6eugbmPNQ7qqZvGT8nc5hdvE+MXL3MxM8z3J4jySNnt4FQgql95rlIOkSH4SjmSyOCefuPiKteb0HQyan8FnHc5LFGcHYbB7OoOFLax1yVwaSYoFTAji3bxld+6/F+n4UhZk+OHrEU1RSRmHcbfTUNdmySZv1WrqcDc5Wqk3KSpNxPmaIySHn+qFaAckY7ltsF/u7yOdrD8e55h2NS62Q9MNo2GjMaxsJjnZEY8seTt0JR9wPyA7kvO19EvKFXoFSDVpLpNYDyZzHXN2mxsjpe7kekSlxoFoEEXYpp0BtkMwOcuDgXi1GffcKr3Sdg6Hhbg6duEd8muie5AR+H6vL7RRp/oGnmdJ7PKMWLETXWBfD7YYYGhoy+6+vGLn6MuGyaojvSY6j27SduKaJduby6IYZa2dPYpmGBnqGhhhu0GKNtb8khRiSavz3+4mo79XE0EiS75rpwxk+ejb7bz4hXThfyNRtVp+19yTzibp3nnU9OjJ4aUMgWUh8wHWO6q5hzZo1rFk8nj++7Ezf8bNYtuYkHqm5iK6Xi/OisJjdg0GLFzNzsfKzXEsKA9Du+Cqft9fGrT41c0K4cvEB8bnJeFrtEvu7yOdrD+Y4+cYQ7mOHs38kWXJTX0U9ya09vmXIAqlNIrvWGHLyki+p+T4c0j3AGcdg8bB0prMO41adIVw+g/rqKRyvooBykBxd9d2tLeWNO/mxD7ExXsucOXOYM3UZ6luNuOgdS7bQm6jiBA35UhskJfnUMtyqEJIdaTd0LubuMeRJwRXutII+73RF556YiFADkuFYLx/MiFm7cY2SnODIDsH+nvSyWgzJcbT5vDMLTM7xJF1Sq8z/n733gIrqWvi33+/9v7cmxph2c5OYHqOJiSWxpdh7FHtX7L1hFxsqqIiACIIFERuC2BULigo2FJEuSu9I732A51tnCjPAgICgCGfW2mvO7LPrb+85z9k97AIbNX5j2NKj+MaJFaAmZV7XftRBMjveD/sds5g1cRGb9GsCyQKSwz24amuJpaUu0/5sTevfxrF29XR+H7SdB9HpFCXeQn/OOiyOX8Ez3IdzRnps2WbOvSr0txYVpvD4rDW2pxRjmnWtEgiQ3NazPdO3C3kSjBGrFq5gw9arPCcAm9UmHDntQQphnJyhxbZrz8iSiF2tNS2ZqkFyxJsJyYK0GHzuXuLkyZOcPHmYnUsWMHnxPh5GpUnfHmsqmugP6Ya/AijLf6oDyT8Zuv0KYenKvm9Jrhtr2n7E+MMRsqDLQTKac9oadOswh6OeMaj0wMrcSyE5li86aHLEXzV9MVxcP4Jh801xC1f0+ZZPvWjz+hQoD8lcIvwusWOZIafOWmKmP50dew+yYcZIRo5UmoEdPue/bXoydPgIpf3EOayzfkCqanZirrFr7gC6LrDG8ZA2yw+64XtuO5rLjDhx1oUwYbizKI/UCA8uWu1k43ptLC4/IVM1jHpwnZvuhHabBTgqqnFuGI7HLDAwdSGFWC5t2ojp0ZtEPjnGiOnmPIhMrfIYaD3IXr1LQoOGZGm1M4n2PcGSrt3RNLxBfKa4XrK0PtX7VTstSU20T3uSpDIpUZL3hM1d36fTNjdZgspBsoDksPOs6f4HHdt3oXuvWVh7p1DyoiyF5HTa9NrGg1INxiSu64/lt0kbuflM3rysXpZF13WsQHlIFpKTGU94YAKhrkcx05/LEecAHt9xwslJaY6v6kPnuWZcunpdaX/rLu4B8SirQCy3bY9iumAMY7eZsXX1Dq74RpMS5YPz43Ay87K4bT6Bo/Je+/yMeAJ83PCPTK2loZlknHfNZ/TAXvTqVV2zhjMBcSWbDeSkXWDxl6u5qyiPzCAuWhmzWQrJAjwParHFUp8t4+azxMqV51nKl1CFF/G76go0IkgKouRwc2MPWs+2ICShXBuk6qqJLmupJTmTTQ4+qCJLgOTGP9/jhw23ZSqXg6SsHBOCn+Hz+DBzWnzL1y1+5tdNN2TupZBUt05SBsm2o7W59kQxMCoWZH1SoDwklamLlkKyJt2tsjDS/c5gfegIdrt1WGh8iGuPosjOd8dMoy+d27enXbs2fP3R3/nk+/a0b9+e9j1Gs9LKtXRLVJmcGlwVkBL5FB/Pxzx+LBh37jnbsLRHH7ZcFn7f4Mi2dSwYocdp6X2FO+E7iPjs/JLWYNYzC0b2NydYkYoEbw7v3cpKG19pD1mu+36mDf+VDhNMuBuYpnyBVLgXv6ulQCODJLjt7EOLmSYE1cLuFtVSuoE5rp2WZE0hqRAzj5ToSO5s68PbHw3ERhiWFCGpEOeN+64zSGY85dSeXZgevc+TK/osNrbBTTrNOpfkyAhCQ0Lw97JkymdzsA8JIcT/LrZmm1i6xZG6e50qJjPxIit+XImLtFMrETe7/Wydc4xnLyi5zKtLGGbqT0lfWJwHVnv0WCbfqSPZeSdDRs7CyPEJGeKWdC9Q88W3GxkkfTAb+AtTje4TlyUOZL+4elTson5AUpa+ohvLafp2V/YIU2JFSFZcaPX8Tl1BMurOeY4eMMc1vpC466qQVAribTaA75Zek4EnOYAzVhuZftCrznbmKi4qxH3XQH5Y4SSHXQWQ9LZmqN5xPCOVGxtcXTqAPUHKMYoEr7PorxqDya0ECHZg2cg59OzZirlHrhImXU51j3Xfr8RJsUxKmW3xqgoKNFBI5hDkfALTDfpcD0slNVUw9zEd04sWHbS4GBBfS+MMVVC4gTp5fZAMwObIJVzvBcnLNZWLK1rw6cCdhAtai5B8Y2tcXUFSVZD4MpAsys8izcuEPp8O44h8rlhx4lNu2Rmw7XqCqle119VaAiINQUJOehqJp+bywRejOFay1lE9JGPOazPd6CxP4+RrQCSXmf/XPiIKMgi6vI7OzZrR7KvfmKh/BZ87h5g/az5bz/uSGX+N1fMNOO8RSXawJX8NMiWwQBybVFuIL7BsoJAUcp3NM0czpv/+FV99JTM9l1njFS2ORb6gTlTpdsWQjObYlDa02eiiDCc1hKtGCxk6z5wHigHIwPNojddm181nqO4dIMkPxGR0O/rulE/cSXrG2a3zGbX0AO6KqYrPTjJ7xJ8l5frVolNkKt6Sc5LwPqjNIE0r5bZ40pSkcHfPIv5aYMCdQEUilEkUr16/AlWC5JNskuOiCQ0NLTF3jYbRc90ZngQEl9hFRMWUWltYlJdJ4vMIHh1dydwdx3GPzCQzMZr7JuNo2XI4R8KLKMxNITo0FH/XK9ha6HDiRf2egLS+Dv6B3/ua4PECCfPSYokMt2fRDz/S4pvhKoAUPKbgceoAutN24qSSt4t6I5hiYEdgomwKUs55LUYdlb4OymMrpiD3OfdtNzLmr9HonvREsQ2Cj/VUZmyx5NSGEYzc5y2eBvKC8qnodgOGZEVZFu1rQ4GKIVkboYthNEYFKoNkvM8l7Ky343z3NkZLR8sm1wgTbCowPYdOwsZPqaKwG5Tu7H5S93PMrhOamsDljaPoMdmcJ1n5UJRPors5Y4Tw/hzCPFMX5Ct1lYG85JXvkRkM6t6e8Xs8yC1Qdpcqgk30c2T7tLJ5moPVg9CSZSgPDA1xLbUHax6R7vZsX7MC28eKt0hFiOB9cDIDuq7kclJWycQf5V3xqioKiJCsikqim3IKiJAsJ4lo8ZIKVAbJlwxa9C4qUGMFREjWWLrG7VGEZOMu/7rIvQjJulBVDPNlFRAh+bIKNlL/IiQbacHXYbZFSNahuGLQNVZAhGSNpWvcHkVINu7yr4vci5CsC1XFMF9WARGSL6tgI/UvQrKRFnwdZluEZB2KKwZdYwVqBMmMjAyECl1fjHA6d05OjmheoQZCHRCMqLtY72qrDqSlpZGdnS3WqVf4P66tsmvI4WRmZkq34ayMsv/To8wpIEJFVrQk6sO3nZ0dwvFdonl1GmRlZSEYUfNXp3lD11qApPDW3tDzKebvzfrPKHhXLUgKhVyfPgIkxc+rVUDxcvRqYxVja8gKiN2tDbl039y81ai7VYTkm1vgtZVyEZK1paQYjkIBEZIKJcTv+qSACMn6VBpvUFpESL5BhfWGJFWE5BtSUI0smSIkG1mB11Z2RUjWlpJiOAoFREgqlBC/65MCIiTrU2m8QWkRIfkGFdYbktQXQbK4SEJBQQGSomoec1dchCQ/l2z5ZDPFpLOs3AIUQaWcmcO3448QXYdaFUvyycmWTXjLSPdCv/d/0b4m+52VnUNuXgEF+bnSCXFZkU7oT+rJV+82Y7TRLVROypKmMCcpDOvF7VhyNrZUipMfHmS69haOP4yus2O+SkXYCH40HkgW5ZGeGE9MYgb5heU3F24EZV2rWRQhWatyioGBdElZUVFF/81ikh7ZscNoO8fuhRMfG0VUVEUmhufxGZRML8zw55SuJr989hmfyc1HTf/Bv8bsJiQxByRZ2Expynz7MuHFJZKWU3K08UuX0fOLa+j6y3fSNHz66cc0/cf/0uRDeZp+6IrmUn30tHrT5P3/8NlnnZizy5GQLHXRFpIW5cK20dOwfRpXRgcXzCavRt/sIt6l9Ekmt5rvFupibox2jQaSuSGnWNKrJU0G6OEmO4m0MZZ3reVZhGStSSkGJFeg0pZkUTIPbc0xMtyN9Z51jO3amtatZeb7z96lyX+/4ccfFXZdGDRuP74VKSvJwHHbMGbsdiQuI5vkuzvR+OmnkvB+/P5bmv/3ff7TfRo7HIWTvGvrU0BqVABP/Hzx9rrIsk7NmGXti6/vEwJCYsmIdGOP+VZWn3nBGV2FuUTc0GXEuJ1Y6Q0pSbdCD/Xfq3HJF8+TrElJNg5IFqTjsmsevX74J38fKkKyJhWlrB8RkmUVEX+/rAKVQTI/zo1DO3UxsvEsOTZKEV/EkUkMMn5Adn5FrVCQZMQTGBbO87RMkh/vZ5HWPu6EJJMVdwvDqXqc8wmWn2taSGrAbax0VrHHrbbPHY3myKT2/NyhE7//8Stfvfs3mv/8J106/EE/DS0uebixZ8dyJugd4/bt2yrGj5jMvJKjriQ5kZzR6sHko8KJzQVkJobjXcq9qt/beISlICkUm5GK+lLd70YAyQKSfWxZq6nNrOE/8/VMEZLVrSTq3IuQVKeKaPcyClQMyTyCnMxZPX86R9wVRworY6oKJDMDb7LbfAfbrfazft5Ytp1wIz4pGpcDa7B4EMIZLW0O+idRlJ+A+1lj1i86g+rRxsrYXuZKgGR/5hgd5vSZPUxt05TRW89ju38vulpySK4ewbcdeqKhoUH3dl/wfZtf6dFvExeC4smTR50VZE7v9z6VQzIJj9NbGfF5O3poaEj9CX4Vps8vX/C7znWSs8RWZE1LrsFDMj/Rh8OrNJm2bj8HNmnQXoRkTetKKX8VQTIryBlbm3tESfIJvn2Yw4cFc5zz1x4Tk1sqCEgJxMnhlNyN4M6BJ6nK1kB+RjxeLue46RVNKa+5MTy+dp7bvnFkF8jDLC4m7I4ivhNcvO5f7tDc1JD7XDmtcHMYl6AMJMroyiRO/PmqFagIkpKMIM7rj2aoxkLOB5ZPVVUgKfUV+4iDupr81GcVp92jyE++z8lbEeQVFJEbcYk12js4sNeMLZvWc9ij/AHG5WOG4sJUvByOceq8FwnqHJSyEyDZmW4ao5k4cSi//Pef/NRPk3HDRzN2rBbnHt5lr+lmdC+HSX35HpnJRkt7/BNVA8nkke5wWv7ykwokTZjXdSb60v+asn4L/72dc7vTd+tNEZKqElbzumFDMi+RxzbrmThkDqZXg3HZN1qEZDUrSEXOK4Jk+MFRvPvWUHRsjNm5ZTGLFy9m/vSpTBg2ijVHrhGo6MHKieKBw2F0tFdJ3Qjuhrdvycj1dvimy2JNCb7LxrE/MGTjldIPoHhHVvX5ifHbnYmSNizS8Ty1m1kjezJ18WIWz9diubYZJ30Vj608YrydMNk4lwXzZ8jim9af0bP0OHo/TpwFWFEhv2J79ZDMI+bRRdb2bkvv2TWBZAGJwQ85b2WCiYkJJnrz6NuqByPnaaNvchG/tBxpN6YkJwb7OX/w29gJjJt/ktJzRisWQpLnh84v/+bzH3VwrdiZ/I4AyZ6MWa6LodFahrR4m74LTdBfv4Gls7Q4ev0ie3Ys45C7bLaOWkhGnGHU0AUYrhksh2QWUd6XMBXqfQXG4OLTSruiX5jsRu6gAUMynzhPe1ZNHcoCwwuEp4GnCMlaq+6VQ/Jzus1dwXXZCzEF6bHc2jOPQYP+YqtDGDlCKrJCueXqS2SccvpeqON8urz9HcucZG/xVYekJzqtmtBj8yOkPiWZRIe4c8P9uTS/OdEP2L12FpqbrPGIkXfXpfmwX/NXvp16giTFOoBaU0cMqCYKqINkTnIA500XM3P4LNbp1wSS+cQ9dcbGWAcdnQUMa/8t37YZwMzpw2jbVQfnqFQKU9yw3LgDc4uj3A50x26bARYH7PCMe3EuiiTx3Nqnh7H5LaJe6DwdrzNmbNPVYcOGBfT56t/8OUVI1xbMDl7g2pXT7NPfyh15y1EdJEPMtZh+1gtX48FMPuBL6B0bdHSEMF5gTvtUf+nMC/PTOBw0WEjmJfhhs246w2Zu46pASERI1maVrhySX6PlpGgyymLNDnHGYMYwxuo4VPIw8WL9D01oq+cu9VR1SHqz+acmdJl0lqBymcwl8KI+02cs4sCdaBS9s4KzjPPzeO+bSVxIEPtcy8n2GizKQzKPqCdXMFy2kcN2+zDTn8muo2cwXV+61TStb0u+6jqGeQsWKVtTKzey64w38k4JWW7ib2E2ZwDd51lx/bgOS/bdw99xP6v1jNlrcQY/wXFhDvFPb3LEeAtbdhhj6xJMdq1okY7nSSM2LJelfdEiTf5o/i86jBR+r2TLLmuOnznNPoMLJf8PdZCMcHEhLC9TBkmLe9w0mUzL3jPRE1rJFZmF/Xhnpj154thCjUqyYUIyI4a7B9YxcswS9rtEoBjqF1uSNaojaj1VDskR2KeVAU+cBweXjKfvnP14KhuPEHoN3dUL0dTURFNzOL9+8i/+u/yGNM6qQzKTJ1e16f6PH+inOZ0law/wqGRI6Tk3d82hR4sf6aExTh6PEJcmmv1+4h9/64xZUJm0qs2xaFnXCpSHpISMlAh83SMJdj2Kmf5sDlx246p96XE341m/03b8BvZbHVKOb9uc4opbhKzXQprwBB6dOcauBaMYoWeO4dotnPGIJP6pM7ZXfUnLz+bRsaWck4955iRH4OZ8iXtP40omzLxc/nMIf3AJ+2OytB+y3s7YH5qgsUb4bcOJY4c4ZG3EQcfYkvjUQVJIQ5EqJC0W03f1BeIrS5zLej5ecEaEZGUaVXKvAUKygHjfc6zo9gnNPm3F7/2VM726tfmEpl+05M/eA9DQOkJgdsly40okEm+pU6BySE7jatkNG6SQHEm3abt4kAxpPufQWzIBjfFL2WZ9nNPnz3P+/H6m/fxWDSAJxcXxeJw/zZG9i+nxzud0GKfF9qvCGrcIrmybyqhek9lqJcRR1twmNEucHq+ujF+1XXlIKlMQLYVkTbpbZWFkBjpw2PoINjvXMN/YivO3AkjN8eLwrMkM19Bg0F8D+PXrf9PyD/nzYvxC9O09SrdElcl5qSufQ9MYMbQnP3zwd777XRbfX73/pGObFrTvrnxedW83gHU2t4kp85gqgaR1AIlhvlxxOIu5ttKfYmar7FuPq16uOPjEUlQs1vOaFFwDhGQReRlxBDwqvVZIWHd0cHkPWgyewX77K9z2CCND7H6oSZ2R+qkuJHND72CoOYjBi47hL4ni8saJDBymhcVFHxKy8uWTZ0Ix6tGkRpCUZaSYgpzneJ47ivaoTnSZZIJ7igySI4atwcFftQlb46yLHutIgTqDZFYwDlZmmB11wctBn8XGNrhFCJ2o6YS5PeDu7dtcv7KNkR9PwFxYb3j9FKa6q1i8xZFSE0trKd83VzVn5ParKusgyz+rbt8+xtrByzGzdy+XhhJIStdJQn5mIiHe8jAcLJg/eQFrjY5xTbp28gnPs/NL1ljWUhYaVTANEJIVl5/Y3VqxNtW9UzkkP2DNXdV1WXmE3bNiyqC+LDjkSX7aQ3ZN6cYIrUN4xal0dUbb8NcHypZkdpQn5tN60HvaYQJUEpjsYoRGu/+gUTK7VeUmUJwSgoPOCNoOXIdTfAH+Zzcy8tceaB99WHqWbGlv4q/XrEBdQTL2wSWOWprjEpHD8+uqkFRm+InVKH6ee1E2/pgSyLmDm5ll6YFqLVa6frkrAZKffPPDC3bK+Y7P3hvAxipAslRqku5huN6YI45Pa2kstVTojfKHCMlGWewvn+nKIfl/vP/FGGyFDUGA1OB7bB3+E/0mW+Au7IVZFI9Dk4ffAAAgAElEQVSj/jg6dZvO4YeR8jGYh+j+/BX/+r9/lLQkiwsTcT+5hh4/DGKVYrAo8AJaw9vyj7/9L4NKIHkfHZ1bJZnKiHDHQLM1/VadIboIJHF3MJ7Sgy/bTMXybohynMpVn4lWT0s2uS4JQLx4LQrUFSQL83Kkm5sLG/LEq4Nk5GE0PuvDTj/5cv2kZ9y0M2DT5RcvBJHkB2A04Ds69jTicRVVEyA55dCzMnuultk3NsoFk/Hr2SNCsoqq1p2zRgVJL8vxdJqzjUfy2a51J2vDD7lySGpyIsaOKU2b0axZM979rC1/aZ8mMk8i7/YpprDAm/2T+tLynaa820xwN4ljoQ/Z1us9Pl91Uy5gMUXpQTgYaNKqSVNpWM1+GsP2A4bM79uWSYYuREtnZRWSc3mp7L4Q3zftGbzzLrn5hbJu3OIiCvJ8sJ6lQeuS+JrRbPJBYtIU+5g0/DKr7zmsEiQDiiiUFCAc/K4wwQcnMHDHXdIyc0vsCgoklNqJrVjmL/rKFhbJu1uLJAWEWE/k8497YOaXQ0FhIQX5+aSHunHRcg2HfF48hifJe8Lmzk35pu1mHlRRYAGSTd99t6S+Cv+R8uYd3vpHT9ZVFZLFxRQWSsh/7sL2dUZiS7KKZVEVZ40KklURRHRTNQUqh6SaiTtVC1Z01YgVqAySse4nOWC6hqtO11g/uRsfffRRpaZVl/7s81SKmeppz9IRP0v9jNhynsDk55xe3JWWA7fhlZEHRfnE3dtGdyHcbzoxWq9uxiOFFN3Vbcfqa5nKxKm9CsJ+qQnHznuV2zmqKD8L972TWHgyRukz5iEWS/vLNBm0itMesjXCSgfiVU0VECFZU+UauT8Rko28AtRB9iuDZB1EJwYpKlAlBURIVkkm0VFZBURIllVE/P2yCoiQfFkFRf91oYAIybpQtRGEWREk4x23MHKoMe7iVm+NoBbUbhZFSNaunmJotaOACMna0bHRhVIRJBudEGKGa00BEZK1JqUYUC0qIEKyFsVsTEGJkGxMpf1q8ipC8tXoLMZSPQVqBMnMzEzqk7Gzs0Px0Ba/c1+JForyF/V+NXo3Bp3T0tLIycl5JfW3Megp5rF2/ptZWVnSOlkZWv+nxwgtjPdfw9zqgnQrJcFTfTICJAXai+bVaaCApKj5q9O8oWstQFJ4sDf0fIr5e7P+MzWCpLCItz59BEiKn1ergOIt9dXGKsbWkBUQu1sbcum+uXkTXmqE511ln3ItSRGSlcnVOO6JkGwc5fwqcylC8lWqLcZVVQVESFZVKdFdKQVESJaSQ/xRCwqIkKwFEcUgal0BEZK1LmnjCFCEZOMo51eZSxGSr1JtMa6qKiBCsqpKie5KKSBCspQc4o9aUOB1QjLDcS2dZ5/gxed+1EJGxSDeKAVESL5RxVV/EitCsv6URUNJyYsgme5zFlPzXZz2SqteltP9sFs/hlaqp228+y7vTtxLaGKONKzLi//D0qt5dXg4cRznlvei1SfNeLfsCSBCWr7swJgt18odsFw+o+FYDB3OkYjyd2Q2ybiYbcHc7gbhsqxV5FC0r6ICVYJk7zJLQN6MiTsZeJ/ZjMbX/+Rt+ZFNsuNoRrHHI0J5pmAVhRKdlVagQUFSkkP4oSl82koT++jS+RR/vToFKoVkcRqPT5hjbGDE7u0L6Pmd8nippm/9nb/9q4n8yDXB/gt+7WWER0VJLyrgzo4BjNtxUXpUWp6fGd3fe6/kuKp3m77DW//6B/9qN4x1inNMKwqruvYRRxg6yBjfbNkKgay4QGxWdmSnawE5GSmkpJQ16WTnK46Yk0WW5W3MwG9bstExndintzmkOxZr91wk0pO9krhhuB7jI46EZgvui8i/toYvl14gT6JywHl1092I3TdgSMbism8hM0et4kpIIy7hOsq6CMk6ErYRB1sZJCVJntiY6rPj8CPSy2gUcWQSg4wfkC2cqlzBpygvk8TkFDJy88gOOM6iebu5FZhIboYHu0atwSE2Edkk/yIyQlw5snUpO28nVRDaS1hXAMkNx2+hO/wjPnjvv3zx9dd8LTVf8PG7bVl41I24UseeFpISZc+K33uw40YSwQ/OYa6zHaewXIooDUlJpg8Wk6dh6Z1a+nzNl8hCY/MqQrKxlXgt5VeEZC0JKQZTokDFkJQQ6ryftYunYu1WFpFQFUim+zmgu2MLO+1PYaI1HJ0jd4lNTsb9wAL0nZ9xbOpKTkRnUCxJwuuSORtmHCeoJGW1eCFAsucK7O894PHjx9y9dpbtszpi4paI2xUbTHWvEFcSXTwX1y7G+FxZSAoO8ogLv4mlvhOJJOPldJoDFo6EZsUrW5KJ8bjsmc/sg26k5VT8AlESnXihVoGGC8nCKJzMFjJjnA5OFfbfq9VEtKyCAi+CpCTeHycnJ6lxvudGcKLKq3B2As+8XEvuOzk9ICgpV/mmWyQhK/opru7hJGUmEvhYFo6T0x28g+PIkpRPYHHSs5Lwbt19QEC8SnxAdnwQnq6KcJzwjkwnv1AejtjdWl7Q12BTESQLc8K4YjKZ0RoLOR9YPmFVgaTUV+RtjJYO4cs+qzjvGYMk4QZWDsHk5heRE3KSRdr7uXLWDtMtKzC/n1w+IjU2xUVZhDy8xV3XEKo0UipAskU7fuveg169etH9zy78/rsAyRQ8Tluhv9AKnwJFRFGcWrIMs4uPSZDb5UR54hygJm0JvtxwcuCqf5gSkp5nWLjZhkdxGXU41qpIa8P9briQzAzgrO4Cps4yxy2l4Rbg68pZZZCM97qAjfYYfhkwkpEjRzJm8hz0bW7LuowKUgh1PcmmpbOk94T7PX5qx7hNx/FIyEc6rJKXxpO90/my9Tx2nTJlk5YsnP6//8nQqbo4+CfJu8ZkuU/wucTpDRNop4hv0kx0D90kVtp/VkBKhDe2O7WYPn6gLM6/OjNay5Szj+MpKCwGEZKvqxqVilc9JPOJ97yKzoCf6Dq1JpCUkBbjz91LJzl58iQnrTYwot1gZmww4fDJ+4RlySbrSHLiOLewC637/MWw+SerPMtVkueHzi//5vMfdXAtlZsKflTQ3WrilkeIsw0mOjo4xcj95j3CWHMLNs6BZMqtQs+sRmOlCecd7hMhHXPMJzXaD2chb1JjjY7mSCYvXIe5jcLuOv7J8v9WBckSrStWoOFCMsWX42vG8XvX8aw1scTS0hJLe2cCEjJRNCAqlkW88yIFKoJkZoATqwd8TXdNQ+7Ih3Synkfw6Opp/DKEJl04t++54v5MOd4TcmUJvT5pxSz7EAqEXiEpJMfT5MOfGbtBnzuRstTEe9uwvH9Ppm0+TUC6rDmZFXSLDUNa8ceYzTgnytzlJMXifskO7zTIT/bHzmAho5cY4KR4A099zO6JnWkz04aIrAIRki8q7Fd0Xx0k89JDuLpPm5n9NVmlXxNI5hHlcRHTlTOYMWMU3Vt+xmffdWGIRndatFuJY0QKhRn+nN1nidlWEy773efQpl3YXrhOoJoGW1kpiiQxnNedx8oN56nS1IcKIQlpTy5hYbicfa6yNmnOU1tWrt3DNd94FJ0niYmJRFzawszJ89h6JogskvBwMGbyrwOYOEPIY1kzjm7fdGXrw2RlT03ZTIi/K1Wg4UIyPYoH58xZsWKF3Eyl7x9DmLbQkgfP0yjp0ahUHvFmRQqoh2QGt9f/wTu/LOBOYnXGQPww7vYl3y+9TJ4wRU8KyXF81Gogxg9Ux6CicNg4lmHT9HEJzgIyuafbh486zOFqpLq9FfOJdLFk0YwZGFwKLNX6THVYylftpmMfliVCsqJCfsX25SGZT4y/I0ZLl2NxaA9m+rPYc/oGthYGGBgozZqx7Wk1eAFbtm1X2pvs5fiNAIRaUvJJvovFnAH0mGPJzVNbWWTmQsDtk+wyN2Hbuv08FHqcJFlEPz7Drg1rMdh7lCuPo0rVm5KwanohQLLDSJZv2SZNq96GlUwfJnS3AulPsbcwYpP5PVKBsHOrWbXbFs/YMk+rYgnpEbexsXtMmgDJK7uZ338mOiWa7MPhURhpUm9RHBo7AmN3EZI1LbKGC8lyiiTgcWY7Y7/9k9mW90jKFduT5SSqhoV6SPpi+PtnfLfsGkXSftNKAoz34sQBQ7S1tdHWXsCgH5rxD81j5ApNSSkkp9Gi02puKvqZpEEl47xrKv2mrOPqE+GJ9oRdfb6l1eLzZOapK88kHh5dxeCf26ExZYk8LiE+bbQ1u9Hs7c7oPkqjWOxuraSgXt0tdZBMiX/G/RsBBLoelULS4uQ1ju3aytatSrNyVDtaDpzLxs16Svsduzly/ZkKJJPxu3ScnQtGMGTTXkw3bOT4g3Ci3c9gdOw+SQW5+DkYcDNclt+suGdcP3OIS49qebmYAMlfh6O1cbM0rRu1lzJlqBySZOJ9ygLjzaa4RYVxymgNZqfvECvtVi1dDoV5GUQ8OMmdKBkk5/WdytoSTXRYv2wN2gZn8Inzx0qEZGnxqvmrEUFSUCaRC0v+pP28A4Qmqmt5VFO9RuxcPSTvsfbbTxi5L7RCSOZEPMJulzZz569g9TYjTCwssLDYiuavH/LPyaqQnMkPv+vzqJTGMkh2HLmEs57CHMAHbGrzFaNM/cgpUEflWFz2LmB4+34s2CzEU9bY456QL7YkS2n8+n6Uh6QyLdFSSNaku1UWRnb4NY5aHeHo9hXMM7bE7qInCRm+nF2/moVz5zJ75nT6/dyEDsPmMnfuXOYu02X/Ff+SsUBlSl7yqpLuViHkzGBH9httQV93FQvX6XPxcVxJV6sy5iIyEl3Zt3IbzvFJeDifwLTURgQp+F8/xxFbZ9wddzKyXW+xu1UpXrWvGhkkwW1nH1rMNCEoXs3rWbXla7we1EPyGaa9mzPIzL8CSCbjfnQtY/uPQMvMkWex6fIHQBSHxn3DO1OrC8lA9gxuwRBjd7IrgeSYAQux9y7V8Va64MSWZGk9XtOvOoNkdgROR83ZffQGj87rs9jYBjfprJdEvC+e5YStLYetljPgQw022tpie3g3G5YtYP4WxyrsgFNNsRSQzMoj/Z45I4f+Rb+eipYkUJDKA7vtTPj9N2abnOZZhmI0UhlPcUEOT88tY+PhMHLyY7h3bg8bSyAZy92DBmiNHcvYsWOZv1mHKR36st1N7G5VKli9q0YGyWAOje/Eb4uOE5Fcv87ErF6xvX7X6iGZy2ODvjT/WYdH6vpbs59xSmcUQ8ZswDFI5c+f6MjC9p/wz0nVhWQuXjs1aNFuLS6Z6sozj2eXDJn4WzeWW94noSLZREhWpMwrta8rSMY/duTovt1cC0gj5roqJJXZC7CbSsfJJ5FOhE8N4oK1LnP2PkJdrVL6qsGVAMnvf+HPvv0YtvEw52ytWD9FBZLE47J7Pl2afMckg0uEqNlaLi/rPkYztuEqJFZIq/44vvruV3r270///tNYq3+Qs1eucOXKFe76P2LPiGHimGQNikrhpcFCMicigqdubsiHGIBgzq6ZyK9tJrLHOYhsYeq/+KmxAuohCXkJJ5jY7Eva9jDksTz09PBn0jf5B4mJ3D2gRb8eozC8HICsLe/PEc3efPnPv/H/TaguJCE/8TTTP/2O1h03I8x9ED6ZsWHcsDbmbhLkx95j9+w+/NBhOntcgpXbEXofZM3JJ2TmF4ndrXLdXvdXXUEyPz2FxATZ+tp4dZCMOY1mq95seiifJCasuT2uz3qHF+9RWJgfguXkbmiMs8T3BQL6HZvDsG4zMLlyg/sPH/I4PB3FtnTSiTvkEHTLglVzZ2JgYsr6qZuxuvZUOolHNWgX/V9ZZZcgBXha8F0ObRjCBpsHPHggGF/C4tJV4C5O3FHVribXDRaSmQHOGM/owpctWtBCar6k0yQ9zt4LJzO/ULYeryaKiX6kClQEScghITgI81Hv0VyufZd+o9h3J5GswiJyMzw5tHQMnT75gm+l9ydgeO4EGwd9zttTqg9JIb7EkGAOTvyEz+Txdew5GDPneNmmA0V5pCe4smfeSDqWxNmCFtN24hqcKusWFluS9aJW1xUkVTNXFpIxpxbx6w/92HYjUj4bFHKjPLlitZYDHuomg6mGBtVZJ5mbEkloUAzpEuXzRwnJFHwuGTDrr8nsdHhGelYmyc6WTBq0nN33ghFWT0k/97bQatFhEoU3zPwkvK+as1z7GKGl985QuAZESKqIUaPLBgvJ4sJ8stKTiI+PLzHJ6TmyxeM1kkr0pKpAxZCUucrLSCjRPTE5lZyS3tVC8rLSSS4pl1SyCwrISU8iMSNX9vJSXIwkJ4PklOwykxaKKMjJICUts9xmzfmZqvGlkF1q1nwheZmqccYTn5ZDYUmXcDGFuRkkJaeTV52VK6qCiNcvrUCVIOnoyPrJ3fjoo49KzPvv/JO/v92MDz/8sMSuVed+7FXZ4TzVw56lw3/ig3ffpt9ae54kxHJ6UVe+7bGa6yHPySnII+7eNrp/9BEfftmeIWtPE1VSZyvJWrGErJQEkpKzarSsTAbJNizba8PWeeOxck0nR7pYWFiOkkv67d0MnGaAQ2ACBURhPWwhpzIEIhaQGPyAA0sMuSffEEE1lX5H59CnraDR+7zzywpuJ2SKDQNVgapx3WAhWQ0NRKc1UOBFkKxBkKKXRq5AZZAsLi6iqKiQouJiCgslFBQUVG4kktKTx4qLKJTI/EkKiyimmCIhHJVWXXFxIRJpuBIEN6/mI0tHYVERRYVC/srEWlwkTYvMvpgilfRSLPgV8lL+U1xUiEQi10jVT3mnos0LFBAh+QKBxNvqFRAhqV4X0bbmClQGyZqHKvoUFXg5BURIvpx+jda3CMlGW/R1lnERknUmrRjwSyggQvIlxGvMXkVINubSr5u8i5CsG13FUF9OgSpCcgnG+69hbnWB27dvk59f66uHXioXdnZ2L+Vf9Fx9BURIVl8z0UflCoiQrFwf8e7rUaCKkFxWCpLZ2dnk5OTUGyNAUgC3aF6dBllZWQhG1PzVad7QtU5LS0N4IDX0fIr5e7P+MwLvhEZBZZ//6T2iNCQzMjIQ3vrqi7G1ta03wK5PLw91mRahDgimLuMQw64/L6KvoiwESNa3F/BXkW8xjvpdzzMzM6sPSeFNqD59xO7WV18aYnfrq9e8occodrc29BJ+M/NXo+5WEZJvZmHXZqpFSNammmJYggIiJMV6UB8VECFZH0vlDUiTCMk3oJDesCSKkHzDCqyRJFeEZCMp6NrOpgjJ2lZUDE+EpFgH6qMCIiTrY6m8AWkSIfkGFNIblsTXCcms24YMW3OR+DdAs4KcQGyWj+KQzxuQ2AaQRBGSDaAQX0cWREi+DtUbdpwvgmTmU0esD1tx2b/kTIyqCZIZwAXDefRo3ZrWqmbxMSJTZFP7b6z6kjmnUmq0SXnVElHaVZjNTP7c7qq0zI3B1eEwpgddZUdjhV1DZ78djk8SlW7kV8WSdPzPr2WyVlmoZ+Bpr8vEbmXyOWIn3mk5avd4LRe4aFFOgUYAyTQeHl6JRptP+fTTT/l04i68Iqv5Jysnm2ghQlKsA7WtQOWQzMTnzF6MDbaza7sWA3+W/5+F/3Q505I//zLFS5HAogKy05J4Hh1NtNw46PzJgI2niErJh4jD9H77/9HkgzJhdR3P5otBilBq7zvyOMP/+w5vfzYKuyh5sNnhXD9mzFoDJ5IEq2enmLnFAnv35yrxRnF4fCs++/QTPv6wKf/6dzM+/rQlvYbMYp3ZfnZaXeXSPj22GOzH+Zk8r4/MGTLEkEfJWSIkVZSszmWDhmRxqg82a0bQY/hKTj16Ll2DlX1/Fzscw0lQc+J3dYRr7G5FSDb2GlD7+a8MksXp/thbGGFgeY/Egnxyc7Jl/+fsbJ5ZjmOAvjOJqZkldjm5BZQ6x0N6mkah9Hi0ohgHls425IpfLHmFoewbugSH1DQys4Uws0h8dhfrbfPYfCmK/Fo9DaSYwoI7rG+lgbFbIvGRp1nZbjW2Dy0Y9W5T3n7rX/zzX2/TtFkzmr3zFv/41795q0lTmo02wjNSOBC6GEmeMt/CmlLpQvckf84dMGaz6Xku7tuG8Z5TPFW0A6JsGTvCGHcRkjWusA0XkkWpPD6xkRnTF2DrmVZjgUSP6hUQIaleF9G25gpUDMkiIu5as2HZZKwepJaLIOLIJAYZPyA7vxQWS7lL87Rn2aaN7L5yg2MrB7PK8hZRqbk8tZqMtqMv+4Yv5VJmPsVFqTy5ZsmG8Vb4lwrhZX8IB47fQqf9YDZc8CMqNo64mHA8rxsz19gNqtSSFA5aziAuLk5pEpJITfDnopUCknpsNTzA3WC5G4+9DB1qKELyJYqvwUJSEnkf0wVTGa/jQORLCCR6Va/AiyCZEfuMp0+fSk1QaASpqrs65WcSFxVFTHIayc8jCA54ytOwBHIKiyjKfE5AUBTJ2VnEhT7laWAo0YlZKM6Iz8+IJzJEFq40/LB4siUqD8eiQnJTYgmJeE5yegoxgtvgSBLSc0u3LNRnS7R9jQpUBMmigihu7p3DRI2FnA8sn8CqQFLqK9SR9VO78X7v1VzyiaMo9iI7TzwlJ6+Q7MBDTNM+gberE9bbF7L9ZkL5iNTYFBfnkRgWQHBoIpV3TiVwZdMadFeOpX37Vvznrbf4zzet6dJLCwehR7WqkLy/lVatWtGyZUuZ6TqEhZbn5ZC8iNOJTYz7Q35P4WaoEV7imKSa0quaVQOFZBFRD46xcPogNtg/JiLAG1dXV6nxCklQnvxdNY1EV2oUqBiSecQ9dcNgxg907tyZzp1+pUf/AWyy9yc6rUAWUuA5FgwexJCVm9m8ZDwDu3Wms6Y5vmk5ZF+Yw9vv9Wa97V6WaXSmc99xrDwgTGbIIyUqiPM75jKyTxs6CmF37syPPWZiecWLREW3WHY8biYT+br9WHQs9Jg1oDOdBy/E7Io/WWryIVrVHwXUQ1JCkp8TukN+oPOEmkCykOzkKJ4+lv3/XS+bMqXLeJab2nLdNYD43ALpWF1hbhKXlnbi8/a/M2D+SWKrKIskzw+dX/7N5z/qoDIN5wW+w9jdpzd7QoGiAjJjn+F66yymGxczZYEpV4Vnld1WhsxZgZ61A66uT3melVfxS15mEBf3bmbBUgsc5c85xfNO8R2UKMvnCxIm3lajQAOFZAZPrhgws38flunuYuX8CfQZMIABv7em3Vhtjt+PJLdA3XneahQSrdQqUBEkc6KuotWnPQMt3GX+CtIIuLyVkT0GsMo+COmGhlJI9uKTn9qy9NgdYjOVUeRcmM3//eMHfps4CvunKvZJbuxfNppe/ZZx/GE4ioapn800fv+iHzoP5f0FUkiO4633WzNoqTY3wpVhiFf1WwF1kCzIjuTWIV1mdhvNUv2aQDKH0PvH2aA5gAEDuvJz8w/58NMf+K1LGz77dgHnw5OR5ERw57w9pqvWceLxLfau3ctV18dEK8b1KpGtsCCcYwuHojnnGCrVVb2P1FDu3LrO5cvWzGvXjgUHL3PV4SynLNYwQHg+VWg2cC4onjwh1CR/Ll++rDTXnHHz8uT2iW1Mlvvv1bElX7X6mS7d+0rD7PTtW0y1e45qh4v6BIq26hRooJBM5NEJbf5q2px2Q9ax704I2ULuw2+wflIXfhqxC7e4rIrfzNQpJdqVUkA9JLN5qNeTr8Yd4nmR8iUkP9abgytHMWC5LcHCP10KyR/5z4it3AoUJiQoPzkXZvF/TT6gv4XqIycHvzN6jB00AgOHgDLdWklcnPcTb/fZjXQeoBSSQ/n3t11YdEokpFLZ+n9VHpISnj91wnjpHHbs3Y2Z/hysrrrjdMYGGxulMZ37B+0mbsb68DGlvf05rj2OLHmZkuY+/SH7Zg+g16x9uFwwYr6xE0GPnDh5fBcrp23lltDDWpBO2J2DbFy0hJ3HHXkQEC97sasN+YIcWLV4JuPHa/Drxx/TQWM8k2cvYr9zBLF+t5RpV8mbzUVXQpNUnlW+Rxg/frzSTF/CNtvHqP6LEm4YstT4CPdDpU89XNa3ZMEZEZI1LcIGDck/mnVkutEtVFcapTmuo+1XwzD2iCVP+RyvqX6N1p96SPqzs0dzWg5Zye7d5piby43BBmb2/42OI7fgLBSGFJJdGKRziqcppSUUWpJvf9AGI08V+4IwLhlMZojGUs76lR/5SbKfQtO3Z+EkeJFCchRfdRzDsQCVMMTLeq9AeUjmkRDtybUz3jx1PYqZ/gxMDp9kp/Y85s1TGs1e3/Pl7yOYNWeu0n7JOoxOearAI51gJ1uM5w9j4AZL9m5ag9WdUMKcLVm+8xrxkjyC7xzhkbyfNSPSk1OWBhy7FVR73fRxntjdCyQzN1ja3WoRmEfUYwdO3rjPVRNNvu0+Wpl+IX9TNfil9zJs3SJkrcgqlqAAyQ37TvEoSnYQhQjJKgpXgbMGCsk0fC5soX+XAaw6/ax01p9a8VervmxwiiJHMRuktAvxVxUUUA/Je6z99hM6DFvKmjVrWbtW1eix57gz0pdb+ZjkBKOrhJYZKMy5MId3PhrM4QiVRGT4c3LDcIaMW8/1MBV7xeWtVbzbZLYKJCfy/R+LZRMiFG7E73qvQHlIKpMcLYVkTbpbZWHkxrhw7MBhDustYa7xXqyP3yM69SlO5iZs09Njs846xnVpRq9Zeujp6aFntJ/Td+U9UMpkvNxVpB2jhxvzIM4H0z69MfNN5uL6Lkwyd+bqobWM2a/6ZgjEX2ftYmPOqUIy1R3rLVtkadTTY4f5fk47OXPGXJ5uPT20pw1g4JgpLNSW2c3o8SGdxx8jQOxvrVH5NVBIFhB+9yDThnRn0SH30t1z/lYMECFZo8qi6qkySA7ZHYhKb6uqN9l1dSGZH8ql7ZMZMmQZ556Ub0kmn5xWpiUpQrK86PXfps4gmRvLXfs9mB915P4ZfRYb2+AWIXRFxnDHcg87DQ3ZpjuVP9/ryXxDQwy3rWPujGnM3uJYqoPxi4EAACAASURBVBfq5RV8iln/GRzwc2Nn714YP3ZjR7+R2PmHcnXXFL7vq8myZcuUZu4oOvdbjp0qJEMt6Pr9cNYYGqKvs4o5mgOZY36Zi5aGGAppNzRkxfjf6TdyPMs2Ku0MDS8Ropjc9vIZaVQhNFBIQnbwTfSnD2DoalueybrmpQUbdnwarTtN5ohfAuLcnZrXdfWQjMdm3Jd82Vkf38ooWV1Iko3Pqc2MHTSSHZcDS7/0kMylhW34aZwtMUJ25LNbxZZkzcv2dfmsK0gm+zpxdK8ZDt6JRF9XhaQypyEXF9Jt9FHiBKu0YBwObWGexYPSY5pK5zW8yubysj9Zc+UuRr16Y+ofzoOT7sSnhXLVfA4dNHU4cOCA0uxcxl8j1mFfBpK9+5ojdKjkxQdwwXgaqy+ozsWN4+qmdZgcOsXZQ5d4HJ1Qra7aGmasQXtrsJAkNxbn/csZ0G8SJteCZBN3Qq+hNbQP43ZcIixTnBL9MjVbPSQh8dYqOjT5jt46l5SbRWfG4HfvHKe85Js6VBuSkJ3gyp6lo+n712rs3SNL/vj+9nPp/nUfDLzk69pESL5Msb5Wv3UFyezEGCLCQkgpEHow1UAy/ioLO/VmuWJtZNIzrtlsY835F6+wLiyIxG7FOGYttqMqQ+BJ/k54xfizq3cvDB3tWTZxBqusrlS9uzXUgsogGfNwHzqrNnPWNYRQ5yOsm7mW454J5KksJX6thfwGRt5wIUkhmQl+2OvPYUjXX+nasyc9O/RGU9eWh9FZSMRJOy9VXSuCpPBy4nXbmL/e/54uguaCGTKeRZZOhCfLJhLIJu4MospjktKU5pIY9oD9yyfyV7eOdJOH3V5zLacvepCgGG8RIflS5fo6PdcVJFXzVBaScZc3Mrj7MDbYehArX1eUF+PFVev17HOX11fVAMpcV3+dpA/7xwzgh/feo+1UUy663OWRtydXd4zmo5YdZP8Xxf/mj7Z82WU+NmVakr/J/1vd/+hMl2695C3JBNztDZk4ciYGp11Jzi6EvASeutmyYbAxzknZ4mz+MmVX1Z8NGJKCBMJC4hiCfD3w8BDMEyKTs8X1QlWtHZW4qxCSUj8ZREj1luvu+5TQRJU+77w0okJCCI9Pp+xOYkVpkXj7hKDgaekkCC8+ETzzUZSnBx6hiaX31yySkJ0Qjn9gFOnyvQtKhyH+qq8KVAmSN25juHQU7dq1KzE/fvEeTT9tQZu2bUvseg6dxDE/ZU7T/RzQndWXn779hL/Wn8AvPo7LOiP5bdBybO/5kpCbT6K7OaPbtaNNp95M0LElqPzwtzJA+VVxcS6xz7zw84994SxY38MzGNRtDvuc7uLu4YFPcKJseYnQ3Wq5hL7rbOXPKXn9dtrD9KlbOF0Gkj27aOPg4cEDp7OYrRnPTAMbdkz/kzHzt3PSLZyETFW4ZxHrf4EN212QiGOS5cqvKhYNHJJVkUB0UxMFKodkTUIU/TR2BSqDZGFeJulpyWTnZJMcH01YWFilJiI6lnTp6nuZqkV5mSQ9j5T6eZ6SRUFhIVmJ0UTEppAnHT8vpjA3hRgh3Igo4lKyS7ZCrK1yyUt7TlREPJmSotInchRJyMlMISFDFW7CO34OKcnpZOdJlO4lGTyPy0AibHdeWEB2eiKJqRkkP4/keWJ6Bd2quSQn51As9p7VqChFSNZINtGTCEmxDtS2ApVBsrbjEsMTFaiqAiIkq6qU6K6UAiIkS8kh/qgFBURI1oKIYhC1roAIyVqXtHEEKEKycZTzq8ylCMlXqbYYV1UVECFZVaVEd6UUECFZSg7xRy0oIEKyFkQUg6h1BWoEyZycHPLz8+uNsbOzQyKRiOYVaqA4FV3UXax3tVUH0tLSpM+U2gpPDEesm7VRBwTeCY2Cyj7/03vEMoz3X8Pc6gK3b99GeONLTU2tN8bW1pasrCzRvEINMjIyEIyou1jvaqsOCJCsrbDEcMR6WVt1QHjOVRuSQiuyPn2ElqT4ebUKiN2tr1bvxhCb2N3aGEr5zctjjbpbRUi+eQVd2ykWIVnbiorhiZAU60B9VECEZH0slTcgTSIk34BCesOSKELyDSuwRpJcEZKNpKBrO5siJGtbUTE8EZJiHaiPCoiQrI+l8gakSYTkG1BIb1gSXycks90OMNfoJklviGb5mQncsl7GwQfJpVKcGeDEbpvT3A1OKWUv/qi5AiIka65do/YpQrJRF3+dZP5FkMwKvs3J0/bcCsqsXvxZoThZrmd8v370UzWbzhGbJtvg9c6GVmgeiqrl8yMrS2YxOWm3MBk/DbsnlblTd6+YjDgPTDWHss+v9NKEglRXdi3ayoGz3sgPplMXgGhXDQUaJiRzn+Nmt5FhHTvSUa1ZwfmoFMRDIqpRU8o4FSFZRhDx50srUDkks/G/sB8jg+2Y7dJhSr+K/tuCfU9GTrWmhD2F2SRGBODx8CEP5eagVkd6rD1BZEo+xJxi2Mf/x39blQlz1EJ2OQnHG9f+p6gogv2TW9NmgB6e1WQ+RfnEeexHc9AqduqNKfOM+5lv/tOcr775kfalnn063M0vrP2MNIIQGyYkiwvITn1OaEAAAaXMPXZP/oXu8w4RkJSr3Fm/ERR0bWexLiGZn5GA7couDF1/CflRyrWdfDG8eqhApZDMCuTsvp0Y7L1BRFIcESHK/7azwRB6aJ/E2++Z/P8eTFhEcsWtwsRbrJ2ny8lH4eQWRWMzaRm2Ks8JH5ezGGtPYslR7/Inc9SKbtEcntSK9//5v/ytyX/4qkULWqiaPydjcN6XithZlJ+Fu8UYJln4khwfXuYZp9Sl9LPvOVniMSA1Kr2GCcmKpPC1RqPTNAzuBpElHhtTkUpVsq9LSOalxbJX8z+0n2VHbJVSIzpqCApUBsnYR7borZnG/tsJ5V5uI45MYpDxA7LLHk6qIkqqhz1Ldbdx2NWLa3rD0dp1hZCUIiJtJqNl74rZyLXclbrPINDFhs2jzXCvJDyVoKt3GWWPZuuvaPabDu4JCSSoGl9HdkyfxBAtG57kqhyPVSaG3PQLzPnsCyYfjQRS8HHYhsaHH/JhBaaH7k1ShEOYxU+NFGg8kCyK5fyavxi2+hD+caX78WukXCP39CJISnIzycyUmazsHAqKSgtWJMkjJ0vhRrgvf2uR5JEUHcSucR/RduohgjIzEfznFyrfaooKcsku8ZtJZnY+Cu/SWIqLKMjLISe3AElhAbnZiniyyC0oLO22dLLEX69RgYogWVwUx71DS5g+ZCHnA8snsCqQpLiIwmdnWTi8Pf/qvZqrfvEUR59k80EvMnIkZPiaM3aNI0lh3pw2ms16h9hyMC4fs2BTRH62UEfzX3z+pLsZf4w34o69Fv/56H3ebdaMZqrm3Xdp+s47vPNOU95t9i5N3vqBGeY3iVA5r1yIL9FuMk0+ai6HZBIep/ejM9GChykppJQxfgc0GWbkTHKWCEn15fdi20YDyQKPA4zoqYGWzWMSVQ5jfbFEogt1ClQMSQmZCdFYTvsPzZs3p/lnn/LT733YcT2B9Fzhj1pEXmYKd/fPZWCHj/lMcPPJWEylXV/F5F5fxWeffkKzt/4ff3/7fT5p3py2A6ez/54w71BCdmoiN3dNoXf7/8r8Nm/OR78t5VpAXEn3Wu5zf6xn96aLhiH2V0yZ17+5NC2ffvgzE7fZ4xmXi6QMtNXlUbR7tQqoh2QRac+c0R/1Pe1H1QSSxRTkpJMQE0lkZCSRHsdZ2GMWesdv8iQykSz5AciFualcW9WBpl+0psf8k1XuwZDk+aHzy7/5/EcdXGtVriSu62tjbHOjNCRzvdnQsx/zFw0uaUn6Xd7BSOF/VIHpv82ZVLElWePSqRokR5beu/XN23EnD7e90+g9dzO3AlJrLJboUalARZDMT3FlQ9/v+HXbPZnj/BT8zq5j4G/9WXcuHAlJuJjPoVdPTfY6h5IjuIq7yiqTG6RmyrY7rKi7NT/9EfvmD6Pzn4uwdY9E8a7jtrMH334wgoOxslEcGSQ78v7HrRm9ZgOKuRfJrlZM7fUFfdecxD+x4u4sZS7Fq1epgDpIFubHct/WiJkdNFioXxNIZhNwYy/z+/7Mzz9/T/P3mtCk2Sd8+01zmn00DfvQJCT5STx1c8Rk9lwOuDpissKah8HhpFShw6kwPxiLsR3pO8wC70rFkpAWHYS/rzfe3lUxt9mnNZ0V2yxx9I4mPU9WXzPPaNF68zVcjQcz+XAImQlhVQsvMhVxSLLSAqrwZtUgOfrNhmRB2gN2zRiO1vZLhIjzoiusDNW5oR6SeXgZ9ufTYXuJUun/zIvx4sCKUQzWPkV4QSSXdCcxYdR6HJ5kqJ1hrB6SuXjbajN08HjMnIJKWo2yND/n2JhPeX+8vXTauwySP/FJx9GYu5ZeLxZ4fBYdu8/G1jeW+rUDcXXUb5huy0OykPiAm+xcOhGdXaaY6c/l6O1gvFxdcHFRGvs1fekyfw+OTreU9ncf4BmcWLqMsx9zYFZ/es/Yw92ru5mz/SqhTzy4d8WMmQOW4vAcKEglwNGYRZqz2X3Rg4DoNCS1IncSt4xnM7xvV7p2rYr5jZ+/+pxvWv5Mp4lG3IlIkabD3cyMh7kZMkha3OPmjpE0a96aLpWF2eYL/j7Fljyx+6RGJdkIIFlA2KVtjJuyjIP3IkpaHzVSS/RUooB6SAZg1rc5P2sacvbsOc6dk5tj5qwe3ZOOI7fgnJjFU0cjJrXvzsQlBhw554RPdDqqcyTUQrIgiFPrRqMxeiOOAaUGaaRpijk4jHc+WIIzIIPkn/yqsYU7ZV+KPPbRp90Ett0OJlPsci0pz/pwUR6SucSG3ee09QOeuB7FTH86BhYHWDNlCEOGKE3f9s35uHVXBg3WUNqPmcHqA/dRviJlEXPHDsP5Q+i71oqDW5ZjfiOYQIftjF9zmtjCAmJ8rvFMvjY/NeQ+B7avwMzBr8JZpnWrWQXdrcKARV6mEpIWi+m7+gLxlSXGZT0fLzgjQrIyjSq51/AhmR/OBb0ZTF1hhmtUFfpPKhFLvKVUQD0k77H220/4sdtYJk+ewpQpqmY+m3Zf5FmGEEYcrkdNWDlFg06f/cTgebrsvh5Ajnwdl1pIpnlyUKs/w2Yacy9KmQ7FVeHVhWUg2Yeuo/fhq3Cg+JZCsg9LzviTKi6UVahSL77LQ1KZrGgpJGvS3SoLIz/RleP7D3NQZwGzjc2x2H+d0KQg3E6d4Ii1NVb7LZjf5wOGrbHG2toa6+PnuOUdU6bHQpmeGl/FeWFve0wWhxBPhcaMFaPGsu5gmTFJVUhaeuF/wwbdvedwulJRWDcIeGjDgqPuSFQmv9U4/Y3QY4OHZG6oI5tGj2eB4RXCFINYjbCgazvLlUFyxN6QKs4gjeH2fmOWDPyJpr8txjEkE6FxpxaSuf7Yrh7GkAlbuBlcvqM02XZClSCZdceQHq010LkeSIY44a+2q8VLhVdnkMxL5PG5few5egmXk/osNrbBTTplNIxLehtYrqXFgnkatHunA6O1tNBaMJ1RI8cyfYsjiS+VIzWeQ66ycd0qtIR45GbhLE36/taKFr0nlNjJ7uliczsQYb8D1U9JS1K6BAQyor05ayYPb84YunbqRr9hk1kgDf8A9+MzaqnLWDUVjee6wUMyxtmcSSPHoXva5zV1mzTMyqQekpEcHPoF3/UxI1BlTPJFCqRfXUWLT/5k4/0kJMUVQJI0XC21GKIxg4N3I0uPNZHK5fmt+HG0HeEl3a2daDtwFddL9UNl8XjPNNp2X8yZJ3Fqx0NflFbxft0pUFeQFGbHHrEw5czDGCKvq0JSmZfIG9r0G3QAYeUh6SFcPryVBWb3Kd+xr/RTo6s0L2yP3Se+QEJu7H1s7T1Izkzg3qkdaBuZ4q2or9nh3LF35J5fTLk0lIVkqXQk3cNwvTFHHJ+W81fKnfijygo0cEjm4HNqPRNnLcDGTdy7pcq1ogoO1UMSoi/No02Tnxlt6kzJ1svZ8QR5OOH4VOhrTcLH5wmBgSV3CTs6ga/bTcYuOF3akizIiMd+wQ+07L8Z13RlYtJCL6E7bShDpxpxMzixBHKB55fQ9+uuGPjIHMvGJFvR9NO2zDJyIiRLFkas20G0+vdloslFwtPLvJ4roxGvXpMCdQXJjOgQnj3xIT4P4tVBMukO63r3ZvbFaFnOk55x9ehWVp558ZZ0RZJYLu9Yhs7Wy7zYNYTYT2Gq7k3i8iSkehgzbPRBhNGDnOeenDZfiZF9AAkRD3G8bIP1LnM2L9vHtWdxslng8nIRIflqK2jDhmR2COe3TmD09E1cCxYHoGqzalUESbKCcbJbS89POjFs0iQmCWbWArStLuEbK4wJZxL56AIGKxfK7k2aRP/pizGzv09CnmweYbEkj5CbB5jZ+zu6j5zEvPU7uewvADaD8EcX0Z06ihHDhzJeHn6fGUs4eOgOwuRE4SOD5O9832ksyzetYu5oWToGD5vAsi1HcI9NKwGs3Iv4VQ8UqCtIqmatLCQTXUyZPWYCK3ZdR7Fven6sN46HdLB4+OI5DNVaJ5nykM2z5mPrm4SkqKgUJJFkERvqj6ffc4JvmKBvYsh1vwg8Tx9gnZ4dHrFpJZsViJBULdG6v27YkJRkEO3vxiOvIJKkC/LqXtDGEkOFkJQKkIjXxYtcVJhrLjwKV5lmmvUcXzdn5X23EDLlgFToJ8nLIMRNFsb/3955gEdVpQ2YXXX/39V1dVnZtW+xgQ3bLytFWYorCYEAAQQWUEAWQZqCSyKEJqEHAZGSpSNVCJDQE1JAEJAmaZPe26RNen3/505JhnATZiEkk5lvnuc+cydz7r3nvOfkvnPOPeVo0DmitaaaXykZmgsEHDE7/0+JlJs17xokqXTcWU5A3M8Em+Lhd4GYzILqm43pWvJuHQQskmTgOdbNHYejo2P11qXt4/yhTQfe71Hzt8GjJ+NtNjtPvsafFa5D6d6uNb3dd3A1LYOAZWPpPWACK/b4E5tfRtbPWxjn6Mj7PfszevYmftZ3MqufTVWljoigQ5wIiDDrSat2TBbBS7/AfcMpkguVMY9V5CVsxOXRV+hqlhYlXX//vx6MX7SLcOWeVZLGtSvRZOSX6FtZlDOrSjIzlL3LP8Oxe3va9JrC1lPxUs7VsuEW/mbbkrwFIHKIZQTql6Rl57hToWokqdK79U5dVM572wTqk6Qy6X1KYjRZ2VnEhF4kODi43u3shcskm80QXp6fTuTP5/TH/ByXSWGZ8mPrImevxJFfoXQXq6Q0N46LynnPXOBabFYDtzaUkhmlITm3GFMn04qyDMJV03EJTWJ23cPVKivQJYegyTDriViSR1LkZQOTK1F3aGL2287iZnkCkWSzzLamj7RIsunzwNZiUJ8kbS2tkp7mQ0Ak2XzyyqpiKpK0quywiciIJG0iG20uESJJm8vSxkmQNUtSWfGhvLSEktLy6uc4jUNFrnI7BESSt0NPjr1TBESSd4qsjZ/XqiVp4+xtNXkiSVvN2eadrluSpHKDLC8vt5ptx44dVFRUyNaIDIqKilA24S7lrqHKgCJJ5b7SUOeT80jZbIgyYEmFoEXXWquA5ObmotVqrWbbvn179QK/poV+5d200PCdeVduaMomnO8MX3vkmpOTg06nkzJlXKzcHsuANaZZuc8poqzvdYMkm996kvUlT767FQKW/Lq6lfPKMfZLQLkZVVbK0iz2WwKsM+W31NwqkrTOzGzMWIkkG5O2fVxLJGkf+dzcUimSbG45ZiXxFUlaSUbYUDTMJVlQWsnKM9nNYttwJhVCfGwoJyQp5gREkuY0ZN9iAiJJi1FJQAsJmEsyOa+cFtPCmsX2qOtpWOtoYSolWHMjIJJsbjlmJfEVSVpJRthQNESSNpSZNpQUkaQNZWZjJkUk2Zi07eNaIkn7yOfmlkq7kmTOhe9wHTcE54nruaItUJmNpZSUkCMsmTuTDaeVVd6UVx4Xd3owfslOwlPNZkw2fqtMnHzKy52pc32r15NLubCLBfM82HshAbWOw+XFOk4sH8bElUE1ay4az9dc3iyVZFleCoFrJ+A8dCKL9lzCbHlIs6Rq8V86hsErAinTz/5cgS79Il7u45nrG2UWrmY3+9xmpo7x5HCsVr8Ac1VVJadWfsDoRX51riYfH/AtbrO/xj8yo4Enr66Jl+zdOgFLJNlyWQKTA3LYez4d568j+fUNTbLhPPBVHJ8F5zBjW6yxuTaCV9anssg/nW5fR6o24b68S8umH1NpZzxfq8VxfHoii0lbY2h5wzUMzcDveOewLTiZjtLceuuZ3gyObBBJKt22lUGbVVVVTZJkZTKBm79yCFw4gBdb3U2L+wayNbpm0d7qY0vSOLtpPE7dB+F13rgmec6PLB38No5fbCc03bDeYXV4KshNDGS6U1u6zTyBQaFp+Ht+jJPTeHZeyFBZrqaKwuyjjH/ucVxWXq17pv+ai1jlnmWSrCA75gTT2t9Hi3v+yvuffIeq8jIOM/bVR3FcEUKpIsmKIhICPXBq+xYzT6itV5SD/7w+PO84ncCYbP2PncqKH/n8z7/lvUWX6mCawL4pvek28CtOanJVfiBZJWa7itTNJRlBx91ZnM4zlJElm2JpVVtgrhE84ZXJ2cwSvt6iMQhxZgxDT+o4ey2TXssiVCQZxezYchKupPGw/nwaXt+o5XhiAXO3RfM/ta+h/xzP8rQKNGcSeU4kadPltEEkqchR2cwLeWNSs0iSWafw6NuP3p1e5qGHHmHkjhgKaq3DXJJ6lfVjHek+ZAUXjVXA7B9WMdBlJEuPhKKrqJWqikISTs7B4ZW3+CrAKNWUUywa2Ydek9ZzUVv7AFDmFc3yncBfnnBgdWitCNQ6vTV/tEiSFflEH5uPw+Mv067ds7zU41MOqCzfnnZwMi894sy3mmz9j4qKwiz8F/bmzcErCDVivY5FVhCznV6j98xDxOYYxtVVnHbjsQc7seyaad3J646AWF8mOzkwaL4vUXkyFq8WHav4aH7/UO24MzuGUafyOJteQlpeOUH+CbSec33nnruna3AMKCA6OYd+Mw3ftVyeyJLLOtb7JvCn6deH13cOWpzG+aIKdu82SnVOND1P5nM1XMvAxeEqUg2jxdosIotK8PKKQDruWEXxuWORaBBJKrG7cuUKW7ZsITMzs87IKjVO88HCDVX7tESS2kBPer/eH/eVrji0eYzfDd+K9jpLlpJ8ZSf/6tGeod9eMDbH5RC8YgT9x80nIDKP2vXk8sIsTri/x0vtZnDKeG9OClrNR87d+XzTWbJU7sVVlRV4j23Fk07foKldMa2TnPV9YYkky3VpHP7yfV59/V98tXgQf33hH0zzrl2XTGPf+Hb80WU5MTnKL5MqCrXn8HB6nuEbo1Rq4qA9uQiHtn2YczSUXCPjgKmP8WDnJYTXwTT6wAx6OvRjsfJjp3ZGWh9eu4zRzST58Mokvoks4PsfcvCNKCEnOouOS41iM9b27psVz5rEMi4EJ3OvsVb41rZMvENzGesVxV0qtcKXfQrIK9bx4QyDQP/gGc+SsBIOByXxjJuKVKeF0SOghNzMbLq7h4skbby0Npgk/fz8cHBwYNmyZcTHx6tiU+ZlTEtLIygoiPPnz6NMQ2UuTdWDLPjjzSWZhd/iwbh8upTTUaFsGvYiLX8ziN2Z+TXiK8nk0nduuHT7HJ9kYw0w+wzLhv+T8YsOEZ1f+85aRYH2LK5d/sTbc08Zb+YpBHwzlt7dx7DtfFbNuc3SUFlxnFEPPkSftVHNusnv5pKsJC81mFkOL/CvrSGE+a/A5enW9J2yh2gzHqQcYMybDrgejCRfqVhXlZN5ZgE9nh3AtjiVXxloOe7Rn1dc3PAL1xoZBzHp97+h2wpNHUxj2ec6AAeXWRwP16nmi3mUZL9pCNQvSQ0ddmbhE5LDqDVxDA/MJ6a4CI+1MTxkJr7frc3kp2wd/15mrAHOimGgXy5HL6TRfZ6a8GKYE19JzqVU7jFK9aV1WgLSC1mwNYpfmp27ZkhKAt+klRP+QyL3uoWJJJumuDTaVRtMkor4OnfuzDvvvMO0adMICQnRP6dUUqKI0HRTPXfuHKNGjcLNzY3o6GiUCNzuDD43k2RVegBfDRzCZyv9SSiCpJ2j+evD9zJgSwqVRvcVp4exaaoj77sdMnb8qCIj6Fv+OXQsnsfCuaHVr6qc9EA3Oj3VliXnDflVmXiaZaN784/x/+FSrnoeFh/8mPsedmJLgvr3zeWvpvysM76VpST5ufPeSyPYmwKF0UEsHPwcLzpNxDvc1AxdSfzuCbzRawbH47JRKoFV5YUEzOrE88O+I1nl5FVpfsx0bsegWfvRZBsClB2bxG8f7IJXnMoBSvnT+DClX08GzjtAZIF6GPlr0xOoT5K/nBPDh0G5+J5JpeOcMP68OQP/jArOBybwl9kG+f3CNZxep4uIDUuljVFuD3+dyOIrOjYcjOePKsK7e3k6F4sr+W6b8RxzougeVIBGo6W/h5pUw/jVpmzCcwtZtVbD3a4iyaYvOXc2Bg0qyffee4+OHTvy7rvvMnXqVE6dOkVBQQHZ2dn4+PiwefNmfZPskCFDmDx5Mjt37mTDhg38+OOP+tn/bzWp9UuykhQ/Twb+cwLfBkRTpFwk5XuGPduKe5zXk69YsqqMtJA9fObQCfej6YZoVGZwcuUnDPt0Lic0N95Zq8oLOPHFW/zp/zy4pD+igvjg9XzcqzOTNp6roxdnEXuH/5ZH+m4i6VYTayXH3UySFSU5HHXrSNvRe0hT4lwYw5ElQ3n2BUdmfB+qFyIV8Wwf93f6zNpHfI7h+Wx5/nmmt3+SkbvUFFlJ8rGF9Hp7IHMPXiVHz6IY37FP0PIfyzH1R74eUTnh3rPp17MPC3xDb/yxc31g+dSEBOqT5CMrk1hxVce33nGGzjoeCSzTlFAQn83fFmr0Nb5fzohjY3o5B/ZFG54jxqNJHgAADLJJREFUukbw5pZMDoTnMWHt9c2yhlphOB2OFqAr1NHX1SDEhxfFsyKyjGPBSTypItUW08IZEFxMcmIWXeZE6K8rzySbsNA0wqUbXJKKIJUapfI+fPhwfH199TXGefPm4eTkRN++ffXvvXv31u87OzvrZalE5FZf9UqyIpVji0cxdNJigmJM9cE0do9sw/33OLAzu5Kq0hyu7viM9zt/gZ/xkWpF2mmWjRnBeI8DRJkOM4tgue4HJr/RkvaLLxr+Wp6sH+rg1GU0W35SH+iAzptBD7Ri4DY1AZidvBns3kySJdpAvmj/DOO89YoEitAcW8bANm1wcdtFRCmUxexmTNcPmLs/FKMjyTvjTrs/D2FvqgqE8mQOeQyiwyBXfK9lGQLkH2LU40/Q89swlQOAUg3fuw+lZ78ZHA6/8ceO+kHy16YgUKckXTW8vV3LwdAcRq82yS6SgYH5xJUUs3RNFA+4hvHAWi0anY7xCw3Cu2t2NC7Hczl2KZ0utTr46CU5PZZFseVk/JTCLxVJukbwzNosftAWsmiz+lCRFjOTWJNYyvmABFrOMDTpiiSborQ03jXvqCR79OjBqlWr9E2v3t7euLu74+LioheoItJhw4ahyFN5Pqk8r7zVV32SLEsKYMGoj5jseYQ4fTXScJW07cP43f338OFeHSXZ0Wyb+C7d3I4Zxy2WkxK8jjEjRrPQV6WpFcgJmsZrf2nPmquG85UmnePbcY50+2Qtl9VGLQDZe4bxwCN92KUmgFtNfBMddzNJZpyYSrvWo/DJqIlgYfgRZrg8y8sDZ3A0spDIHZ/RbbA7PmEZhpolRQS5vsEzH+7BWJ+vORgoS/Rj7vAefDRnDxHGptac/WN5/E+9WKdR+SUDFIcfYvqQngyY9T11BLnuGvKh6QjUJcl75sQw5GQuh8+l0slMdk9s03Iuu5Lz/nG0mhlBrx+KSQ5L4Wl9DTCcVp4JLLiSz5ZD8TcOFZkWxv2r0jmTVcLaLRH8YloYd82MpHtQEdHRWfT9Sr2pteWWLC5kFOD5n0juN9Y+RZJNV2Ya48oNLknlmaQiwH79+uHp6UlYWJj+maOy/uS+ffv4+OOP6d+/v16WkyZN4vTp0xQWFt7WGMu6JVlGgt9KRo4Yy/JjkdcP7A9ZzusP/ppXvzhJouZ7xnV6G3c/Y+0ELWfWT2bkR1PZH6J2801n/8hXeXPycePzy1ISzm5hotO7TNl2zThesnb2ZbL9g8doM2KXqgBqh7b2z/VLsoAjk17hxU8OoDVPiPYiXpPf4+m3R+B1IpCNE5wZOnsn4ZmmoTA/M+fVBxi0zcys1ccXotk/n48+nILXqQTjWMgsvv+4DW2HrSe6SO1HVjGhBxfwUR8XFh2KMjS1V59PdqyNgLokw3l0eSKeV/NZtz/u+oH9y1LZm1JOamgaLyxMZEtmOQd3RxmHbETwwtoM9sXk47beVPs0F18kToH5hISk8oa7oUb44Lx4VsSWccg/nkdVm1o1DA4u5FJ4Bl3nR1T3lBVJWltJatj4NKgku3btqn8mOWjQIP3zx/R0Q31AGUOZmJjI/Pnz9U2wq1ev1u8PGDCArVu36iV5O8mqU5KlSRz7egIjxs3DL9qsGqm/WASef3uQ+9qMxWvtJ3ToOI1Aw0MuIJFjS0YxxMWNQ0q74HWvfEKPuNLttV7sNrXwlaTyw8apDHCYwtGU6wLXfEjdSb/H3mTO2Rtn7akJ1Hz26pWkLpBxLz7NhMPXKVKpS3N2wxQ6P/MWIyaNo5/jh8zdcwmtyZH4MeaBBxi5r3ZVvAxtzFHmjx/MFI+9RBlrkaR7M7x1B6YfS6FUrSNsYST7541h2Igl/FD3yKTmA93GY6oqSTcNb2zNxCcil09X1ZZdDJMuF6PV5fOlTy7xOh2jqjvbaHhtfTbHk3VMWVd7AgFFoJn4xBbgtjmS/1WGebiG89i6bM5m5jPR01ymZvvzklgVU8SWvbH80ThcRGm2FUnadsFsMEmePHmSLl26MHLkSJSmVaXmaP5SVpz29/fXyzM0NJSzZ8/qO+1cvnyZsrLqu6T5IRbv1yXJkoQglo4fybgFvsSqzA8XufIdfnXPk7zevi2dpweYdbZJJ3jNeHq80Y/FByPMaobJBHt5MKDvAFz3hFTHrzjlCl6f96LnNB9DJ5Xqb2p2ErcO5tH2M/mpoLZ0a8I0p736JJnrN5nWz4/huElmZgnLOr+ZMV2f5amnnuJp5+nsvZJmbGpVAl1g2l/v57Wh35t1wikk+doRFk4czYdffkNQZM1Jk/f8i9ad3fBPzVMd+pEfcZy5YwYy6uvAZjv9nxk6m99Vk+Sv5kbzgX8eJ35Ko4NxcoCaoRhhtN6bR2RBGVEZ5WSEpPB4dQ1Qw0vrMvHLKmaDTwKPVP89inab0/numo5vfJJoaaxF3jU9gveDiokISef56rBmgpwWxpPbsgiKzmPE8ijjGEzD9yJJ2y6aDSZJpSer0nyqiFDp0ar2Um6symQDSvNqbm4uWVlZt/Us0nQNdUnqCPNZzId9R7L4cLT6VGWxa3jzrru4v9VbzD5l3tmmhNTQwywY5oxznw8Y9+9/82/95sHiufOZf+Aa5aaxI5SSdHk7H7V9hBfe/8gYzhh+0XbOxGgpI4GN/Z/nobYOTPp8ak2YGR6sPniN2vUmU7qs+b1uScaw1bk1L4w/iuoomJyfWD2uO39o8RB/n7KVqxnmP5ByOLNxCo7PvcXgauYzmDV9AYvX7SbINOZDDyaZHSPe5JG23flk4uc1TL+cwzL9HLEFhB/1pG/bv9DO+eOa75XzLt3HtfR81YkKrJm5rcftRklG8PjXKfwnqoCNB+N4UE1eC1PZn1lBGeX47jI1tSryCqfl/DgmndFxMraAjQFaPPRbFguOZzJ9Zzx/nFUzm869M+NZn1FFWoLOGM4Y/ngqzqui+M20KP4ZWEBsRjGbf8yuCXNSyzLvS6TIUlk2WzwbTJIZGRn6Djh1CdKcoGkaO/O/3c6+uiQLSQk9xZEDgUSk19VzNomTa9ayfvMRNDe0giqiDMZ702qU5mHDdpiQ7MJaN9cy8lIv41MdxhR2Nau/O861lFzKSefC7m141Q7jtQXv0zHNclhC3ZJM5vSG/3DwZ1VFAjpiz51g5+ptnLiSgK7Wo8TKimzO7zFjuHorB/zCqKk/mkpKJpf372JDbabrNrLrpIYCismIOot37e+VzzuDiMkuUq19ms4u741P4EZJhvPQvDicdiTyt0W1m0xNtbwoOnyXwsh9SXT4qkZ6piEev18QS89dqYzeZ9qS6LQokvtqCffuL2PoWR3GFDaV0XuS6OSpTKQeySteSQxTCfP51gtoRZKNX2Aa6YoNIkllsgBlijllUgBFgI39UpdkY8fCvq5XtyTti4OktuEI3ChJkwit+12aWxuuDFjjmRpEkg1dM/xvQYkk/1titx9eJHn7DOUM1xMQSV7PQz5ZB4EGkWRTJ0Uk2fg5IJJsfOa2fkWRpK3ncPNMn0iyeeZbk8daJNnkWWBzERBJ2lyW2kSCRJI2kY2NnwiRZOMzt/UrmktS6TyeWVDRLLYsZcm9YvPe8baeU/aVvluSpHKQ6TmkNbwrza3WEA97ioNJkvaUZkmrYXH1O8VBkaRpjdk7dQ05753NQ1vk+19Jcs2mQ/oVO5R1IJUhH9ay7d+/H+UfTDZhIGVAyoCUASkDDV0GFFHW92rRtf9Ulq49hs+JK/WFk++EgBAQAkJACNgdAZGk3WW5JFgICAEhIAQsJSCStJSUhBMCQkAICAG7IyCStLsslwQLASEgBISApQREkpaSknBCQAgIASFgdwREknaX5ZJgISAEhIAQsJSASNJSUhJOCAgBISAE7I6ASNLuslwSLASEgBAQApYSEElaSkrCCQEhIASEgN0REEnaXZZLgoWAEBACQsBSAiJJS0lJOCEgBISAELA7AiJJu8tySbAQEAJCQAhYSkAkaSkpCScEhIAQEAJ2R0AkaXdZLgkWAkJACAgBSwmIJC0lJeGEgBAQAkLA7giIJO0uyyXBQkAICAEhYCkBkaSlpCScEBACQkAI2B0BkaTdZbkkWAgIASEgBCwlIJK0lJSEEwJCQAgIAbsjIJK0uyyXBAsBISAEhIClBESSlpKScEJACAgBIWB3BESSdpflkmAhIASEgBCwlIBI0lJSEk4ICAEhIATsjoBI0u6yXBIsBISAEBAClhIQSVpKSsIJASEgBISA3REQSdpdlkuChYAQEAJCwFICIklLSUk4ISAEhIAQsDsCIkm7y3JJsBAQAkJACFhKQCRpKSkJJwSEgBAQAnZHQCRpd1kuCRYCQkAICAFLCfw/33AY2kbHZu0AAAAASUVORK5CYII=;" parent="-VoNo1GTi6xVGyqaLVmS-1" vertex="1"><mxGeometry x="1270" y="1240" width="242.12" height="160" as="geometry"/></mxCell><mxCell id="b55PZlyu_amEx7Wc4jDn-49" value="" style="rounded=0;whiteSpace=wrap;html=1;" parent="-VoNo1GTi6xVGyqaLVmS-1" vertex="1"><mxGeometry x="1680" y="585" width="770" height="575" as="geometry"/></mxCell><mxCell id="b55PZlyu_amEx7Wc4jDn-58" value="&amp;nbsp; &amp;nbsp;建議：" style="rounded=1;whiteSpace=wrap;html=1;align=left;" parent="-VoNo1GTi6xVGyqaLVmS-1" vertex="1"><mxGeometry x="1695" y="655" width="735" height="60" as="geometry"/></mxCell><mxCell id="b55PZlyu_amEx7Wc4jDn-59" value="" style="rounded=0;whiteSpace=wrap;html=1;" parent="-VoNo1GTi6xVGyqaLVmS-1" vertex="1"><mxGeometry x="1695" y="605" width="735" height="30" as="geometry"/></mxCell><mxCell id="b55PZlyu_amEx7Wc4jDn-69" value="機器人模式設定" style="swimlane;strokeWidth=1;startSize=25;" parent="-VoNo1GTi6xVGyqaLVmS-1" vertex="1"><mxGeometry x="2068" y="755" width="360" height="95" as="geometry"/></mxCell><mxCell id="b55PZlyu_amEx7Wc4jDn-54" value="自動模式" style="rounded=1;whiteSpace=wrap;html=1;fillColor=#dae8fc;strokeColor=#6c8ebf;" parent="b55PZlyu_amEx7Wc4jDn-69" vertex="1"><mxGeometry x="10" y="37.5" width="99" height="40" as="geometry"/></mxCell><mxCell id="b55PZlyu_amEx7Wc4jDn-53" value="手動模式" style="rounded=1;whiteSpace=wrap;html=1;fillColor=#ffe6cc;strokeColor=#d79b00;" parent="b55PZlyu_amEx7Wc4jDn-69" vertex="1"><mxGeometry x="130" y="37.5" width="99" height="40" as="geometry"/></mxCell><mxCell id="b55PZlyu_amEx7Wc4jDn-55" value="復原模式" style="rounded=1;whiteSpace=wrap;html=1;fillColor=#f8cecc;strokeColor=#b85450;" parent="b55PZlyu_amEx7Wc4jDn-69" vertex="1"><mxGeometry x="250" y="37.5" width="100" height="42.5" as="geometry"/></mxCell><mxCell id="b55PZlyu_amEx7Wc4jDn-70" value="機器人任務設定" style="swimlane;strokeWidth=1;startSize=25;" parent="-VoNo1GTi6xVGyqaLVmS-1" vertex="1"><mxGeometry x="2068" y="870" width="360" height="95" as="geometry"/></mxCell><mxCell id="b55PZlyu_amEx7Wc4jDn-60" value="小車回充電站" style="rounded=1;whiteSpace=wrap;html=1;fillColor=#dae8fc;strokeColor=#6c8ebf;" parent="b55PZlyu_amEx7Wc4jDn-70" vertex="1"><mxGeometry x="10" y="40" width="98.5" height="40" as="geometry"/></mxCell><mxCell id="b55PZlyu_amEx7Wc4jDn-61" value="手臂回原位" style="rounded=1;whiteSpace=wrap;html=1;fillColor=#dae8fc;strokeColor=#6c8ebf;" parent="b55PZlyu_amEx7Wc4jDn-70" vertex="1"><mxGeometry x="130.75" y="40" width="98.5" height="40" as="geometry"/></mxCell><mxCell id="b55PZlyu_amEx7Wc4jDn-67" value="重新連接手柄" style="rounded=1;whiteSpace=wrap;html=1;fillColor=#dae8fc;strokeColor=#6c8ebf;" parent="b55PZlyu_amEx7Wc4jDn-70" vertex="1"><mxGeometry x="250" y="40" width="100" height="40" as="geometry"/></mxCell><mxCell id="b55PZlyu_amEx7Wc4jDn-74" value="機器人自定計劃" style="swimlane;strokeWidth=1;startSize=25;" parent="-VoNo1GTi6xVGyqaLVmS-1" vertex="1"><mxGeometry x="2068" y="980" width="360" height="155" as="geometry"/></mxCell><mxCell id="b55PZlyu_amEx7Wc4jDn-75" value="自定1" style="rounded=1;whiteSpace=wrap;html=1;fillColor=#dae8fc;strokeColor=#6c8ebf;" parent="b55PZlyu_amEx7Wc4jDn-74" vertex="1"><mxGeometry x="10" y="40" width="98.5" height="40" as="geometry"/></mxCell><mxCell id="b55PZlyu_amEx7Wc4jDn-76" value="自定2" style="rounded=1;whiteSpace=wrap;html=1;fillColor=#dae8fc;strokeColor=#6c8ebf;" parent="b55PZlyu_amEx7Wc4jDn-74" vertex="1"><mxGeometry x="130" y="40" width="98.5" height="40" as="geometry"/></mxCell><mxCell id="b55PZlyu_amEx7Wc4jDn-77" value="自定3" style="rounded=1;whiteSpace=wrap;html=1;fillColor=#dae8fc;strokeColor=#6c8ebf;" parent="b55PZlyu_amEx7Wc4jDn-74" vertex="1"><mxGeometry x="250" y="40" width="100" height="40" as="geometry"/></mxCell><mxCell id="b55PZlyu_amEx7Wc4jDn-78" value="自定4" style="rounded=1;whiteSpace=wrap;html=1;fillColor=#dae8fc;strokeColor=#6c8ebf;" parent="b55PZlyu_amEx7Wc4jDn-74" vertex="1"><mxGeometry x="10" y="95" width="98.5" height="40" as="geometry"/></mxCell><mxCell id="b55PZlyu_amEx7Wc4jDn-79" value="自定5" style="rounded=1;whiteSpace=wrap;html=1;fillColor=#dae8fc;strokeColor=#6c8ebf;" parent="b55PZlyu_amEx7Wc4jDn-74" vertex="1"><mxGeometry x="130" y="95" width="98.5" height="40" as="geometry"/></mxCell><mxCell id="b55PZlyu_amEx7Wc4jDn-80" value="自定6" style="rounded=1;whiteSpace=wrap;html=1;fillColor=#dae8fc;strokeColor=#6c8ebf;" parent="b55PZlyu_amEx7Wc4jDn-74" vertex="1"><mxGeometry x="250" y="95" width="100" height="40" as="geometry"/></mxCell><mxCell id="b55PZlyu_amEx7Wc4jDn-88" style="edgeStyle=orthogonalEdgeStyle;rounded=0;orthogonalLoop=1;jettySize=auto;html=1;exitX=0;exitY=0.5;exitDx=0;exitDy=0;startArrow=oval;startFill=1;" parent="-VoNo1GTi6xVGyqaLVmS-1" source="b55PZlyu_amEx7Wc4jDn-75" target="b55PZlyu_amEx7Wc4jDn-89" edge="1"><mxGeometry relative="1" as="geometry"><mxPoint x="1970" y="1210" as="targetPoint"/><Array as="points"><mxPoint x="2030" y="1040"/></Array></mxGeometry></mxCell><mxCell id="b55PZlyu_amEx7Wc4jDn-89" value="&lt;div style=&quot;text-align: left&quot;&gt;&lt;span&gt;1. The name should be the same as &quot;name&quot; in table&amp;nbsp;&lt;/span&gt;&lt;span style=&quot;text-align: left&quot;&gt;&quot;data_schedule_CustomPlan&quot; where &quot;ID&quot; == 1&lt;/span&gt;&lt;/div&gt;&amp;nbsp;&lt;br&gt;&lt;b&gt;After user clicked the buttonm, front end should:&lt;/b&gt;&lt;br&gt;&lt;div style=&quot;text-align: left&quot;&gt;&lt;span&gt;1. Set &quot;status&quot; == 1 in table &quot;data_schedule_CustomPlan&quot; where &lt;/span&gt;&lt;font color=&quot;#ff3399&quot;&gt;ID == 1&lt;/font&gt;&lt;span&gt;&amp;nbsp;&lt;/span&gt;&lt;/div&gt;&lt;div style=&quot;text-align: left&quot;&gt;&lt;span&gt;2. Create a new schedule with &quot;schedule_command&quot; == 6 and &quot;schedule_status&quot; == 1, and the &quot;panned_start_time&quot; should be set as 2 sec later from current time.&lt;/span&gt;&lt;/div&gt;" style="rounded=0;whiteSpace=wrap;html=1;strokeWidth=1;" parent="-VoNo1GTi6xVGyqaLVmS-1" vertex="1"><mxGeometry x="1800" y="1190" width="310" height="170" as="geometry"/></mxCell><mxCell id="b55PZlyu_amEx7Wc4jDn-90" value="&lt;div style=&quot;text-align: left&quot;&gt;&lt;span&gt;1. The name should be the same as &quot;name&quot; in table&amp;nbsp;&lt;/span&gt;&lt;span style=&quot;text-align: left&quot;&gt;&quot;data_schedule_CustomPlan&quot; where &quot;ID&quot; == 6&lt;/span&gt;&lt;/div&gt;&lt;div style=&quot;text-align: left&quot;&gt;&lt;span style=&quot;text-align: left&quot;&gt;&lt;br&gt;&lt;/span&gt;&lt;/div&gt;&lt;b&gt;After user clicked the buttonm, front end should&lt;/b&gt;&lt;br&gt;&lt;div style=&quot;text-align: left&quot;&gt;1. Set &quot;status&quot; == 1 in table &quot;data_schedule_CustomPlan&quot; where&amp;nbsp;&lt;font color=&quot;#ff3399&quot;&gt;ID == 6&lt;/font&gt;&amp;nbsp;&lt;/div&gt;&lt;div style=&quot;text-align: left&quot;&gt;2. Create a new schedule with &quot;schedule_command&quot; == 6 and &quot;schedule_status&quot; == 1,&amp;nbsp;&amp;nbsp;&lt;span&gt;and the &quot;panned_start_time&quot; should be set as 2 sec later from current time.&lt;/span&gt;&lt;/div&gt;" style="rounded=0;whiteSpace=wrap;html=1;strokeWidth=1;" parent="-VoNo1GTi6xVGyqaLVmS-1" vertex="1"><mxGeometry x="2150" y="1190" width="330" height="170" as="geometry"/></mxCell><mxCell id="b55PZlyu_amEx7Wc4jDn-91" style="edgeStyle=orthogonalEdgeStyle;rounded=0;orthogonalLoop=1;jettySize=auto;html=1;exitX=0.75;exitY=1;exitDx=0;exitDy=0;startArrow=oval;startFill=1;" parent="-VoNo1GTi6xVGyqaLVmS-1" source="b55PZlyu_amEx7Wc4jDn-80" target="b55PZlyu_amEx7Wc4jDn-90" edge="1"><mxGeometry relative="1" as="geometry"><Array as="points"><mxPoint x="2393" y="1190"/><mxPoint x="2393" y="1190"/></Array></mxGeometry></mxCell><mxCell id="b55PZlyu_amEx7Wc4jDn-93" value="機器人狀態" style="swimlane;strokeWidth=1;startSize=25;" parent="-VoNo1GTi6xVGyqaLVmS-1" vertex="1"><mxGeometry x="1400" y="1490" width="300" height="250" as="geometry"/></mxCell><mxCell id="b55PZlyu_amEx7Wc4jDn-99" value="連接正常" style="rounded=1;whiteSpace=wrap;html=1;fillColor=#d5e8d4;strokeColor=#82b366;" parent="b55PZlyu_amEx7Wc4jDn-93" vertex="1"><mxGeometry x="90" y="110" width="90" height="60" as="geometry"/></mxCell><mxCell id="b55PZlyu_amEx7Wc4jDn-100" value="無任務" style="rounded=1;whiteSpace=wrap;html=1;fillColor=#d5e8d4;strokeColor=#82b366;" parent="b55PZlyu_amEx7Wc4jDn-93" vertex="1"><mxGeometry x="190" y="110" width="90" height="60" as="geometry"/></mxCell><mxCell id="b55PZlyu_amEx7Wc4jDn-101" value="小車" style="rounded=1;whiteSpace=wrap;html=1;" parent="b55PZlyu_amEx7Wc4jDn-93" vertex="1"><mxGeometry x="10" y="180" width="70" height="60" as="geometry"/></mxCell><mxCell id="b55PZlyu_amEx7Wc4jDn-102" value="連接正常" style="rounded=1;whiteSpace=wrap;html=1;fillColor=#d5e8d4;strokeColor=#82b366;" parent="b55PZlyu_amEx7Wc4jDn-93" vertex="1"><mxGeometry x="90" y="180" width="90" height="60" as="geometry"/></mxCell><mxCell id="b55PZlyu_amEx7Wc4jDn-103" value="任務進行中" style="rounded=1;whiteSpace=wrap;html=1;fillColor=#d5e8d4;strokeColor=#82b366;" parent="b55PZlyu_amEx7Wc4jDn-93" vertex="1"><mxGeometry x="190" y="180" width="90" height="60" as="geometry"/></mxCell><mxCell id="b55PZlyu_amEx7Wc4jDn-104" value="機器人當前模式: 自動模式" style="rounded=1;whiteSpace=wrap;html=1;fillColor=#dae8fc;strokeColor=#6c8ebf;" parent="b55PZlyu_amEx7Wc4jDn-93" vertex="1"><mxGeometry x="10" y="40" width="270" height="60" as="geometry"/></mxCell><mxCell id="b55PZlyu_amEx7Wc4jDn-105" value="手臂" style="rounded=1;whiteSpace=wrap;html=1;" parent="b55PZlyu_amEx7Wc4jDn-93" vertex="1"><mxGeometry x="10" y="110" width="70" height="60" as="geometry"/></mxCell><mxCell id="b55PZlyu_amEx7Wc4jDn-106" value="機器人狀態" style="swimlane;strokeWidth=1;startSize=25;" parent="-VoNo1GTi6xVGyqaLVmS-1" vertex="1"><mxGeometry x="1700" y="755" width="295" height="255" as="geometry"><mxRectangle x="1695" y="750" width="90" height="25" as="alternateBounds"/></mxGeometry></mxCell><mxCell id="b55PZlyu_amEx7Wc4jDn-107" value="連接正常" style="rounded=1;whiteSpace=wrap;html=1;fillColor=#d5e8d4;strokeColor=#82b366;" parent="b55PZlyu_amEx7Wc4jDn-106" vertex="1"><mxGeometry x="90" y="110" width="90" height="60" as="geometry"/></mxCell><mxCell id="b55PZlyu_amEx7Wc4jDn-108" value="無任務" style="rounded=1;whiteSpace=wrap;html=1;fillColor=#d5e8d4;strokeColor=#82b366;" parent="b55PZlyu_amEx7Wc4jDn-106" vertex="1"><mxGeometry x="190" y="110" width="90" height="60" as="geometry"/></mxCell><mxCell id="b55PZlyu_amEx7Wc4jDn-109" value="小車" style="rounded=1;whiteSpace=wrap;html=1;" parent="b55PZlyu_amEx7Wc4jDn-106" vertex="1"><mxGeometry x="10" y="180" width="70" height="60" as="geometry"/></mxCell><mxCell id="b55PZlyu_amEx7Wc4jDn-110" value="連接正常" style="rounded=1;whiteSpace=wrap;html=1;fillColor=#d5e8d4;strokeColor=#82b366;" parent="b55PZlyu_amEx7Wc4jDn-106" vertex="1"><mxGeometry x="90" y="180" width="90" height="60" as="geometry"/></mxCell><mxCell id="b55PZlyu_amEx7Wc4jDn-111" value="任務進行中" style="rounded=1;whiteSpace=wrap;html=1;fillColor=#d5e8d4;strokeColor=#82b366;" parent="b55PZlyu_amEx7Wc4jDn-106" vertex="1"><mxGeometry x="190" y="180" width="90" height="60" as="geometry"/></mxCell><mxCell id="b55PZlyu_amEx7Wc4jDn-112" value="機器人當前模式: 自動模式" style="rounded=1;whiteSpace=wrap;html=1;fillColor=#dae8fc;strokeColor=#6c8ebf;" parent="b55PZlyu_amEx7Wc4jDn-106" vertex="1"><mxGeometry x="10" y="40" width="270" height="60" as="geometry"/></mxCell><mxCell id="b55PZlyu_amEx7Wc4jDn-113" value="手臂" style="rounded=1;whiteSpace=wrap;html=1;" parent="b55PZlyu_amEx7Wc4jDn-106" vertex="1"><mxGeometry x="10" y="110" width="70" height="60" as="geometry"/></mxCell><mxCell id="b55PZlyu_amEx7Wc4jDn-114" value="機器人狀態" style="swimlane;strokeWidth=1;startSize=25;" parent="-VoNo1GTi6xVGyqaLVmS-1" vertex="1"><mxGeometry x="876.5" y="745" width="295" height="255" as="geometry"><mxRectangle x="1695" y="750" width="90" height="25" as="alternateBounds"/></mxGeometry></mxCell><mxCell id="b55PZlyu_amEx7Wc4jDn-115" value="連接正常" style="rounded=1;whiteSpace=wrap;html=1;fillColor=#d5e8d4;strokeColor=#82b366;" parent="b55PZlyu_amEx7Wc4jDn-114" vertex="1"><mxGeometry x="90" y="110" width="90" height="60" as="geometry"/></mxCell><mxCell id="b55PZlyu_amEx7Wc4jDn-116" value="無任務" style="rounded=1;whiteSpace=wrap;html=1;fillColor=#d5e8d4;strokeColor=#82b366;" parent="b55PZlyu_amEx7Wc4jDn-114" vertex="1"><mxGeometry x="190" y="110" width="90" height="60" as="geometry"/></mxCell><mxCell id="b55PZlyu_amEx7Wc4jDn-117" value="小車" style="rounded=1;whiteSpace=wrap;html=1;" parent="b55PZlyu_amEx7Wc4jDn-114" vertex="1"><mxGeometry x="10" y="180" width="70" height="60" as="geometry"/></mxCell><mxCell id="b55PZlyu_amEx7Wc4jDn-118" value="連接正常" style="rounded=1;whiteSpace=wrap;html=1;fillColor=#d5e8d4;strokeColor=#82b366;" parent="b55PZlyu_amEx7Wc4jDn-114" vertex="1"><mxGeometry x="90" y="180" width="90" height="60" as="geometry"/></mxCell><mxCell id="b55PZlyu_amEx7Wc4jDn-119" value="任務進行中" style="rounded=1;whiteSpace=wrap;html=1;fillColor=#d5e8d4;strokeColor=#82b366;" parent="b55PZlyu_amEx7Wc4jDn-114" vertex="1"><mxGeometry x="190" y="180" width="90" height="60" as="geometry"/></mxCell><mxCell id="b55PZlyu_amEx7Wc4jDn-120" value="機器人當前模式: 自動模式" style="rounded=1;whiteSpace=wrap;html=1;fillColor=#dae8fc;strokeColor=#6c8ebf;" parent="b55PZlyu_amEx7Wc4jDn-114" vertex="1"><mxGeometry x="10" y="40" width="270" height="60" as="geometry"/></mxCell><mxCell id="b55PZlyu_amEx7Wc4jDn-121" value="手臂" style="rounded=1;whiteSpace=wrap;html=1;" parent="b55PZlyu_amEx7Wc4jDn-114" vertex="1"><mxGeometry x="10" y="110" width="70" height="60" as="geometry"/></mxCell><mxCell id="b55PZlyu_amEx7Wc4jDn-123" value="機器人模式設定" style="swimlane;strokeWidth=1;startSize=25;" parent="-VoNo1GTi6xVGyqaLVmS-1" vertex="1"><mxGeometry x="1240.5" y="745" width="360" height="95" as="geometry"/></mxCell><mxCell id="b55PZlyu_amEx7Wc4jDn-124" value="自動模式" style="rounded=1;whiteSpace=wrap;html=1;fillColor=#dae8fc;strokeColor=#6c8ebf;" parent="b55PZlyu_amEx7Wc4jDn-123" vertex="1"><mxGeometry x="10" y="37.5" width="99" height="40" as="geometry"/></mxCell><mxCell id="b55PZlyu_amEx7Wc4jDn-125" value="手動模式" style="rounded=1;whiteSpace=wrap;html=1;fillColor=#ffe6cc;strokeColor=#d79b00;" parent="b55PZlyu_amEx7Wc4jDn-123" vertex="1"><mxGeometry x="130" y="37.5" width="99" height="40" as="geometry"/></mxCell><mxCell id="b55PZlyu_amEx7Wc4jDn-126" value="復原模式" style="rounded=1;whiteSpace=wrap;html=1;fillColor=#f8cecc;strokeColor=#b85450;" parent="b55PZlyu_amEx7Wc4jDn-123" vertex="1"><mxGeometry x="250" y="37.5" width="100" height="42.5" as="geometry"/></mxCell><mxCell id="b55PZlyu_amEx7Wc4jDn-127" value="機器人任務設定" style="swimlane;strokeWidth=1;startSize=25;" parent="-VoNo1GTi6xVGyqaLVmS-1" vertex="1"><mxGeometry x="1240.5" y="850" width="360" height="95" as="geometry"/></mxCell><mxCell id="b55PZlyu_amEx7Wc4jDn-128" value="小車回充電站" style="rounded=1;whiteSpace=wrap;html=1;fillColor=#dae8fc;strokeColor=#6c8ebf;" parent="b55PZlyu_amEx7Wc4jDn-127" vertex="1"><mxGeometry x="10" y="40" width="98.5" height="40" as="geometry"/></mxCell><mxCell id="b55PZlyu_amEx7Wc4jDn-129" value="手臂回原位" style="rounded=1;whiteSpace=wrap;html=1;fillColor=#dae8fc;strokeColor=#6c8ebf;" parent="b55PZlyu_amEx7Wc4jDn-127" vertex="1"><mxGeometry x="130.75" y="40" width="98.5" height="40" as="geometry"/></mxCell><mxCell id="b55PZlyu_amEx7Wc4jDn-130" value="重新連接手柄" style="rounded=1;whiteSpace=wrap;html=1;fillColor=#dae8fc;strokeColor=#6c8ebf;" parent="b55PZlyu_amEx7Wc4jDn-127" vertex="1"><mxGeometry x="250" y="40" width="100" height="40" as="geometry"/></mxCell><mxCell id="b55PZlyu_amEx7Wc4jDn-131" value="機器人自定計劃" style="swimlane;strokeWidth=1;startSize=25;" parent="-VoNo1GTi6xVGyqaLVmS-1" vertex="1"><mxGeometry x="1240.5" y="960" width="360" height="90" as="geometry"><mxRectangle x="1240.5" y="960" width="120" height="25" as="alternateBounds"/></mxGeometry></mxCell><mxCell id="b55PZlyu_amEx7Wc4jDn-132" value="自定1" style="rounded=1;whiteSpace=wrap;html=1;fillColor=#dae8fc;strokeColor=#6c8ebf;" parent="b55PZlyu_amEx7Wc4jDn-131" vertex="1"><mxGeometry x="10" y="40" width="98.5" height="40" as="geometry"/></mxCell><mxCell id="b55PZlyu_amEx7Wc4jDn-133" value="自定2" style="rounded=1;whiteSpace=wrap;html=1;fillColor=#dae8fc;strokeColor=#6c8ebf;" parent="b55PZlyu_amEx7Wc4jDn-131" vertex="1"><mxGeometry x="130" y="40" width="98.5" height="40" as="geometry"/></mxCell><mxCell id="b55PZlyu_amEx7Wc4jDn-134" value="自定3" style="rounded=1;whiteSpace=wrap;html=1;fillColor=#dae8fc;strokeColor=#6c8ebf;" parent="b55PZlyu_amEx7Wc4jDn-131" vertex="1"><mxGeometry x="250" y="40" width="100" height="40" as="geometry"/></mxCell><mxCell id="b55PZlyu_amEx7Wc4jDn-139" style="edgeStyle=orthogonalEdgeStyle;rounded=0;orthogonalLoop=1;jettySize=auto;html=1;exitX=1;exitY=1;exitDx=0;exitDy=0;startArrow=oval;startFill=1;" parent="-VoNo1GTi6xVGyqaLVmS-1" source="b55PZlyu_amEx7Wc4jDn-119" edge="1"><mxGeometry relative="1" as="geometry"><mxPoint x="1064" y="980" as="sourcePoint"/><mxPoint x="1110" y="1080" as="targetPoint"/><Array as="points"><mxPoint x="1156" y="1030"/><mxPoint x="1110" y="1030"/></Array></mxGeometry></mxCell><mxCell id="cnftxfHg0mxWhTOGYJ4W-11" value="狀態" style="rounded=1;whiteSpace=wrap;html=1;" vertex="1" parent="-VoNo1GTi6xVGyqaLVmS-1"><mxGeometry x="1815" y="-1030" width="120" height="60" as="geometry"/></mxCell><mxCell id="cnftxfHg0mxWhTOGYJ4W-12" value="" style="triangle;whiteSpace=wrap;html=1;rotation=90;strokeWidth=2;" vertex="1" parent="-VoNo1GTi6xVGyqaLVmS-1"><mxGeometry x="1905" y="-1005" width="10" height="10" as="geometry"/></mxCell><mxCell id="cnftxfHg0mxWhTOGYJ4W-13" value="" style="rounded=0;whiteSpace=wrap;html=1;strokeWidth=1;" vertex="1" parent="-VoNo1GTi6xVGyqaLVmS-1"><mxGeometry x="2175" y="-980" width="140" height="240" as="geometry"/></mxCell><mxCell id="cnftxfHg0mxWhTOGYJ4W-14" value="狀態" style="rounded=1;whiteSpace=wrap;html=1;" vertex="1" parent="-VoNo1GTi6xVGyqaLVmS-1"><mxGeometry x="2045" y="-1030" width="120" height="60" as="geometry"/></mxCell><mxCell id="cnftxfHg0mxWhTOGYJ4W-15" value="" style="triangle;whiteSpace=wrap;html=1;rotation=90;strokeWidth=2;" vertex="1" parent="-VoNo1GTi6xVGyqaLVmS-1"><mxGeometry x="2135" y="-1005" width="10" height="10" as="geometry"/></mxCell><mxCell id="cnftxfHg0mxWhTOGYJ4W-16" value="" style="shape=image;html=1;verticalAlign=top;verticalLabelPosition=bottom;labelBackgroundColor=#ffffff;imageAspect=0;aspect=fixed;image=https://cdn4.iconfinder.com/data/icons/interactive-gesture-pack/99/Single_Tap-128.png;strokeWidth=2;" vertex="1" parent="-VoNo1GTi6xVGyqaLVmS-1"><mxGeometry x="2130" y="-995" width="35" height="35" as="geometry"/></mxCell><mxCell id="cnftxfHg0mxWhTOGYJ4W-17" value="錯誤" style="rounded=1;whiteSpace=wrap;html=1;strokeWidth=1;" vertex="1" parent="-VoNo1GTi6xVGyqaLVmS-1"><mxGeometry x="2185" y="-960" width="120" height="40" as="geometry"/></mxCell><mxCell id="cnftxfHg0mxWhTOGYJ4W-18" value="完成" style="rounded=1;whiteSpace=wrap;html=1;strokeWidth=1;" vertex="1" parent="-VoNo1GTi6xVGyqaLVmS-1"><mxGeometry x="2185" y="-910" width="120" height="40" as="geometry"/></mxCell><mxCell id="cnftxfHg0mxWhTOGYJ4W-19" value="進行中" style="rounded=1;whiteSpace=wrap;html=1;strokeWidth=1;" vertex="1" parent="-VoNo1GTi6xVGyqaLVmS-1"><mxGeometry x="2185" y="-860" width="120" height="40" as="geometry"/></mxCell><mxCell id="cnftxfHg0mxWhTOGYJ4W-20" value="已取消" style="rounded=1;whiteSpace=wrap;html=1;strokeWidth=1;" vertex="1" parent="-VoNo1GTi6xVGyqaLVmS-1"><mxGeometry x="2185" y="-810" width="120" height="40" as="geometry"/></mxCell><mxCell id="cnftxfHg0mxWhTOGYJ4W-21" value="" style="shape=flexArrow;endArrow=classic;html=1;" edge="1" parent="-VoNo1GTi6xVGyqaLVmS-1"><mxGeometry width="50" height="50" relative="1" as="geometry"><mxPoint x="1955" y="-1000.4199999999998" as="sourcePoint"/><mxPoint x="2015" y="-1000.4199999999998" as="targetPoint"/></mxGeometry></mxCell></root></mxGraphModel></diagram><diagram id="D8qx5GtqE4xKNmAFKGdk" name="Page3"><mxGraphModel dx="1165" dy="597" grid="1" gridSize="10" guides="1" tooltips="1" connect="1" arrows="1" fold="1" page="1" pageScale="1" pageWidth="827" pageHeight="1169" math="0" shadow="0"><root><mxCell id="tRaAJy0J-biame4A7clu-0"/><mxCell id="tRaAJy0J-biame4A7clu-1" parent="tRaAJy0J-biame4A7clu-0"/><mxCell id="k2sv5onD_O5OspFqhznY-0" value="" style="shape=image;imageAspect=0;aspect=fixed;verticalLabelPosition=bottom;verticalAlign=top;image=https://lh3.googleusercontent.com/-Rwi5u288zwngi5xCOd-r-7i7km7oP3VAPHp4V5YRS6Iu8N-olH8ul47km8hIb1-csepQyNPfbDu0nYi6lsr=w759-h1273-rw;" vertex="1" parent="tRaAJy0J-biame4A7clu-1"><mxGeometry x="90" y="50" width="440.7" height="500" as="geometry"/></mxCell><mxCell id="k2sv5onD_O5OspFqhznY-1" value="" style="html=1;verticalLabelPosition=bottom;align=center;labelBackgroundColor=#ffffff;verticalAlign=top;strokeWidth=2;strokeColor=#0080F0;shadow=0;dashed=0;shape=mxgraph.ios7.icons.compose;" vertex="1" parent="tRaAJy0J-biame4A7clu-1"><mxGeometry x="390" y="330" width="20" height="20" as="geometry"/></mxCell><mxCell id="k2sv5onD_O5OspFqhznY-2" value="" style="html=1;verticalLabelPosition=bottom;align=center;labelBackgroundColor=#ffffff;verticalAlign=top;strokeWidth=2;strokeColor=#0080F0;shadow=0;dashed=0;shape=mxgraph.ios7.icons.compose;" vertex="1" parent="tRaAJy0J-biame4A7clu-1"><mxGeometry x="484" y="370" width="20" height="20" as="geometry"/></mxCell><mxCell id="k2sv5onD_O5OspFqhznY-3" value="" style="html=1;verticalLabelPosition=bottom;align=center;labelBackgroundColor=#ffffff;verticalAlign=top;strokeWidth=2;strokeColor=#0080F0;shadow=0;dashed=0;shape=mxgraph.ios7.icons.compose;" vertex="1" parent="tRaAJy0J-biame4A7clu-1"><mxGeometry x="390" y="410" width="20" height="20" as="geometry"/></mxCell><mxCell id="k2sv5onD_O5OspFqhznY-4" value="" style="html=1;verticalLabelPosition=bottom;align=center;labelBackgroundColor=#ffffff;verticalAlign=top;strokeWidth=2;strokeColor=#0080F0;shadow=0;dashed=0;shape=mxgraph.ios7.icons.compose;" vertex="1" parent="tRaAJy0J-biame4A7clu-1"><mxGeometry x="484" y="440" width="20" height="20" as="geometry"/></mxCell><mxCell id="k2sv5onD_O5OspFqhznY-5" value="" style="html=1;verticalLabelPosition=bottom;align=center;labelBackgroundColor=#ffffff;verticalAlign=top;strokeWidth=2;strokeColor=#0080F0;shadow=0;dashed=0;shape=mxgraph.ios7.icons.compose;" vertex="1" parent="tRaAJy0J-biame4A7clu-1"><mxGeometry x="390" y="370" width="20" height="20" as="geometry"/></mxCell><mxCell id="k2sv5onD_O5OspFqhznY-6" value="" style="html=1;verticalLabelPosition=bottom;align=center;labelBackgroundColor=#ffffff;verticalAlign=top;strokeWidth=2;strokeColor=#0080F0;shadow=0;dashed=0;shape=mxgraph.ios7.icons.compose;" vertex="1" parent="tRaAJy0J-biame4A7clu-1"><mxGeometry x="390" y="480" width="20" height="20" as="geometry"/></mxCell><mxCell id="k2sv5onD_O5OspFqhznY-7" value="" style="rounded=0;whiteSpace=wrap;html=1;fillColor=none;strokeWidth=4;strokeColor=#EA6B66;" vertex="1" parent="tRaAJy0J-biame4A7clu-1"><mxGeometry x="80" y="280" width="470" height="290" as="geometry"/></mxCell><mxCell id="k2sv5onD_O5OspFqhznY-9" value="" style="rounded=0;whiteSpace=wrap;html=1;strokeWidth=1;" vertex="1" parent="tRaAJy0J-biame4A7clu-1"><mxGeometry x="80" y="650" width="280" height="320" as="geometry"/></mxCell><mxCell id="k2sv5onD_O5OspFqhznY-11" value="&lt;span&gt;清潔任務詳細設置&lt;/span&gt;" style="rounded=0;whiteSpace=wrap;html=1;strokeColor=#000000;strokeWidth=1;fillColor=none;" vertex="1" parent="tRaAJy0J-biame4A7clu-1"><mxGeometry x="80" y="650" width="280" height="60" as="geometry"/></mxCell><mxCell id="k2sv5onD_O5OspFqhznY-12" value="" style="rounded=0;whiteSpace=wrap;html=1;strokeWidth=1;" vertex="1" parent="tRaAJy0J-biame4A7clu-1"><mxGeometry x="390" y="650" width="280" height="320" as="geometry"/></mxCell><mxCell id="k2sv5onD_O5OspFqhznY-13" value="&lt;span&gt;消毒任務詳細設置&lt;/span&gt;" style="rounded=0;whiteSpace=wrap;html=1;strokeColor=#000000;strokeWidth=1;fillColor=none;" vertex="1" parent="tRaAJy0J-biame4A7clu-1"><mxGeometry x="390" y="650" width="280" height="60" as="geometry"/></mxCell></root></mxGraphModel></diagram></mxfile>